SplineFontDB: 3.2
FontName: CMUTypewriterSlashed-Italic
FullName: CMU Typewriter Slashed Italic
FamilyName: CMU Typewriter Slashed
Weight: Regular
Copyright: Converted by Andrey V. Panov from TeX fonts
Version: 0.7.0
ItalicAngle: -14.04
UnderlinePosition: -150
UnderlineWidth: 50
Ascent: 775
Descent: 225
InvalidEm: 0
sfntRevision: 0x0000b333
LayerCount: 2
Layer: 0 1 "Back" 1
Layer: 1 1 "Fore" 0
XUID: [1021 306 -1528867943 10986707]
StyleMap: 0x0001
FSType: 0
OS2Version: 1
OS2_WeightWidthSlopeOnly: 0
OS2_UseTypoMetrics: 1
CreationTime: 1245313519
ModificationTime: 1781539794
PfmFamily: 17
TTFWeight: 400
TTFWidth: 5
LineGap: 200
VLineGap: 0
Panose: 2 0 6 9 0 0 0 0 0 0
OS2TypoAscent: 800
OS2TypoAOffset: 0
OS2TypoDescent: -200
OS2TypoDOffset: 0
OS2TypoLinegap: 0
OS2WinAscent: 800
OS2WinAOffset: 0
OS2WinDescent: 200
OS2WinDOffset: 0
HheadAscent: 800
HheadAOffset: 0
HheadDescent: -200
HheadDOffset: 0
OS2SubXSize: 650
OS2SubYSize: 700
OS2SubXOff: 33
OS2SubYOff: 140
OS2SupXSize: 650
OS2SupYSize: 700
OS2SupXOff: -116
OS2SupYOff: 480
OS2StrikeYSize: 49
OS2StrikeYPos: 258
OS2Vendor: 'PfEd'
OS2CodePages: 0000011f.d7d70000
OS2UnicodeRanges: e10002ff.5201e9eb.00020004.00000000
Lookup: 1 0 0 "'case' Case-Sensitive Forms lookup 0" { "'case' Case-Sensitive Forms lookup 0 subtable"  } ['case' ('cyrl' <'dflt' > 'grek' <'dflt' > 'latn' <'dflt' > ) ]
Lookup: 1 0 0 "'locl' Localized Forms in Cyrillic lookup 1" { "'locl' Localized Forms in Cyrillic lookup 1 subtable"  } ['locl' ('cyrl' <'MKD ' 'SRB ' > ) ]
Lookup: 3 0 0 "'salt' Stylistic Alternatives in Greek lookup 2" { "'salt' Stylistic Alternatives in Greek lookup 2 subtable"  } ['salt' ('grek' <'dflt' > ) ]
Lookup: 1 0 0 "'locl' Localized Forms in Greek lookup 3" { "'locl' Localized Forms in Greek lookup 3 subtable"  } ['locl' ('grek' <'dflt' > ) ]
Lookup: 4 0 0 "'dlig' Discretionary Ligatures in Latin lookup 4" { "'dlig' Discretionary Ligatures in Latin lookup 4 subtable"  } ['dlig' ('latn' <'NLD ' > ) ]

StartChar: .notdef
Encoding: 0 0 0
Width: 525
GlyphClass: 1
Flags: W
LayerCount: 2
Fore
SplineSet
10 10 m 1,0,-1
 10 765 l 1,1,-1
 515 765 l 1,2,-1
 515 10 l 1,3,-1
 10 10 l 1,0,-1
70 112 m 1,4,-1
 232 388 l 1,5,-1
 70 663 l 1,6,-1
 70 112 l 1,4,-1
105 70 m 1,7,-1
 420 70 l 1,8,-1
 262 337 l 1,9,-1
 105 70 l 1,7,-1
105 705 m 1,10,-1
 262 438 l 1,11,-1
 420 705 l 1,12,-1
 105 705 l 1,10,-1
292 388 m 1,13,-1
 455 112 l 1,14,-1
 455 663 l 1,15,-1
 292 388 l 1,13,-1
EndSplineSet
EndChar

StartChar: exclam
Encoding: 33 33 4
Width: 525
GlyphClass: 2
Flags: W
LayerCount: 2
Fore
SplineSet
214 55 m 0,0,1
 214 82 214 82 235 103.5 c 128,-1,2
 256 125 256 125 286 125 c 0,3,4
 309 125 309 125 325 110 c 128,-1,5
 341 95 341 95 341 71 c 0,6,7
 341 41 341 41 318.5 20.5 c 128,-1,8
 296 0 296 0 270 0 c 0,9,10
 246 0 246 0 230 16 c 128,-1,11
 214 32 214 32 214 55 c 0,0,1
270 231 m 0,12,13
 270 235 270 235 272 243 c 128,-1,14
 274 251 274 251 274 253 c 2,15,-1
 338 557 l 2,16,17
 346 593 346 593 367.5 607.5 c 128,-1,18
 389 622 389 622 410 622 c 0,19,20
 433 622 433 622 449.5 607 c 128,-1,21
 466 592 466 592 466 569 c 0,22,23
 466 564 466 564 461 544 c 2,24,-1
 373 238 l 2,25,26
 367 217 367 217 360.5 209.5 c 128,-1,27
 354 202 354 202 333 202 c 2,28,-1
 305 202 l 2,29,30
 270 202 270 202 270 231 c 0,12,13
EndSplineSet
EndChar

StartChar: quotedbl
Encoding: 34 34 5
Width: 525
GlyphClass: 2
Flags: W
LayerCount: 2
Fore
SplineSet
233 356 m 0,0,1
 233 363 233 363 269 557 c 2,2,-1
 270 562 l 2,3,4
 271 568 271 568 271.5 571.5 c 128,-1,5
 272 575 272 575 274 582 c 128,-1,6
 276 589 276 589 278.5 593.5 c 128,-1,7
 281 598 281 598 285 603.5 c 128,-1,8
 289 609 289 609 294 612.5 c 128,-1,9
 299 616 299 616 306 618.5 c 128,-1,10
 313 621 313 621 322 621 c 0,11,12
 339 621 339 621 351 610 c 128,-1,13
 363 599 363 599 363 581 c 0,14,15
 363 573 363 573 297 362 c 0,16,17
 297 361 297 361 295.5 356.5 c 128,-1,18
 294 352 294 352 293 349.5 c 128,-1,19
 292 347 292 347 289 342.5 c 128,-1,20
 286 338 286 338 283 335 c 128,-1,21
 280 332 280 332 274.5 330 c 128,-1,22
 269 328 269 328 263 328 c 0,23,24
 250 328 250 328 241.5 335.5 c 128,-1,25
 233 343 233 343 233 356 c 0,0,1
408 356 m 0,26,27
 408 360 408 360 445 557 c 2,28,-1
 446 562 l 2,29,30
 447 568 447 568 447.5 571.5 c 128,-1,31
 448 575 448 575 450 582 c 128,-1,32
 452 589 452 589 454.5 593.5 c 128,-1,33
 457 598 457 598 461 603.5 c 128,-1,34
 465 609 465 609 470 612.5 c 128,-1,35
 475 616 475 616 482 618.5 c 128,-1,36
 489 621 489 621 498 621 c 0,37,38
 516 621 516 621 527.5 610 c 128,-1,39
 539 599 539 599 539 581 c 0,40,41
 539 572 539 572 473 362 c 0,42,43
 473 361 473 361 471.5 356.5 c 128,-1,44
 470 352 470 352 469 349.5 c 128,-1,45
 468 347 468 347 465 342.5 c 128,-1,46
 462 338 462 338 459 335 c 128,-1,47
 456 332 456 332 450.5 330 c 128,-1,48
 445 328 445 328 439 328 c 0,49,50
 425 328 425 328 416.5 336.5 c 128,-1,51
 408 345 408 345 408 356 c 0,26,27
EndSplineSet
EndChar

StartChar: numbersign
Encoding: 35 35 6
Width: 525
GlyphClass: 2
Flags: W
ItalicCorrection: 173
LayerCount: 2
Fore
SplineSet
120 197 m 0,0,1
 120 229 120 229 159 229 c 2,2,-1
 205 229 l 1,3,-1
 260 382 l 1,4,-1
 214 382 l 2,5,6
 174 382 174 382 174 414 c 0,7,8
 174 420 174 420 176.5 426.5 c 128,-1,9
 179 433 179 433 188 438.5 c 128,-1,10
 197 444 197 444 211 444 c 2,11,-1
 282 444 l 1,12,13
 283 448 283 448 285.5 455.5 c 128,-1,14
 288 463 288 463 292 473.5 c 128,-1,15
 296 484 296 484 305.5 511 c 128,-1,16
 315 538 315 538 327 572 c 0,17,18
 332 586 332 586 334.5 591 c 128,-1,19
 337 596 337 596 344 603 c 128,-1,20
 351 610 351 610 362 610 c 0,21,22
 374 610 374 610 383.5 601.5 c 128,-1,23
 393 593 393 593 393 580 c 0,24,25
 393 573 393 573 348 444 c 1,26,-1
 428 444 l 1,27,28
 429 448 429 448 431.5 455.5 c 128,-1,29
 434 463 434 463 438 473.5 c 128,-1,30
 442 484 442 484 451.5 511 c 128,-1,31
 461 538 461 538 473 572 c 0,32,33
 478 586 478 586 480.5 591 c 128,-1,34
 483 596 483 596 490 603 c 128,-1,35
 497 610 497 610 508 610 c 0,36,37
 520 610 520 610 529 601.5 c 128,-1,38
 538 593 538 593 538 580 c 0,39,40
 538 573 538 573 493 444 c 1,41,-1
 517 444 l 2,42,43
 555 444 555 444 555 413 c 128,-1,44
 555 382 555 382 517 382 c 2,45,-1
 470 382 l 1,46,-1
 416 229 l 1,47,-1
 462 229 l 2,48,49
 501 229 501 229 501 198 c 128,-1,50
 501 167 501 167 465 167 c 2,51,-1
 394 167 l 1,52,53
 344 26 344 26 341 20 c 0,54,55
 329 1 329 1 313 0 c 0,56,57
 301 0 301 0 292 9 c 128,-1,58
 283 18 283 18 283 31 c 0,59,60
 283 40 283 40 328 167 c 1,61,-1
 248 167 l 1,62,63
 237 135 237 135 221 88 c 0,64,65
 200 26 200 26 192.5 13 c 128,-1,66
 185 0 185 0 168 0 c 0,67,68
 156 0 156 0 146.5 9 c 128,-1,69
 137 18 137 18 137 31 c 0,70,71
 137 38 137 38 183 167 c 1,72,-1
 159 167 l 2,73,74
 121 167 121 167 120 197 c 0,0,1
271 229 m 1,75,-1
 351 229 l 1,76,-1
 405 382 l 1,77,-1
 325 382 l 1,78,-1
 271 229 l 1,75,-1
EndSplineSet
EndChar

StartChar: dollar
Encoding: 36 36 7
Width: 525
GlyphClass: 2
Flags: W
ItalicCorrection: 173
LayerCount: 2
Fore
SplineSet
127 125 m 0,0,1
 127 216 127 216 182 216 c 0,2,3
 200 216 200 216 211.5 205 c 128,-1,4
 223 194 223 194 223 176 c 0,5,6
 223 151 223 151 197 133 c 1,7,-1
 197 126 l 2,8,9
 197 71 197 71 245 59 c 1,10,-1
 303 291 l 1,11,12
 250 304 250 304 224.5 341 c 128,-1,13
 199 378 199 378 199 420 c 0,14,15
 199 484 199 484 249.5 543 c 128,-1,16
 300 602 300 602 384 615 c 1,17,18
 395 664 395 664 402.5 679 c 128,-1,19
 410 694 410 694 429 694 c 0,20,21
 443 694 443 694 451 685.5 c 128,-1,22
 459 677 459 677 459 666 c 0,23,24
 459 661 459 661 447 613 c 1,25,26
 482 606 482 606 505 589.5 c 128,-1,27
 528 573 528 573 536.5 552.5 c 128,-1,28
 545 532 545 532 548 518.5 c 128,-1,29
 551 505 551 505 551 491 c 0,30,31
 551 407 551 407 497 407 c 0,32,33
 479 407 479 407 468 418.5 c 128,-1,34
 457 430 457 430 457 447 c 0,35,36
 457 473 457 473 482 490 c 1,37,38
 482 512 482 512 473 526 c 128,-1,39
 464 540 464 540 455.5 544.5 c 128,-1,40
 447 549 447 549 432 553 c 1,41,-1
 380 344 l 1,42,43
 426 333 426 333 453.5 296.5 c 128,-1,44
 481 260 481 260 481 209 c 0,45,46
 481 134 481 134 424.5 71 c 128,-1,47
 368 8 368 8 293 -3 c 1,48,49
 285 -40 285 -40 281 -53 c 128,-1,50
 277 -66 277 -66 269 -74.5 c 128,-1,51
 261 -83 261 -83 248 -83 c 0,52,53
 232 -83 232 -83 225 -74 c 128,-1,54
 218 -65 218 -65 218 -55 c 0,55,56
 218 -54 218 -54 229 -2 c 1,57,58
 183 7 183 7 155 39.5 c 128,-1,59
 127 72 127 72 127 125 c 0,0,1
265 427 m 0,60,61
 265 375 265 375 320 360 c 1,62,-1
 367 548 l 1,63,64
 323 533 323 533 294 498.5 c 128,-1,65
 265 464 265 464 265 427 c 0,60,61
310 64 m 1,66,67
 355 81 355 81 385 120 c 128,-1,68
 415 159 415 159 415 202 c 0,69,70
 415 256 415 256 363 275 c 1,71,-1
 310 64 l 1,66,67
EndSplineSet
EndChar

StartChar: percent
Encoding: 37 37 8
Width: 525
GlyphClass: 2
Flags: W
ItalicCorrection: 173
LayerCount: 2
Fore
SplineSet
97 -49 m 0,0,1
 97 -38 97 -38 108 -20 c 2,2,-1
 509 670 l 2,3,4
 523 694 523 694 544 694 c 0,5,6
 558 694 558 694 568 683.5 c 128,-1,7
 578 673 578 673 578 659 c 0,8,9
 578 651 578 651 569 633 c 2,10,-1
 167 -58 l 2,11,12
 152 -83 152 -83 132 -83 c 0,13,14
 118 -83 118 -83 107.5 -73 c 128,-1,15
 97 -63 97 -63 97 -49 c 0,0,1
203 509 m 0,16,17
 203 566 203 566 234.5 630 c 128,-1,18
 266 694 266 694 310 694 c 0,19,20
 331 694 331 694 348 675.5 c 128,-1,21
 365 657 365 657 365 612 c 0,22,23
 365 553 365 553 333 490.5 c 128,-1,24
 301 428 301 428 258 428 c 0,25,26
 203 428 203 428 203 509 c 0,16,17
261 514 m 0,27,28
 261 506 261 506 263 492 c 1,29,30
 283 511 283 511 295 544.5 c 128,-1,31
 307 578 307 578 307 608 c 0,32,33
 307 616 307 616 305 630 c 1,34,35
 282 606 282 606 271.5 573 c 128,-1,36
 261 540 261 540 261 514 c 0,27,28
311 -3 m 0,37,38
 311 60 311 60 343 121.5 c 128,-1,39
 375 183 375 183 417 183 c 0,40,41
 446 183 446 183 459 159 c 128,-1,42
 472 135 472 135 472 102 c 0,43,44
 472 40 472 40 439.5 -21.5 c 128,-1,45
 407 -83 407 -83 365 -83 c 0,46,47
 337 -83 337 -83 324 -59.5 c 128,-1,48
 311 -36 311 -36 311 -3 c 0,37,38
368 3 m 0,49,50
 368 -8 368 -8 371 -18 c 1,51,52
 393 4 393 4 404 37.5 c 128,-1,53
 415 71 415 71 415 97 c 0,54,55
 415 111 415 111 413 118 c 1,56,57
 391 96 391 96 379.5 62.5 c 128,-1,58
 368 29 368 29 368 3 c 0,49,50
EndSplineSet
EndChar

StartChar: ampersand
Encoding: 38 38 9
Width: 525
GlyphClass: 2
Flags: W
ItalicCorrection: 173
LayerCount: 2
Fore
SplineSet
88 167 m 0,0,1
 88 210 88 210 109.5 264.5 c 128,-1,2
 131 319 131 319 160 355 c 1,3,4
 156 374 156 374 156 396 c 0,5,6
 156 476 156 476 208 549 c 128,-1,7
 260 622 260 622 324 622 c 0,8,9
 362 622 362 622 388 598 c 128,-1,10
 414 574 414 574 414 537 c 0,11,12
 414 505 414 505 398 490.5 c 128,-1,13
 382 476 382 476 363 476 c 0,14,15
 346 476 346 476 334 488 c 128,-1,16
 322 500 322 500 322 517 c 0,17,18
 322 536 322 536 339 553 c 1,19,-1
 339 554 l 1,20,21
 329 560 329 560 321 560 c 0,22,23
 295 560 295 560 264.5 515.5 c 128,-1,24
 234 471 234 471 227 416 c 1,25,26
 254 430 254 430 278 430 c 0,27,28
 303 430 303 430 317.5 414 c 128,-1,29
 332 398 332 398 332 370 c 0,30,31
 332 334 332 334 309.5 302 c 128,-1,32
 287 270 287 270 254 270 c 0,33,34
 226 270 226 270 197 291 c 1,35,36
 158 217 158 217 158 167 c 0,37,38
 158 116 158 116 194 83.5 c 128,-1,39
 230 51 230 51 288 51 c 0,40,41
 354 51 354 51 408 91.5 c 128,-1,42
 462 132 462 132 487 222 c 1,43,44
 475 220 475 220 469 220 c 0,45,46
 435 220 435 220 408 244 c 128,-1,47
 381 268 381 268 381 307 c 0,48,49
 381 326 381 326 387 343 c 128,-1,50
 393 360 393 360 406 374.5 c 128,-1,51
 419 389 419 389 428 397.5 c 128,-1,52
 437 406 437 406 455 419.5 c 128,-1,53
 473 433 473 433 477 436 c 0,54,55
 508 462 508 462 526 495.5 c 128,-1,56
 544 529 544 529 548 552.5 c 128,-1,57
 552 576 552 576 562.5 593 c 128,-1,58
 573 610 573 610 593 610 c 0,59,60
 606 610 606 610 616 600.5 c 128,-1,61
 626 591 626 591 626 577 c 0,62,63
 626 571 626 571 621 550 c 128,-1,64
 616 529 616 529 598.5 488.5 c 128,-1,65
 581 448 581 448 555 416 c 1,66,67
 577 383 577 383 577 336 c 0,68,69
 577 303 577 303 565.5 246 c 128,-1,70
 554 189 554 189 534 147 c 0,71,72
 512 100 512 100 479 66.5 c 128,-1,73
 446 33 446 33 410.5 17.5 c 128,-1,74
 375 2 375 2 345.5 -4.5 c 128,-1,75
 316 -11 316 -11 287 -11 c 0,76,77
 195 -11 195 -11 141.5 41.5 c 128,-1,78
 88 94 88 94 88 167 c 0,0,1
236 345 m 1,79,-1
 244 337 l 1,80,-1
 250 332 l 1,81,-1
 257 347 l 1,82,-1
 262 364 l 1,83,-1
 250 357 l 1,84,-1
 236 345 l 1,79,-1
451 308 m 0,85,86
 451 297 451 297 460 285 c 1,87,88
 469 289 469 289 477 289 c 128,-1,89
 485 289 485 289 501 280 c 1,90,91
 507 314 507 314 507 331 c 0,92,93
 507 347 507 347 500 367 c 1,94,95
 451 331 451 331 451 308 c 0,85,86
EndSplineSet
EndChar

StartChar: quotesingle
Encoding: 39 39 10
Width: 525
GlyphClass: 2
Flags: W
ItalicCorrection: 173
LayerCount: 2
Fore
SplineSet
321 356 m 0,0,1
 321 363 321 363 357 557 c 2,2,3
 357 557 357 557 358 562 c 0,4,5
 359 568 359 568 359.5 571.5 c 128,-1,6
 360 575 360 575 362 582 c 128,-1,7
 364 589 364 589 366.5 593.5 c 128,-1,8
 369 598 369 598 373 603.5 c 128,-1,9
 377 609 377 609 382 612.5 c 128,-1,10
 387 616 387 616 394 618.5 c 128,-1,11
 401 621 401 621 410 621 c 0,12,13
 427 621 427 621 439 610 c 128,-1,14
 451 599 451 599 451 581 c 0,15,16
 451 573 451 573 385 362 c 0,17,18
 385 361 385 361 383.5 356.5 c 128,-1,19
 382 352 382 352 381 349.5 c 128,-1,20
 380 347 380 347 377 342.5 c 128,-1,21
 374 338 374 338 371 335 c 128,-1,22
 368 332 368 332 362.5 330 c 128,-1,23
 357 328 357 328 351 328 c 0,24,25
 338 328 338 328 329.5 335.5 c 128,-1,26
 321 343 321 343 321 356 c 0,0,1
EndSplineSet
EndChar

StartChar: parenleft
Encoding: 40 40 11
Width: 525
GlyphClass: 2
Flags: W
ItalicCorrection: 173
LayerCount: 2
Fore
SplineSet
242 177 m 0,0,1
 242 318 242 318 316 460 c 128,-1,2
 390 602 390 602 519 685 c 0,3,4
 532 694 532 694 545 694 c 0,5,6
 559 694 559 694 567 686 c 128,-1,7
 575 678 575 678 575 667 c 0,8,9
 575 649 575 649 552 634 c 0,10,11
 438 556 438 556 374.5 424.5 c 128,-1,12
 311 293 311 293 311 171 c 0,13,14
 311 114 311 114 324 70.5 c 128,-1,15
 337 27 337 27 353 7 c 128,-1,16
 369 -13 369 -13 382 -29 c 128,-1,17
 395 -45 395 -45 395 -54 c 0,18,19
 395 -67 395 -67 386.5 -75 c 128,-1,20
 378 -83 378 -83 365 -83 c 0,21,22
 344 -83 344 -83 311 -41 c 0,23,24
 242 46 242 46 242 177 c 0,0,1
EndSplineSet
EndChar

StartChar: parenright
Encoding: 41 41 12
Width: 525
GlyphClass: 2
Flags: W
ItalicCorrection: 173
LayerCount: 2
Fore
SplineSet
102 -55 m 0,0,1
 102 -38 102 -38 128 -21 c 0,2,3
 241 58 241 58 303.5 189 c 128,-1,4
 366 320 366 320 366 441 c 0,5,6
 366 497 366 497 353 540 c 128,-1,7
 340 583 340 583 324 603 c 128,-1,8
 308 623 308 623 295 640 c 128,-1,9
 282 657 282 657 282 667 c 0,10,11
 282 678 282 678 290.5 686 c 128,-1,12
 299 694 299 694 312 694 c 0,13,14
 333 694 333 694 364 655 c 0,15,16
 435 568 435 568 435 432 c 128,-1,17
 435 296 435 296 364.5 158.5 c 128,-1,18
 294 21 294 21 175 -62 c 0,19,20
 172 -64 172 -64 165.5 -68.5 c 128,-1,21
 159 -73 159 -73 155 -75.5 c 128,-1,22
 151 -78 151 -78 144.5 -80.5 c 128,-1,23
 138 -83 138 -83 132 -83 c 0,24,25
 119 -83 119 -83 110.5 -74.5 c 128,-1,26
 102 -66 102 -66 102 -55 c 0,0,1
EndSplineSet
EndChar

StartChar: asterisk
Encoding: 42 42 13
Width: 525
GlyphClass: 2
Flags: W
ItalicCorrection: 173
LayerCount: 2
Fore
SplineSet
150 209 m 0,0,1
 150 232 150 232 188 253 c 0,2,3
 276 301 276 301 284 305 c 1,4,5
 204 365 204 365 199 373 c 0,6,7
 195 378 195 378 195 386 c 0,8,9
 195 402 195 402 208.5 415 c 128,-1,10
 222 428 222 428 237 428 c 0,11,12
 245 428 245 428 251 424 c 128,-1,13
 257 420 257 420 288 393 c 0,14,15
 308 376 308 376 322 364 c 1,16,17
 326 380 326 380 330 399.5 c 128,-1,18
 334 419 334 419 336.5 430.5 c 128,-1,19
 339 442 339 442 342 455.5 c 128,-1,20
 345 469 345 469 347.5 476.5 c 128,-1,21
 350 484 350 484 353.5 492.5 c 128,-1,22
 357 501 357 501 360.5 505 c 128,-1,23
 364 509 364 509 368.5 513 c 128,-1,24
 373 517 373 517 379 518.5 c 128,-1,25
 385 520 385 520 392 520 c 0,26,27
 406 520 406 520 412 512 c 128,-1,28
 418 504 418 504 418 498 c 0,29,30
 418 491 418 491 409 457.5 c 128,-1,31
 400 424 400 424 392 394 c 2,32,-1
 383 364 l 1,33,34
 398 373 398 373 414.5 383 c 128,-1,35
 431 393 431 393 440 398.5 c 128,-1,36
 449 404 449 404 458.5 410 c 128,-1,37
 468 416 468 416 473.5 418.5 c 128,-1,38
 479 421 479 421 484.5 423.5 c 128,-1,39
 490 426 490 426 493.5 427 c 128,-1,40
 497 428 497 428 500 428 c 0,41,42
 512 428 512 428 519 420.5 c 128,-1,43
 526 413 526 413 526 402 c 0,44,45
 525 385 525 385 511.5 374 c 128,-1,46
 498 363 498 363 443 333 c 0,47,48
 412 317 412 317 393 306 c 1,49,50
 473 246 473 246 478 238 c 0,51,52
 482 233 482 233 482 225 c 0,53,54
 482 210 482 210 469 197 c 128,-1,55
 456 184 456 184 440 184 c 0,56,57
 430 184 430 184 418.5 192.5 c 128,-1,58
 407 201 407 201 354 247 c 1,59,60
 350 225 350 225 329 134 c 0,61,62
 319 91 319 91 285 91 c 0,63,64
 259 91 259 91 259 116 c 0,65,66
 259 122 259 122 263 136 c 128,-1,67
 267 150 267 150 276 183 c 128,-1,68
 285 216 285 216 293 247 c 1,69,70
 195 187 195 187 185 185 c 0,71,72
 181 184 181 184 176 184 c 0,73,74
 166 184 166 184 158 191 c 128,-1,75
 150 198 150 198 150 209 c 0,0,1
EndSplineSet
EndChar

StartChar: plus
Encoding: 43 43 14
Width: 525
GlyphClass: 2
Flags: W
ItalicCorrection: 173
LayerCount: 2
Fore
SplineSet
150 305 m 0,0,1
 150 337 150 337 188 337 c 2,2,-1
 314 337 l 1,3,-1
 355 499 l 2,4,5
 363 530 363 530 387 530 c 0,6,7
 399 530 399 530 408 521.5 c 128,-1,8
 417 513 417 513 417 499 c 0,9,10
 417 494 417 494 399.5 423 c 128,-1,11
 382 352 382 352 378 337 c 1,12,-1
 484 337 l 2,13,14
 498 337 498 337 504 335 c 0,15,16
 527 328 527 328 527 306 c 0,17,18
 527 300 527 300 525 294 c 128,-1,19
 523 288 523 288 514 281.5 c 128,-1,20
 505 275 505 275 490 275 c 2,21,-1
 362 275 l 1,22,-1
 322 112 l 2,23,24
 314 81 314 81 290 81 c 0,25,26
 277 81 277 81 268 89.5 c 128,-1,27
 259 98 259 98 259 112 c 0,28,29
 259 131 259 131 299 275 c 1,30,-1
 190 275 l 2,31,32
 150 275 150 275 150 305 c 0,0,1
EndSplineSet
EndChar

StartChar: comma
Encoding: 44 44 15
Width: 525
GlyphClass: 2
Flags: W
ItalicCorrection: 173
LayerCount: 2
Fore
SplineSet
162 -107 m 0,0,1
 162 -94 162 -94 173 -86 c 128,-1,2
 184 -78 184 -78 199 -72.5 c 128,-1,3
 214 -67 214 -67 236 -48 c 128,-1,4
 258 -29 258 -29 275 0 c 1,5,6
 240 1 240 1 227 17.5 c 128,-1,7
 214 34 214 34 214 53 c 0,8,9
 214 81 214 81 235 103 c 128,-1,10
 256 125 256 125 286 125 c 0,11,12
 315 125 315 125 333.5 103.5 c 128,-1,13
 352 82 352 82 352 50 c 0,14,15
 352 3 352 3 314 -52.5 c 128,-1,16
 276 -108 276 -108 209 -134 c 0,17,18
 197 -138 197 -138 192 -138 c 0,19,20
 181 -138 181 -138 171.5 -128.5 c 128,-1,21
 162 -119 162 -119 162 -107 c 0,0,1
EndSplineSet
EndChar

StartChar: hyphen
Encoding: 45 45 16
Width: 525
GlyphClass: 2
Flags: W
ItalicCorrection: 173
LayerCount: 2
Fore
SplineSet
168 213 m 0,0,1
 168 246 168 246 204 246 c 2,2,-1
 427 246 l 2,3,4
 463 246 463 246 463 217 c 0,5,6
 463 211 463 211 461 205 c 128,-1,7
 459 199 459 199 450.5 192 c 128,-1,8
 442 185 442 185 427 185 c 2,9,-1
 203 185 l 2,10,11
 183 185 183 185 175.5 194.5 c 128,-1,12
 168 204 168 204 168 213 c 0,0,1
EndSplineSet
EndChar

StartChar: period
Encoding: 46 46 17
Width: 525
GlyphClass: 2
Flags: W
ItalicCorrection: 173
LayerCount: 2
Fore
SplineSet
214 55 m 0,0,1
 214 82 214 82 235 103.5 c 128,-1,2
 256 125 256 125 286 125 c 0,3,4
 309 125 309 125 325 110 c 128,-1,5
 341 95 341 95 341 71 c 0,6,7
 341 41 341 41 318.5 20.5 c 128,-1,8
 296 0 296 0 270 0 c 0,9,10
 246 0 246 0 230 16 c 128,-1,11
 214 32 214 32 214 55 c 0,0,1
EndSplineSet
EndChar

StartChar: slash
Encoding: 47 47 18
Width: 525
GlyphClass: 2
Flags: WO
ItalicCorrection: -216
LayerCount: 2
Fore
SplineSet
78 -52 m 4,0,1
 78 -43 78 -43 91 -22 c 6,2,-1
 536 670 l 6,3,4
 552 694 552 694 568 694 c 4,5,6
 580 694 580 694 589.5 685 c 132,-1,7
 599 676 599 676 599 663 c 4,8,9
 599 651 599 651 588 636 c 6,10,-1
 142 -56 l 6,11,12
 141 -57 141 -57 138.5 -61 c 132,-1,13
 136 -65 136 -65 134.5 -67 c 132,-1,14
 133 -69 133 -69 130 -72.5 c 132,-1,15
 127 -76 127 -76 124 -78 c 132,-1,16
 121 -80 121 -80 117 -81.5 c 132,-1,17
 113 -83 113 -83 108 -83 c 4,18,19
 96 -83 96 -83 87 -74 c 132,-1,20
 78 -65 78 -65 78 -52 c 4,0,1
EndSplineSet
EndChar

StartChar: zero
Encoding: 48 48 19
Width: 525
GlyphClass: 2
Flags: W
ItalicCorrection: 173
LayerCount: 2
Fore
SplineSet
139 179 m 0,0,1
 139 284 139 284 182.5 388.5 c 128,-1,2
 226 493 226 493 291 557.5 c 128,-1,3
 356 622 356 622 417 622 c 0,4,5
 473 622 473 622 505 568.5 c 128,-1,6
 537 515 537 515 537 431 c 0,7,8
 537 331 537 331 495.5 227 c 128,-1,9
 454 123 454 123 389 56 c 128,-1,10
 324 -11 324 -11 259 -11 c 0,11,12
 202 -11 202 -11 170.5 43.5 c 128,-1,13
 139 98 139 98 139 179 c 0,0,1
229.353053937 79.7843407104 m 1,14,15
 233.9228071 71.7942355035 233.9228071 71.7942355035 240 65.5 c 0,16,17
 254 51 254 51 274 51 c 0,18,19
 319 51 319 51 365.5 117 c 128,-1,20
 412 183 412 183 440.5 272 c 128,-1,21
 469 361 469 361 469 432 c 0,22,23
 469 441.516568067 469 441.516568067 468.526129224 450.433828976 c 1,24,-1
 229.353053937 79.7843407104 l 1,14,15
210.458399522 163.765067741 m 1,25,-1
 447.638753607 532.592643999 l 1,26,27
 430.995682381 560 430.995682381 560 402 560 c 0,28,29
 358 560 358 560 312.5 501 c 128,-1,30
 267 442 267 442 238.5 353 c 128,-1,31
 210 264 210 264 210 181 c 0,32,33
 210 172.382533871 210 172.382533871 210.458399522 163.765067741 c 1,25,-1
EndSplineSet
Substitution2: "'onum' Oldstyle Figures lookup 15 subtable" zerooldstyle
EndChar

StartChar: one
Encoding: 49 49 20
Width: 525
GlyphClass: 2
Flags: W
ItalicCorrection: 173
LayerCount: 2
Fore
SplineSet
137 29 m 0,0,1
 137 62 137 62 172 62 c 2,2,-1
 254 62 l 1,3,-1
 354 464 l 1,4,5
 308 435 308 435 274 435 c 0,6,7
 241 435 241 435 241 465 c 0,8,9
 241 490 241 490 262 496 c 0,10,11
 264 497 264 497 275 498 c 128,-1,12
 286 499 286 499 297 503 c 128,-1,13
 308 507 308 507 323.5 516.5 c 128,-1,14
 339 526 339 526 358.5 547 c 128,-1,15
 378 568 378 568 397 599 c 0,16,17
 410 619 410 619 427 619 c 0,18,19
 439 619 439 619 448 611 c 128,-1,20
 457 603 457 603 457 591 c 0,21,22
 457 590 457 590 454 575 c 2,23,-1
 339 113 l 2,24,25
 331 79 331 79 326 62 c 1,26,-1
 394 62 l 2,27,28
 427 61 427 61 427 33 c 0,29,30
 427 0 427 0 391 0 c 2,31,-1
 172 0 l 2,32,33
 137 0 137 0 137 29 c 0,0,1
EndSplineSet
Substitution2: "'onum' Oldstyle Figures lookup 15 subtable" oneoldstyle
EndChar

StartChar: two
Encoding: 50 50 21
Width: 525
GlyphClass: 2
Flags: W
ItalicCorrection: 173
LayerCount: 2
Fore
SplineSet
55 18 m 4,0,1
 55 36 55 36 70.5 72.5 c 132,-1,2
 86 109 86 109 129.5 161 c 132,-1,3
 173 213 173 213 232 246 c 4,4,5
 242 252 242 252 271.5 267 c 132,-1,6
 301 282 301 282 319 291.5 c 132,-1,7
 337 301 337 301 363 320 c 132,-1,8
 389 339 389 339 404 357 c 132,-1,9
 419 375 419 375 430.5 402 c 132,-1,10
 442 429 442 429 442 459 c 4,11,12
 442 505 442 505 417.5 532.5 c 132,-1,13
 393 560 393 560 354 560 c 4,14,15
 309 560 309 560 265 523.5 c 132,-1,16
 221 487 221 487 205 435 c 4,17,18
 204 433 204 433 202 427 c 132,-1,19
 200 421 200 421 199 419 c 132,-1,20
 198 417 198 417 195.5 412.5 c 132,-1,21
 193 408 193 408 189.5 406.5 c 132,-1,22
 186 405 186 405 180 403.5 c 132,-1,23
 174 402 174 402 167 402 c 4,24,25
 149 402 149 402 141 410.5 c 132,-1,26
 133 419 133 419 133 430 c 4,27,28
 133 450 133 450 149 480.5 c 132,-1,29
 165 511 165 511 191.5 543 c 132,-1,30
 218 575 218 575 261.5 598 c 132,-1,31
 305 621 305 621 352 622 c 6,32,-1
 354 622 l 6,33,34
 424 622 424 622 467.5 575.5 c 132,-1,35
 511 529 511 529 511 457 c 4,36,37
 511 410 511 410 495 371.5 c 132,-1,38
 479 333 479 333 445.5 302 c 132,-1,39
 412 271 412 271 377.5 248.5 c 132,-1,40
 343 226 343 226 290 199 c 4,41,42
 249 178 249 178 223 157.5 c 132,-1,43
 197 137 197 137 169 103 c 5,44,45
 204 99 204 99 256 78 c 132,-1,46
 308 57 308 57 334 57 c 4,47,48
 363 57 363 57 390 85 c 132,-1,49
 417 113 417 113 432 161 c 4,50,51
 438 184 438 184 453 189 c 4,52,53
 459 192 459 192 467 192 c 6,54,-1
 468 192 l 6,55,56
 503 192 503 192 503 163 c 4,57,58
 503 151 503 151 492.5 124.5 c 132,-1,59
 482 98 482 98 462.5 66.5 c 132,-1,60
 443 35 443 35 408.5 12 c 132,-1,61
 374 -11 374 -11 333 -11 c 4,62,63
 294 -11 294 -11 235 15.5 c 132,-1,64
 176 42 176 42 159 42 c 4,65,66
 154 42 154 42 151 41 c 4,67,68
 136 38 136 38 125.5 14 c 132,-1,69
 115 -10 115 -10 91 -11 c 4,70,71
 55 -11 55 -11 55 18 c 4,0,1
EndSplineSet
Substitution2: "'onum' Oldstyle Figures lookup 15 subtable" twooldstyle
EndChar

StartChar: three
Encoding: 51 51 22
Width: 525
GlyphClass: 2
Flags: W
ItalicCorrection: 173
LayerCount: 2
Fore
SplineSet
110 114 m 0,0,1
 110 151 110 151 125 169.5 c 128,-1,2
 140 188 140 188 161 188 c 0,3,4
 178 188 178 188 190.5 176.5 c 128,-1,5
 203 165 203 165 203 148 c 0,6,7
 203 125 203 125 180 107 c 1,8,9
 186 51 186 51 245 51 c 0,10,11
 300 51 300 51 354 90 c 128,-1,12
 408 129 408 129 408 202 c 0,13,14
 408 287 408 287 332 287 c 2,15,-1
 301 287 l 2,16,17
 264 287 264 287 264 317 c 0,18,19
 264 330 264 330 272 339 c 128,-1,20
 280 348 280 348 296 348 c 2,21,-1
 330 348 l 2,22,23
 400 348 400 348 440.5 395 c 128,-1,24
 481 442 481 442 481 488 c 0,25,26
 481 519 481 519 462 539.5 c 128,-1,27
 443 560 443 560 408 560 c 0,28,29
 370 560 370 560 334 538.5 c 128,-1,30
 298 517 298 517 283 483 c 0,31,32
 282 481 282 481 279.5 474 c 128,-1,33
 277 467 277 467 276 465.5 c 128,-1,34
 275 464 275 464 272 459.5 c 128,-1,35
 269 455 269 455 266 454 c 128,-1,36
 263 453 263 453 257.5 451.5 c 128,-1,37
 252 450 252 450 244 450 c 0,38,39
 211 450 211 450 211 479 c 0,40,41
 211 524 211 524 269.5 573 c 128,-1,42
 328 622 328 622 409 622 c 0,43,44
 470 622 470 622 510.5 584.5 c 128,-1,45
 551 547 551 547 551 487 c 0,46,47
 551 435 551 435 518.5 386.5 c 128,-1,48
 486 338 486 338 435 311 c 1,49,50
 477 267 477 267 477 200 c 0,51,52
 477 150 477 150 454.5 108 c 128,-1,53
 432 66 432 66 397 41 c 128,-1,54
 362 16 362 16 322 2.5 c 128,-1,55
 282 -11 282 -11 244 -11 c 0,56,57
 184 -11 184 -11 147 24 c 128,-1,58
 110 59 110 59 110 114 c 0,0,1
EndSplineSet
Substitution2: "'onum' Oldstyle Figures lookup 15 subtable" threeoldstyle
EndChar

StartChar: four
Encoding: 52 52 23
Width: 525
GlyphClass: 2
Flags: W
ItalicCorrection: 173
LayerCount: 2
Fore
SplineSet
62 32 m 0,0,1
 62 38 62 38 64.5 44 c 128,-1,2
 67 50 67 50 72 55 c 128,-1,3
 77 60 77 60 80.5 62.5 c 128,-1,4
 84 65 84 65 90 69 c 2,5,-1
 96 73 l 1,6,7
 162 126 162 126 216 196 c 128,-1,8
 270 266 270 266 302.5 333.5 c 128,-1,9
 335 401 335 401 355.5 455 c 128,-1,10
 376 509 376 509 388 553 c 128,-1,11
 400 597 400 597 400 598 c 0,12,13
 410 622 410 622 434 622 c 0,14,15
 447 622 447 622 457.5 612.5 c 128,-1,16
 468 603 468 603 468 589 c 0,17,18
 468 585 468 585 461.5 557 c 128,-1,19
 455 529 455 529 436.5 476 c 128,-1,20
 418 423 418 423 392 364.5 c 128,-1,21
 366 306 366 306 321 235.5 c 128,-1,22
 276 165 276 165 222 107 c 2,23,-1
 195 80 l 1,24,25
 212 79 212 79 229 75.5 c 128,-1,26
 246 72 246 72 256 68.5 c 128,-1,27
 266 65 266 65 284.5 58 c 128,-1,28
 303 51 303 51 311 48 c 1,29,30
 311 50 311 50 329 121 c 128,-1,31
 347 192 347 192 350 199 c 0,32,33
 360 219 360 219 382 219 c 0,34,35
 396 219 396 219 406 210 c 128,-1,36
 416 201 416 201 416 186 c 0,37,38
 416 180 416 180 410.5 158.5 c 128,-1,39
 405 137 405 137 395.5 98.5 c 128,-1,40
 386 60 386 60 379 31 c 1,41,-1
 380 31 l 2,42,43
 399 31 399 31 418 39 c 128,-1,44
 437 47 437 47 443 47 c 0,45,46
 456 47 456 47 465 37 c 128,-1,47
 474 27 474 27 474 16 c 0,48,49
 474 -6 474 -6 442 -18 c 128,-1,50
 410 -30 410 -30 380 -30 c 2,51,-1
 363 -30 l 1,52,-1
 321 -198 l 2,53,54
 311 -222 311 -222 288 -222 c 0,55,56
 273 -222 273 -222 263.5 -213 c 128,-1,57
 254 -204 254 -204 254 -189 c 0,58,59
 254 -179 254 -179 296 -12 c 1,60,61
 288 -9 288 -9 266.5 -1 c 128,-1,62
 245 7 245 7 237 9.5 c 128,-1,63
 229 12 229 12 212.5 15 c 128,-1,64
 196 18 196 18 180 18 c 0,65,66
 150 18 150 18 133.5 15 c 128,-1,67
 117 12 117 12 113.5 9 c 128,-1,68
 110 6 110 6 105 3 c 128,-1,69
 100 0 100 0 92 0 c 0,70,71
 80 0 80 0 71 11 c 128,-1,72
 62 22 62 22 62 32 c 0,0,1
EndSplineSet
Substitution2: "'onum' Oldstyle Figures lookup 15 subtable" fouroldstyle
EndChar

StartChar: five
Encoding: 53 53 24
Width: 525
GlyphClass: 2
Flags: W
ItalicCorrection: 173
LayerCount: 2
Fore
SplineSet
118 115 m 0,0,1
 118 156 118 156 134 172.5 c 128,-1,2
 150 189 150 189 171 189 c 0,3,4
 189 189 189 189 200 177 c 128,-1,5
 211 165 211 165 211 149 c 0,6,7
 211 124 211 124 188 108 c 1,8,9
 199 51 199 51 253 51 c 0,10,11
 314 51 314 51 368.5 109.5 c 128,-1,12
 423 168 423 168 423 243 c 0,13,14
 423 275 423 275 408 301 c 128,-1,15
 393 327 393 327 359 327 c 0,16,17
 333 327 333 327 310 318.5 c 128,-1,18
 287 310 287 310 274.5 301 c 128,-1,19
 262 292 262 292 249.5 280.5 c 128,-1,20
 237 269 237 269 236 268 c 0,21,22
 228 262 228 262 214 262 c 0,23,24
 183 262 183 262 183 292 c 0,25,26
 183 295 183 295 185 305 c 2,27,-1
 253 578 l 2,28,29
 257 596 257 596 264 603.5 c 128,-1,30
 271 611 271 611 290 611 c 2,31,-1
 519 611 l 2,32,33
 554 611 554 611 554 582 c 0,34,35
 553 549 553 549 518 549 c 2,36,-1
 317 549 l 1,37,-1
 273 369 l 1,38,39
 317 389 317 389 362 389 c 0,40,41
 423 389 423 389 457.5 346 c 128,-1,42
 492 303 492 303 492 239 c 0,43,44
 492 137 492 137 417 63 c 128,-1,45
 342 -11 342 -11 252 -11 c 0,46,47
 195 -11 195 -11 156.5 24 c 128,-1,48
 118 59 118 59 118 115 c 0,0,1
EndSplineSet
Substitution2: "'onum' Oldstyle Figures lookup 15 subtable" fiveoldstyle
EndChar

StartChar: six
Encoding: 54 54 25
Width: 525
GlyphClass: 2
Flags: W
ItalicCorrection: 173
LayerCount: 2
Fore
SplineSet
135 162 m 0,0,1
 135 215 135 215 156 305 c 0,2,3
 188 441 188 441 277 531.5 c 128,-1,4
 366 622 366 622 459 622 c 0,5,6
 504 622 504 622 530 599 c 128,-1,7
 556 576 556 576 556 538 c 0,8,9
 556 503 556 503 540.5 487.5 c 128,-1,10
 525 472 525 472 505 472 c 0,11,12
 488 472 488 472 476 483 c 128,-1,13
 464 494 464 494 464 512 c 0,14,15
 464 534 464 534 483 551 c 1,16,-1
 483 552 l 1,17,18
 472 560 472 560 457 560 c 0,19,20
 409 560 409 560 346 507 c 128,-1,21
 283 454 283 454 244 355 c 1,22,23
 302 395 302 395 363 395 c 0,24,25
 394 395 394 395 419 384 c 128,-1,26
 444 373 444 373 458.5 356.5 c 128,-1,27
 473 340 473 340 483 319 c 128,-1,28
 493 298 493 298 496.5 280 c 128,-1,29
 500 262 500 262 500 246 c 0,30,31
 500 174 500 174 461 110 c 0,32,33
 434 66 434 66 383 27.5 c 128,-1,34
 332 -11 332 -11 268 -11 c 0,35,36
 245 -11 245 -11 224 -3.5 c 128,-1,37
 203 4 203 4 182 21.5 c 128,-1,38
 161 39 161 39 148 75.5 c 128,-1,39
 135 112 135 112 135 162 c 0,0,1
204 155 m 2,40,41
 204 131 204 131 208 110.5 c 128,-1,42
 212 90 212 90 228 70.5 c 128,-1,43
 244 51 244 51 270 51 c 0,44,45
 330 51 330 51 380 113 c 128,-1,46
 430 175 430 175 430 246 c 0,47,48
 430 276 430 276 413 305 c 128,-1,49
 396 334 396 334 358 334 c 0,50,51
 308 334 308 334 264 296.5 c 128,-1,52
 220 259 220 259 211 208 c 2,53,-1
 204 166 l 1,54,-1
 204 155 l 2,40,41
EndSplineSet
Substitution2: "'onum' Oldstyle Figures lookup 15 subtable" sixoldstyle
EndChar

StartChar: seven
Encoding: 55 55 26
Width: 525
GlyphClass: 2
Flags: W
ItalicCorrection: 173
LayerCount: 2
Fore
SplineSet
139 430 m 0,0,1
 139 438 139 438 173 509 c 0,2,3
 197 558 197 558 214 594 c 0,4,5
 222 611 222 611 229 616.5 c 128,-1,6
 236 622 236 622 254 622 c 0,7,8
 281 622 281 622 287 597 c 1,9,10
 344 622 344 622 379 622 c 0,11,12
 404 622 404 622 420.5 611 c 128,-1,13
 437 600 437 600 442.5 587 c 128,-1,14
 448 574 448 574 455.5 563 c 128,-1,15
 463 552 463 552 473 552 c 0,16,17
 486 552 486 552 500.5 558 c 128,-1,18
 515 564 515 564 527 573.5 c 128,-1,19
 539 583 539 583 548.5 592 c 128,-1,20
 558 601 558 601 564.5 609 c 128,-1,21
 571 617 571 617 572 617 c 0,22,23
 580 622 580 622 593 622 c 2,24,-1
 594 622 l 2,25,26
 628 622 628 622 628 593 c 0,27,28
 628 587 628 587 625.5 581.5 c 128,-1,29
 623 576 623 576 617 568.5 c 128,-1,30
 611 561 611 561 611 560 c 0,31,32
 425 299 425 299 354 28 c 0,33,34
 343 -11 343 -11 315 -11 c 0,35,36
 301 -11 301 -11 291.5 -2 c 128,-1,37
 282 7 282 7 282 22 c 0,38,39
 282 32 282 32 295 80 c 128,-1,40
 308 128 308 128 348 227.5 c 128,-1,41
 388 327 388 327 444 425 c 2,42,-1
 484 491 l 1,43,44
 479 490 479 490 467 490 c 0,45,46
 446 490 446 490 430.5 500 c 128,-1,47
 415 510 415 510 408.5 521.5 c 128,-1,48
 402 533 402 533 394 543 c 128,-1,49
 386 553 386 553 377 553 c 0,50,51
 343 553 343 553 295 523.5 c 128,-1,52
 247 494 247 494 212 430 c 2,53,-1
 210 426 l 2,54,55
 207 421 207 421 206 419.5 c 128,-1,56
 205 418 205 418 202.5 414.5 c 128,-1,57
 200 411 200 411 198 409.5 c 128,-1,58
 196 408 196 408 192.5 406 c 128,-1,59
 189 404 189 404 184.5 403 c 128,-1,60
 180 402 180 402 175 402 c 0,61,62
 139 402 139 402 139 430 c 0,0,1
EndSplineSet
Substitution2: "'onum' Oldstyle Figures lookup 15 subtable" sevenoldstyle
EndChar

StartChar: eight
Encoding: 56 56 27
Width: 525
GlyphClass: 2
Flags: W
ItalicCorrection: 173
LayerCount: 2
Fore
SplineSet
116 130 m 0,0,1
 116 193 116 193 158 246.5 c 128,-1,2
 200 300 200 300 280 330 c 1,3,4
 243 343 243 343 222.5 371 c 128,-1,5
 202 399 202 399 202 432 c 0,6,7
 202 500 202 500 268 561 c 128,-1,8
 334 622 334 622 417 622 c 0,9,10
 476 622 476 622 514.5 587.5 c 128,-1,11
 553 553 553 553 553 497 c 0,12,13
 553 444 553 444 516.5 399.5 c 128,-1,14
 480 355 480 355 409 330 c 1,15,16
 455 312 455 312 474.5 279 c 128,-1,17
 494 246 494 246 494 211 c 0,18,19
 494 133 494 133 422.5 61 c 128,-1,20
 351 -11 351 -11 259 -11 c 0,21,22
 196 -11 196 -11 156 28.5 c 128,-1,23
 116 68 116 68 116 130 c 0,0,1
188 142 m 0,24,25
 188 102 188 102 212 76.5 c 128,-1,26
 236 51 236 51 276 51 c 0,27,28
 330 51 330 51 377 98.5 c 128,-1,29
 424 146 424 146 424 207 c 0,30,31
 424 247 424 247 400 273 c 128,-1,32
 376 299 376 299 336 299 c 0,33,34
 282 299 282 299 235 251 c 128,-1,35
 188 203 188 203 188 142 c 0,24,25
273 437 m 0,36,37
 273 403 273 403 295 382 c 128,-1,38
 317 361 317 361 352 361 c 0,39,40
 402 361 402 361 441.5 399.5 c 128,-1,41
 481 438 481 438 481 484 c 0,42,43
 481 518 481 518 458.5 539 c 128,-1,44
 436 560 436 560 401 560 c 0,45,46
 351 560 351 560 312 521.5 c 128,-1,47
 273 483 273 483 273 437 c 0,36,37
EndSplineSet
Substitution2: "'onum' Oldstyle Figures lookup 15 subtable" eightoldstyle
EndChar

StartChar: nine
Encoding: 57 57 28
Width: 525
GlyphClass: 2
Flags: W
ItalicCorrection: 173
LayerCount: 2
Fore
SplineSet
121 75 m 0,0,1
 121 109 121 109 137 124 c 128,-1,2
 153 139 153 139 172 139 c 0,3,4
 188 139 188 139 200.5 128 c 128,-1,5
 213 117 213 117 213 99 c 0,6,7
 213 78 213 78 195 61 c 1,8,9
 209 51 209 51 230 51 c 0,10,11
 284 51 284 51 342.5 110 c 128,-1,12
 401 169 401 169 434 256 c 1,13,14
 372 215 372 215 314 215 c 0,15,16
 246 215 246 215 211.5 262.5 c 128,-1,17
 177 310 177 310 177 364 c 0,18,19
 177 465 177 465 250 543.5 c 128,-1,20
 323 622 323 622 414 622 c 0,21,22
 464 622 464 622 503.5 583.5 c 128,-1,23
 543 545 543 545 543 451 c 0,24,25
 543 369 543 369 508 258 c 0,26,27
 470 144 470 144 391 66.5 c 128,-1,28
 312 -11 312 -11 229 -11 c 0,29,30
 182 -11 182 -11 151.5 11 c 128,-1,31
 121 33 121 33 121 75 c 0,0,1
247 365 m 0,32,33
 247 335 247 335 264 306 c 128,-1,34
 281 277 281 277 319 277 c 0,35,36
 371 277 371 277 414 315.5 c 128,-1,37
 457 354 457 354 466 404 c 0,38,39
 474 446 474 446 474 455 c 0,40,41
 474 560 474 560 411 560 c 0,42,43
 367 560 367 560 324 523 c 0,44,45
 247 457 247 457 247 365 c 0,32,33
EndSplineSet
Substitution2: "'onum' Oldstyle Figures lookup 15 subtable" nineoldstyle
EndChar

StartChar: colon
Encoding: 58 58 29
Width: 525
GlyphClass: 2
Flags: W
ItalicCorrection: 173
LayerCount: 2
Fore
SplineSet
214 55 m 0,0,1
 214 82 214 82 235 103.5 c 128,-1,2
 256 125 256 125 286 125 c 0,3,4
 309 125 309 125 325 110 c 128,-1,5
 341 95 341 95 341 71 c 0,6,7
 341 41 341 41 318.5 20.5 c 128,-1,8
 296 0 296 0 270 0 c 0,9,10
 246 0 246 0 230 16 c 128,-1,11
 214 32 214 32 214 55 c 0,0,1
291 359 m 0,12,13
 291 389 291 389 313.5 409.5 c 128,-1,14
 336 430 336 430 362 430 c 0,15,16
 385 430 385 430 401.5 415 c 128,-1,17
 418 400 418 400 418 376 c 0,18,19
 418 346 418 346 395 325.5 c 128,-1,20
 372 305 372 305 346 305 c 0,21,22
 322 305 322 305 306.5 320.5 c 128,-1,23
 291 336 291 336 291 359 c 0,12,13
EndSplineSet
EndChar

StartChar: semicolon
Encoding: 59 59 30
Width: 525
GlyphClass: 2
Flags: W
ItalicCorrection: 173
LayerCount: 2
Fore
SplineSet
162 -107 m 0,0,1
 162 -94 162 -94 173 -86 c 128,-1,2
 184 -78 184 -78 199 -72.5 c 128,-1,3
 214 -67 214 -67 236 -48 c 128,-1,4
 258 -29 258 -29 275 0 c 1,5,6
 240 1 240 1 227 17.5 c 128,-1,7
 214 34 214 34 214 53 c 0,8,9
 214 81 214 81 235 103 c 128,-1,10
 256 125 256 125 286 125 c 0,11,12
 315 125 315 125 333.5 103.5 c 128,-1,13
 352 82 352 82 352 50 c 0,14,15
 352 3 352 3 314 -52.5 c 128,-1,16
 276 -108 276 -108 209 -134 c 0,17,18
 197 -138 197 -138 192 -138 c 0,19,20
 181 -138 181 -138 171.5 -128.5 c 128,-1,21
 162 -119 162 -119 162 -107 c 0,0,1
290 360 m 0,22,23
 290 390 290 390 312.5 410 c 128,-1,24
 335 430 335 430 362 430 c 0,25,26
 385 430 385 430 401 415 c 128,-1,27
 417 400 417 400 417 376 c 0,28,29
 417 346 417 346 394.5 325.5 c 128,-1,30
 372 305 372 305 346 305 c 0,31,32
 322 305 322 305 306 321 c 128,-1,33
 290 337 290 337 290 360 c 0,22,23
EndSplineSet
EndChar

StartChar: less
Encoding: 60 60 31
Width: 525
GlyphClass: 2
Flags: W
ItalicCorrection: 173
LayerCount: 2
Fore
SplineSet
165 305 m 0,0,1
 165 310 165 310 166.5 314.5 c 128,-1,2
 168 319 168 319 170 321.5 c 128,-1,3
 172 324 172 324 175.5 327.5 c 128,-1,4
 179 331 179 331 181 332 c 128,-1,5
 183 333 183 333 186 336 c 2,6,-1
 190 338 l 1,7,-1
 513 543 l 2,8,9
 525 551 525 551 535 551 c 0,10,11
 547 551 547 551 556.5 542.5 c 128,-1,12
 566 534 566 534 566 521 c 0,13,14
 566 505 566 505 544 490 c 2,15,-1
 246 301 l 1,16,-1
 436 124 l 2,17,18
 437 123 437 123 440.5 120 c 128,-1,19
 444 117 444 117 446.5 114.5 c 128,-1,20
 449 112 449 112 452 108 c 128,-1,21
 455 104 455 104 456.5 99.5 c 128,-1,22
 458 95 458 95 458 90 c 0,23,24
 458 78 458 78 448.5 69 c 128,-1,25
 439 60 439 60 427 60 c 128,-1,26
 415 60 415 60 393 80 c 2,27,-1
 184 275 l 2,28,29
 165 294 165 294 165 305 c 0,0,1
EndSplineSet
EndChar

StartChar: equal
Encoding: 61 61 32
Width: 525
GlyphClass: 2
Flags: W
ItalicCorrection: 173
LayerCount: 2
Fore
SplineSet
130 230 m 0,0,1
 130 242 130 242 138 250 c 128,-1,2
 146 258 146 258 156 260 c 0,3,4
 162 261 162 261 174 261 c 2,5,-1
 470 261 l 2,6,7
 485 261 485 261 494 254.5 c 128,-1,8
 503 248 503 248 505 242.5 c 128,-1,9
 507 237 507 237 507 231 c 0,10,11
 507 199 507 199 468 199 c 2,12,-1
 166 199 l 2,13,14
 145 200 145 200 137.5 210 c 128,-1,15
 130 220 130 220 130 230 c 0,0,1
168 381 m 0,16,17
 168 412 168 412 209 412 c 2,18,-1
 504 412 l 2,19,20
 545 412 545 412 545 381 c 0,21,22
 545 375 545 375 543 369 c 128,-1,23
 541 363 541 363 532 356.5 c 128,-1,24
 523 350 523 350 508 350 c 2,25,-1
 203 350 l 2,26,27
 189 350 189 350 180.5 356.5 c 128,-1,28
 172 363 172 363 170 369 c 128,-1,29
 168 375 168 375 168 381 c 0,16,17
EndSplineSet
EndChar

StartChar: greater
Encoding: 62 62 33
Width: 525
GlyphClass: 2
Flags: W
ItalicCorrection: 173
LayerCount: 2
Fore
SplineSet
112 90 m 0,0,1
 112 106 112 106 133 121 c 2,2,-1
 409 296 l 2,3,4
 423 306 423 306 431 310 c 1,5,-1
 241 487 l 2,6,7
 219 507 219 507 219 521 c 0,8,9
 219 533 219 533 227.5 542 c 128,-1,10
 236 551 236 551 249 551 c 128,-1,11
 262 551 262 551 284 531 c 2,12,-1
 493 337 l 2,13,14
 511 320 511 320 511 306 c 0,15,16
 511 289 511 289 487 273 c 2,17,-1
 164 68 l 2,18,19
 152 60 152 60 142 60 c 0,20,21
 130 60 130 60 121 68.5 c 128,-1,22
 112 77 112 77 112 90 c 0,0,1
EndSplineSet
EndChar

StartChar: question
Encoding: 63 63 34
Width: 525
GlyphClass: 2
Flags: W
ItalicCorrection: 173
LayerCount: 2
Fore
SplineSet
209 470 m 0,0,1
 209 516 209 516 267 569 c 128,-1,2
 325 622 325 622 409 622 c 0,3,4
 464 622 464 622 498 589 c 128,-1,5
 532 556 532 556 532 506 c 0,6,7
 532 432 532 432 467 379 c 0,8,9
 454 368 454 368 405.5 337.5 c 128,-1,10
 357 307 357 307 334 291 c 1,11,12
 319 269 319 269 319 252 c 0,13,14
 319 251 319 251 319.5 249 c 128,-1,15
 320 247 320 247 320 245 c 1,16,17
 342 248 342 248 354 258 c 128,-1,18
 366 268 366 268 368.5 278 c 128,-1,19
 371 288 371 288 379.5 296.5 c 128,-1,20
 388 305 388 305 404 305 c 0,21,22
 439 305 439 305 439 277 c 0,23,24
 439 247 439 247 402.5 215 c 128,-1,25
 366 183 366 183 317 183 c 0,26,27
 289 183 289 183 272 203 c 128,-1,28
 255 223 255 223 255 254 c 0,29,30
 255 305 255 305 290 340 c 0,31,32
 293 343 293 343 412 422 c 0,33,34
 468 459 468 459 468 508 c 0,35,36
 468 532 468 532 451.5 546 c 128,-1,37
 435 560 435 560 408 560 c 0,38,39
 369 560 369 560 332.5 536.5 c 128,-1,40
 296 513 296 513 296 500 c 0,41,42
 296 497 296 497 297.5 490.5 c 128,-1,43
 299 484 299 484 299 479 c 0,44,45
 299 460 299 460 285 445.5 c 128,-1,46
 271 431 271 431 250 431 c 0,47,48
 234 431 234 431 221.5 441.5 c 128,-1,49
 209 452 209 452 209 470 c 0,0,1
224 45 m 0,50,51
 224 67 224 67 241 83.5 c 128,-1,52
 258 100 258 100 279 100 c 0,53,54
 298 100 298 100 311.5 87.5 c 128,-1,55
 325 75 325 75 325 55 c 0,56,57
 325 33 325 33 307.5 16.5 c 128,-1,58
 290 0 290 0 269 0 c 0,59,60
 250 0 250 0 237 13 c 128,-1,61
 224 26 224 26 224 45 c 0,50,51
EndSplineSet
EndChar

StartChar: at
Encoding: 64 64 35
Width: 525
GlyphClass: 2
Flags: W
ItalicCorrection: 173
LayerCount: 2
Fore
SplineSet
141 207 m 0,0,1
 141 304 141 304 185 399.5 c 128,-1,2
 229 495 229 495 300 555.5 c 128,-1,3
 371 616 371 616 444 616 c 0,4,5
 486 616 486 616 518 585.5 c 128,-1,6
 550 555 550 555 550 475 c 0,7,8
 550 393 550 393 512 266 c 0,9,10
 489 199 489 199 445 153 c 128,-1,11
 401 107 401 107 355 107 c 0,12,13
 314 107 314 107 288.5 143 c 128,-1,14
 263 179 263 179 263 237 c 0,15,16
 263 329 263 329 318 416.5 c 128,-1,17
 373 504 373 504 440 504 c 0,18,19
 469 504 469 504 493 484 c 1,20,21
 492 498 492 498 490.5 506 c 128,-1,22
 489 514 489 514 484.5 527.5 c 128,-1,23
 480 541 480 541 469 547.5 c 128,-1,24
 458 554 458 554 442 554 c 0,25,26
 359 554 359 554 278.5 444.5 c 128,-1,27
 198 335 198 335 198 210 c 0,28,29
 198 142 198 142 227.5 99 c 128,-1,30
 257 56 257 56 305 56 c 0,31,32
 331 56 331 56 353 67 c 128,-1,33
 375 78 375 78 390 92 c 128,-1,34
 405 106 405 106 409 107 c 0,35,36
 418 110 418 110 428 110 c 0,37,38
 448 110 448 110 457 101 c 128,-1,39
 466 92 466 92 466 81 c 0,40,41
 466 58 466 58 413.5 26.5 c 128,-1,42
 361 -5 361 -5 305 -5 c 0,43,44
 232 -5 232 -5 186.5 54.5 c 128,-1,45
 141 114 141 114 141 207 c 0,0,1
321 241 m 0,46,47
 321 169 321 169 358 169 c 0,48,49
 394 169 394 169 434 234.5 c 128,-1,50
 474 300 474 300 474 370 c 0,51,52
 474 441 474 441 437 441 c 0,53,54
 401 441 401 441 361 375.5 c 128,-1,55
 321 310 321 310 321 241 c 0,46,47
EndSplineSet
EndChar

StartChar: A
Encoding: 65 65 36
Width: 525
GlyphClass: 2
Flags: W
ItalicCorrection: 173
AnchorPoint: "Anchor-5" 418 622 basechar 0
AnchorPoint: "Anchor-4" 261 0 basechar 0
AnchorPoint: "Anchor-1" 217 0 basechar 0
LayerCount: 2
Fore
SplineSet
71 29 m 0,0,1
 71 62 71 62 109 62 c 2,2,-1
 129 62 l 1,3,4
 133 72 133 72 152 115 c 2,5,-1
 354 577 l 2,6,7
 361 593 361 593 364 599.5 c 128,-1,8
 367 606 367 606 379.5 614.5 c 128,-1,9
 392 623 392 623 410 623 c 2,10,-1
 426 623 l 2,11,12
 445 623 445 623 452 615.5 c 128,-1,13
 459 608 459 608 459 593 c 2,14,-1
 459 583 l 1,15,-1
 429 115 l 2,16,17
 428 106 428 106 427 88.5 c 128,-1,18
 426 71 426 71 425 62 c 1,19,-1
 428 62 l 2,20,21
 467 62 467 62 467 33 c 0,22,23
 467 27 467 27 465 20.5 c 128,-1,24
 463 14 463 14 454.5 7 c 128,-1,25
 446 0 446 0 432 0 c 2,26,-1
 332 0 l 2,27,28
 298 0 298 0 298 29 c 0,29,30
 298 62 298 62 335 62 c 2,31,-1
 354 62 l 1,32,-1
 361 164 l 1,33,-1
 244 164 l 1,34,-1
 200 62 l 1,35,-1
 202 62 l 2,36,37
 241 62 241 62 241 33 c 0,38,39
 241 0 241 0 203 0 c 2,40,-1
 106 0 l 2,41,42
 71 0 71 0 71 29 c 0,0,1
271 225 m 1,43,-1
 365 225 l 1,44,-1
 376 368 l 1,45,-1
 385 456 l 1,46,-1
 392 515 l 1,47,-1
 397 541 l 1,48,49
 376 472 376 472 271 225 c 1,43,-1
EndSplineSet
EndChar

StartChar: B
Encoding: 66 66 37
Width: 525
GlyphClass: 2
Flags: W
ItalicCorrection: 173
AnchorPoint: "Anchor-5" 371 622 basechar 0
AnchorPoint: "Anchor-4" 215 0 basechar 0
LayerCount: 2
Fore
SplineSet
62 29 m 0,0,1
 62 62 62 62 101 62 c 2,2,-1
 127 62 l 1,3,-1
 248 549 l 1,4,-1
 234 549 l 2,5,6
 215 549 215 549 207.5 558.5 c 128,-1,7
 200 568 200 568 200 578 c 0,8,9
 200 584 200 584 201.5 590 c 128,-1,10
 203 596 203 596 211.5 603.5 c 128,-1,11
 220 611 220 611 234 611 c 2,12,-1
 434 611 l 2,13,14
 496 611 496 611 522.5 575.5 c 128,-1,15
 549 540 549 540 549 496 c 0,16,17
 549 448 549 448 518 398 c 128,-1,18
 487 348 487 348 417 320 c 1,19,20
 494 296 494 296 494 210 c 0,21,22
 494 138 494 138 437 69 c 128,-1,23
 380 0 380 0 300 0 c 2,24,-1
 96 0 l 2,25,26
 77 1 77 1 69.5 10 c 128,-1,27
 62 19 62 19 62 29 c 0,0,1
198 62 m 1,28,-1
 296 62 l 2,29,30
 354 62 354 62 389 108.5 c 128,-1,31
 424 155 424 155 424 210 c 0,32,33
 424 240 424 240 410.5 263.5 c 128,-1,34
 397 287 397 287 365 287 c 2,35,-1
 255 287 l 1,36,-1
 198 62 l 1,28,-1
270 348 m 1,37,-1
 347 348 l 2,38,39
 407 348 407 348 442 393.5 c 128,-1,40
 477 439 477 439 477 485 c 0,41,42
 477 549 477 549 417 549 c 2,43,-1
 320 549 l 1,44,-1
 270 348 l 1,37,-1
EndSplineSet
EndChar

StartChar: C
Encoding: 67 67 38
Width: 525
GlyphClass: 2
Flags: W
ItalicCorrection: 173
AnchorPoint: "Anchor-5" 426 622 basechar 0
AnchorPoint: "Anchor-4" 286 0 basechar 0
LayerCount: 2
Fore
SplineSet
137 195 m 0,0,1
 137 292 137 292 177.5 391 c 128,-1,2
 218 490 218 490 286 556 c 128,-1,3
 354 622 354 622 426 622 c 2,4,-1
 427 622 l 2,5,6
 481 621 481 621 521 581 c 1,7,8
 523 584 523 584 528.5 592 c 128,-1,9
 534 600 534 600 536 602.5 c 128,-1,10
 538 605 538 605 542.5 610 c 128,-1,11
 547 615 547 615 550 617 c 128,-1,12
 553 619 553 619 557.5 620.5 c 128,-1,13
 562 622 562 622 567 622 c 0,14,15
 579 622 579 622 588 614 c 128,-1,16
 597 606 597 606 597 594 c 0,17,18
 597 589 597 589 558 432 c 1,19,-1
 556 427 l 2,20,21
 555 422 555 422 555 421 c 128,-1,22
 555 420 555 420 553 416 c 128,-1,23
 551 412 551 412 549.5 410.5 c 128,-1,24
 548 409 548 409 545.5 406.5 c 128,-1,25
 543 404 543 404 540 403 c 128,-1,26
 537 402 537 402 532 401 c 128,-1,27
 527 400 527 400 522 400 c 0,28,29
 487 400 487 400 487 432 c 0,30,31
 487 438 487 438 488 450.5 c 128,-1,32
 489 463 489 463 489 470 c 0,33,34
 489 560 489 560 428 560 c 0,35,36
 379 560 379 560 327 504 c 128,-1,37
 275 448 275 448 241 361.5 c 128,-1,38
 207 275 207 275 207 193 c 0,39,40
 207 141 207 141 226 96 c 128,-1,41
 245 51 245 51 288 51 c 0,42,43
 327 51 327 51 365 84 c 128,-1,44
 403 117 403 117 419 166 c 0,45,46
 419 167 419 167 420.5 171 c 128,-1,47
 422 175 422 175 422.5 177 c 128,-1,48
 423 179 423 179 424.5 182.5 c 128,-1,49
 426 186 426 186 427 187.5 c 128,-1,50
 428 189 428 189 430 192 c 128,-1,51
 432 195 432 195 434.5 196.5 c 128,-1,52
 437 198 437 198 440 199.5 c 128,-1,53
 443 201 443 201 446.5 201.5 c 128,-1,54
 450 202 450 202 455 202 c 2,55,-1
 457 202 l 2,56,57
 492 202 492 202 492 173 c 0,58,59
 492 171 492 171 490 161 c 0,60,61
 467 80 467 80 405 34.5 c 128,-1,62
 343 -11 343 -11 283 -11 c 0,63,64
 216 -11 216 -11 176.5 46.5 c 128,-1,65
 137 104 137 104 137 195 c 0,0,1
EndSplineSet
EndChar

StartChar: D
Encoding: 68 68 39
Width: 525
GlyphClass: 2
Flags: W
ItalicCorrection: 173
AnchorPoint: "Anchor-5" 372 622 basechar 0
AnchorPoint: "Anchor-4" 217 0 basechar 0
LayerCount: 2
Fore
SplineSet
61 29 m 0,0,1
 61 62 61 62 99 62 c 2,2,-1
 121 62 l 1,3,-1
 243 549 l 1,4,-1
 236 549 l 2,5,6
 199 549 199 549 199 579 c 0,7,8
 199 592 199 592 207.5 601.5 c 128,-1,9
 216 611 216 611 233 611 c 2,10,-1
 415 611 l 2,11,12
 489 611 489 611 521 537 c 0,13,14
 542 488 542 488 542 424 c 0,15,16
 542 325 542 325 502.5 226 c 128,-1,17
 463 127 463 127 398 63.5 c 128,-1,18
 333 0 333 0 266 0 c 2,19,-1
 97 0 l 2,20,21
 76 0 76 0 68.5 9.5 c 128,-1,22
 61 19 61 19 61 29 c 0,0,1
193 62 m 1,23,-1
 260 62 l 2,24,25
 297 62 297 62 326 82 c 0,26,27
 383 122 383 122 426.5 216 c 128,-1,28
 470 310 470 310 470 409 c 0,29,30
 470 430 470 430 466.5 451 c 128,-1,31
 463 472 463 472 456 494 c 128,-1,32
 449 516 449 516 434 530.5 c 128,-1,33
 419 545 419 545 399 548 c 0,34,35
 394 549 394 549 383 549 c 2,36,-1
 315 549 l 1,37,-1
 193 62 l 1,23,-1
EndSplineSet
EndChar

StartChar: E
Encoding: 69 69 40
Width: 525
GlyphClass: 2
Flags: W
ItalicCorrection: 173
AnchorPoint: "Anchor-5" 416 622 basechar 0
AnchorPoint: "Anchor-4" 261 0 basechar 0
AnchorPoint: "Anchor-1" 261 0 basechar 0
LayerCount: 2
Fore
SplineSet
65 29 m 0,0,1
 65 62 65 62 104 62 c 2,2,-1
 131 62 l 1,3,-1
 253 549 l 1,4,-1
 238 549 l 2,5,6
 202 549 202 549 202 577 c 0,7,8
 202 583 202 583 204 589.5 c 128,-1,9
 206 596 206 596 215 603.5 c 128,-1,10
 224 611 224 611 239 611 c 2,11,-1
 556 611 l 2,12,13
 591 611 591 611 591 582 c 0,14,15
 591 575 591 575 578 525.5 c 128,-1,16
 565 476 565 476 562 470 c 0,17,18
 554 454 554 454 530 454 c 0,19,20
 516 454 516 454 506.5 461.5 c 128,-1,21
 497 469 497 469 497 482 c 0,22,23
 497 488 497 488 512 549 c 1,24,-1
 324 549 l 1,25,-1
 274 348 l 1,26,-1
 371 348 l 2,27,28
 372 349 372 349 374.5 364 c 128,-1,29
 377 379 377 379 385.5 391.5 c 128,-1,30
 394 404 394 404 413 404 c 2,31,-1
 414 404 l 2,32,33
 449 404 449 404 449 375 c 0,34,35
 449 371 449 371 421 259 c 0,36,37
 419 250 419 250 417 245.5 c 128,-1,38
 415 241 415 241 407 235 c 128,-1,39
 399 229 399 229 387 229 c 2,40,-1
 386 229 l 2,41,42
 351 229 351 229 351 259 c 0,43,44
 351 266 351 266 356 286 c 1,45,-1
 259 286 l 1,46,-1
 259 285 l 1,47,-1
 203 62 l 1,48,-1
 409 62 l 1,49,50
 427 141 427 141 434.5 156.5 c 128,-1,51
 442 172 442 172 463 172 c 2,52,-1
 467 172 l 2,53,54
 485 172 485 172 492 163 c 128,-1,55
 499 154 499 154 499 144 c 0,56,57
 499 135 499 135 474 37 c 0,58,59
 468 15 468 15 461.5 7.5 c 128,-1,60
 455 0 455 0 436 0 c 2,61,-1
 99 0 l 2,62,63
 80 0 80 0 72.5 9.5 c 128,-1,64
 65 19 65 19 65 29 c 0,0,1
EndSplineSet
EndChar

StartChar: F
Encoding: 70 70 41
Width: 525
GlyphClass: 2
Flags: W
ItalicCorrection: 173
AnchorPoint: "Anchor-5" 412 622 basechar 0
AnchorPoint: "Anchor-4" 256 0 basechar 0
LayerCount: 2
Fore
SplineSet
66 29 m 0,0,1
 66 62 66 62 106 62 c 2,2,-1
 136 62 l 1,3,-1
 257 549 l 1,4,-1
 238 549 l 2,5,6
 204 549 204 549 204 578 c 0,7,8
 204 611 204 611 241 611 c 2,9,-1
 563 611 l 2,10,11
 584 611 584 611 591.5 601.5 c 128,-1,12
 599 592 599 592 599 582 c 0,13,14
 599 578 599 578 575 484 c 0,15,16
 568 455 568 455 541 455 c 2,17,-1
 540 455 l 2,18,19
 505 455 505 455 505 483 c 0,20,21
 505 489 505 489 520 549 c 1,22,-1
 329 549 l 1,23,-1
 276 336 l 1,24,-1
 377 336 l 1,25,26
 385 372 385 372 392 382.5 c 128,-1,27
 399 393 399 393 418 393 c 2,28,-1
 419 393 l 2,29,30
 455 393 455 393 455 364 c 0,31,32
 455 360 455 360 427 248 c 0,33,34
 425 239 425 239 423 234.5 c 128,-1,35
 421 230 421 230 413 224 c 128,-1,36
 405 218 405 218 393 218 c 2,37,-1
 391 218 l 2,38,39
 356 218 356 218 356 247 c 0,40,41
 356 257 356 257 361 275 c 1,42,-1
 261 275 l 1,43,-1
 207 62 l 1,44,-1
 239 62 l 2,45,46
 276 62 276 62 276 33 c 0,47,48
 276 0 276 0 239 0 c 2,49,-1
 103 0 l 2,50,51
 66 0 66 0 66 29 c 0,0,1
EndSplineSet
EndChar

StartChar: G
Encoding: 71 71 42
Width: 525
GlyphClass: 2
Flags: W
ItalicCorrection: 173
AnchorPoint: "Anchor-5" 409 622 basechar 0
AnchorPoint: "Anchor-4" 267 0 basechar 0
LayerCount: 2
Fore
SplineSet
133 187 m 0,0,1
 133 283 133 283 172 384.5 c 128,-1,2
 211 486 211 486 276 554 c 128,-1,3
 341 622 341 622 409 622 c 0,4,5
 457 622 457 622 494 585 c 1,6,7
 509 607 509 607 517 614.5 c 128,-1,8
 525 622 525 622 537 622 c 128,-1,9
 549 622 549 622 558 614 c 128,-1,10
 567 606 567 606 567 594 c 0,11,12
 567 589 567 589 528 432 c 0,13,14
 525 421 525 421 523 416 c 128,-1,15
 521 411 521 411 512.5 405.5 c 128,-1,16
 504 400 504 400 490 400 c 0,17,18
 457 400 457 400 457 428 c 0,19,20
 457 432 457 432 459 449 c 128,-1,21
 461 466 461 466 461 480 c 0,22,23
 461 560 461 560 411 560 c 0,24,25
 365 560 365 560 315.5 500 c 128,-1,26
 266 440 266 440 234 351.5 c 128,-1,27
 202 263 202 263 202 184 c 0,28,29
 202 166 202 166 204.5 146.5 c 128,-1,30
 207 127 207 127 213.5 104 c 128,-1,31
 220 81 220 81 234.5 66 c 128,-1,32
 249 51 249 51 269 51 c 0,33,34
 296 51 296 51 320 70 c 128,-1,35
 344 89 344 89 360.5 119 c 128,-1,36
 377 149 377 149 385.5 169 c 128,-1,37
 394 189 394 189 399 207 c 1,38,-1
 374 207 l 2,39,40
 338 207 338 207 338 236 c 0,41,42
 338 269 338 269 374 269 c 2,43,-1
 483 269 l 2,44,45
 518 269 518 269 518 240 c 0,46,47
 518 207 518 207 482 207 c 2,48,-1
 472 207 l 1,49,50
 472 205 472 205 427 28 c 0,51,52
 420 0 420 0 393 0 c 0,53,54
 368 0 368 0 358 21 c 1,55,56
 306 -11 306 -11 264 -11 c 0,57,58
 204 -11 204 -11 168.5 43.5 c 128,-1,59
 133 98 133 98 133 187 c 0,0,1
EndSplineSet
EndChar

StartChar: H
Encoding: 72 72 43
Width: 525
GlyphClass: 2
Flags: W
ItalicCorrection: 173
AnchorPoint: "Anchor-5" 417 622 basechar 0
AnchorPoint: "Anchor-4" 261 0 basechar 0
LayerCount: 2
Fore
SplineSet
62 29 m 0,0,1
 62 62 62 62 99 62 c 2,2,-1
 124 62 l 1,3,-1
 245 549 l 1,4,-1
 233 549 l 2,5,6
 199 549 199 549 199 578 c 0,7,8
 199 611 199 611 236 611 c 2,9,-1
 344 611 l 2,10,11
 379 611 379 611 379 582 c 0,12,13
 379 549 379 549 341 549 c 2,14,-1
 317 549 l 1,15,-1
 267 348 l 1,16,-1
 431 348 l 1,17,-1
 481 549 l 1,18,-1
 469 549 l 2,19,20
 434 549 434 549 434 578 c 0,21,22
 434 611 434 611 471 611 c 2,23,-1
 580 611 l 2,24,25
 614 611 614 611 614 582 c 0,26,27
 614 549 614 549 576 549 c 2,28,-1
 552 549 l 1,29,-1
 431 62 l 1,30,-1
 443 62 l 2,31,32
 477 62 477 62 477 33 c 0,33,34
 477 0 477 0 440 0 c 2,35,-1
 332 0 l 2,36,37
 297 0 297 0 297 29 c 0,38,39
 297 62 297 62 335 62 c 2,40,-1
 359 62 l 1,41,-1
 415 287 l 1,42,-1
 251 287 l 1,43,-1
 195 62 l 1,44,-1
 207 62 l 2,45,46
 221 62 221 62 229.5 56 c 128,-1,47
 238 50 238 50 240 44.5 c 128,-1,48
 242 39 242 39 242 33 c 0,49,50
 242 0 242 0 204 0 c 2,51,-1
 96 0 l 2,52,53
 62 0 62 0 62 29 c 0,0,1
EndSplineSet
EndChar

StartChar: I
Encoding: 73 73 44
Width: 525
GlyphClass: 2
Flags: W
ItalicCorrection: 173
AnchorPoint: "Anchor-5" 417 622 basechar 0
AnchorPoint: "Anchor-4" 261 0 basechar 0
AnchorPoint: "Anchor-1" 262 0 basechar 0
LayerCount: 2
Fore
SplineSet
109 29 m 0,0,1
 109 35 109 35 111 41.5 c 128,-1,2
 113 48 113 48 122 55 c 128,-1,3
 131 62 131 62 146 62 c 2,4,-1
 242 62 l 1,5,-1
 363 549 l 1,6,-1
 281 549 l 2,7,8
 247 549 247 549 247 578 c 0,9,10
 247 584 247 584 248.5 590.5 c 128,-1,11
 250 597 250 597 258.5 604 c 128,-1,12
 267 611 267 611 282 611 c 2,13,-1
 530 611 l 2,14,15
 567 611 567 611 567 582 c 0,16,17
 567 549 567 549 531 549 c 2,18,-1
 435 549 l 1,19,-1
 313 62 l 1,20,-1
 395 62 l 2,21,22
 430 62 430 62 430 33 c 0,23,24
 430 27 430 27 428 20.5 c 128,-1,25
 426 14 426 14 417.5 7 c 128,-1,26
 409 0 409 0 394 0 c 2,27,-1
 147 0 l 2,28,29
 109 0 109 0 109 29 c 0,0,1
EndSplineSet
EndChar

StartChar: J
Encoding: 74 74 45
Width: 525
GlyphClass: 2
Flags: W
ItalicCorrection: 173
AnchorPoint: "Anchor-5" 504 622 basechar 0
AnchorPoint: "Anchor-4" 265 0 basechar 0
LayerCount: 2
Fore
SplineSet
110 85 m 0,0,1
 110 116 110 116 126 131 c 128,-1,2
 142 146 142 146 161 146 c 0,3,4
 179 146 179 146 190.5 134 c 128,-1,5
 202 122 202 122 202 106 c 0,6,7
 202 89 202 89 185 70 c 1,8,9
 207 51 207 51 239 51 c 0,10,11
 272 51 272 51 305 74 c 128,-1,12
 338 97 338 97 350 146 c 2,13,-1
 450 549 l 1,14,-1
 400 549 l 2,15,16
 378 549 378 549 371 553 c 0,17,18
 356 561 356 561 356 578 c 0,19,20
 356 611 356 611 392 611 c 2,21,-1
 552 611 l 2,22,23
 589 611 589 611 589 582 c 0,24,25
 589 549 589 549 550 549 c 2,26,-1
 522 549 l 1,27,28
 516 521 516 521 512 507 c 2,29,-1
 418 131 l 2,30,31
 400 59 400 59 347 24 c 128,-1,32
 294 -11 294 -11 238 -11 c 128,-1,33
 182 -11 182 -11 146 15.5 c 128,-1,34
 110 42 110 42 110 85 c 0,0,1
EndSplineSet
EndChar

StartChar: K
Encoding: 75 75 46
Width: 525
GlyphClass: 2
Flags: W
ItalicCorrection: 173
AnchorPoint: "Anchor-5" 413 622 basechar 0
AnchorPoint: "Anchor-4" 258 0 basechar 0
LayerCount: 2
Fore
SplineSet
66 29 m 0,0,1
 66 62 66 62 103 62 c 2,2,-1
 125 62 l 1,3,-1
 247 549 l 1,4,-1
 238 549 l 2,5,6
 203 549 203 549 203 578 c 0,7,8
 203 611 203 611 240 611 c 2,9,-1
 331 611 l 2,10,11
 351 611 351 611 358.5 601.5 c 128,-1,12
 366 592 366 592 366 582 c 0,13,14
 366 549 366 549 328 549 c 2,15,-1
 305 549 l 1,16,-1
 243 300 l 1,17,-1
 471 549 l 1,18,19
 457 550 457 550 449.5 559 c 128,-1,20
 442 568 442 568 442 579 c 128,-1,21
 442 590 442 590 450 600.5 c 128,-1,22
 458 611 458 611 480 611 c 2,23,-1
 559 611 l 2,24,25
 595 611 595 611 595 582 c 0,26,27
 595 549 595 549 557 549 c 2,28,-1
 555 549 l 2,29,30
 539 549 539 549 528 537 c 0,31,32
 384 377 384 377 365 358 c 1,33,-1
 429 62 l 1,34,-1
 431 62 l 2,35,36
 466 62 466 62 466 33 c 0,37,38
 466 27 466 27 464 20.5 c 128,-1,39
 462 14 462 14 453 7 c 128,-1,40
 444 0 444 0 429 0 c 2,41,-1
 358 0 l 2,42,43
 324 0 324 0 324 29 c 0,44,45
 324 62 324 62 362 62 c 2,46,-1
 366 62 l 1,47,-1
 314 302 l 1,48,-1
 231 211 l 1,49,-1
 219 196 l 1,50,51
 215 183 215 183 184 62 c 1,52,-1
 193 62 l 2,53,54
 228 62 228 62 228 33 c 0,55,56
 228 0 228 0 191 0 c 2,57,-1
 100 0 l 2,58,59
 66 0 66 0 66 29 c 0,0,1
EndSplineSet
EndChar

StartChar: L
Encoding: 76 76 47
Width: 525
GlyphClass: 2
Flags: W
ItalicCorrection: 173
AnchorPoint: "Anchor-5" 413 622 basechar 0
AnchorPoint: "Anchor-4" 257 0 basechar 0
LayerCount: 2
Fore
SplineSet
70 29 m 0,0,1
 70 62 70 62 109 62 c 2,2,-1
 142 62 l 1,3,-1
 263 549 l 1,4,-1
 243 549 l 2,5,6
 207 549 207 549 207 578 c 0,7,8
 207 611 207 611 246 611 c 2,9,-1
 387 611 l 2,10,11
 423 611 423 611 423 582 c 0,12,13
 423 549 423 549 385 549 c 2,14,-1
 335 549 l 1,15,-1
 213 62 l 1,16,-1
 397 62 l 1,17,18
 410 119 410 119 417 140 c 128,-1,19
 424 161 424 161 431 166.5 c 128,-1,20
 438 172 438 172 454 172 c 0,21,22
 488 172 488 172 488 144 c 0,23,24
 488 139 488 139 463 38 c 0,25,26
 457 11 457 11 447 5 c 0,27,28
 439 0 439 0 425 0 c 2,29,-1
 103 0 l 2,30,31
 85 0 85 0 77.5 9.5 c 128,-1,32
 70 19 70 19 70 29 c 0,0,1
EndSplineSet
EndChar

StartChar: M
Encoding: 77 77 48
Width: 525
GlyphClass: 2
Flags: W
ItalicCorrection: 173
AnchorPoint: "Anchor-5" 417 622 basechar 0
AnchorPoint: "Anchor-4" 261 0 basechar 0
LayerCount: 2
Fore
SplineSet
59 29 m 0,0,1
 59 62 59 62 97 62 c 2,2,-1
 111 62 l 1,3,-1
 233 549 l 1,4,-1
 231 549 l 2,5,6
 197 549 197 549 197 578 c 0,7,8
 197 611 197 611 233 611 c 2,9,-1
 255 611 l 2,10,11
 270 611 270 611 277 610 c 0,12,13
 283 611 283 611 295 611 c 0,14,15
 322 611 322 611 329 598.5 c 128,-1,16
 336 586 336 586 336 549 c 2,17,-1
 336 405 l 2,18,19
 336 317 336 317 331 274 c 1,20,21
 343 317 343 317 476 574 c 0,22,23
 495 611 495 611 532 611 c 2,24,-1
 583 611 l 2,25,26
 617 611 617 611 617 582 c 0,27,28
 617 549 617 549 581 549 c 2,29,-1
 566 549 l 1,30,-1
 444 62 l 1,31,-1
 445 62 l 2,32,33
 480 62 480 62 480 33 c 0,34,35
 480 27 480 27 478 20.5 c 128,-1,36
 476 14 476 14 467.5 7 c 128,-1,37
 459 0 459 0 444 0 c 2,38,-1
 390 0 l 2,39,40
 353 0 353 0 346 6 c 0,41,42
 334 15 334 15 334 29 c 0,43,44
 334 62 334 62 372 62 c 2,45,-1
 386 62 l 1,46,-1
 502 529 l 1,47,48
 489 494 489 494 425 365.5 c 128,-1,49
 361 237 361 237 352 226 c 0,50,51
 336 204 336 204 313 204 c 0,52,53
 294 204 294 204 288.5 218.5 c 128,-1,54
 283 233 283 233 283 261 c 2,55,-1
 283 340 l 1,56,-1
 282 356 l 1,57,-1
 282 408 l 2,58,59
 282 433 282 433 286 529 c 1,60,-1
 169 62 l 1,61,-1
 170 62 l 2,62,63
 188 62 188 62 197 53.5 c 128,-1,64
 206 45 206 45 206 33 c 0,65,66
 206 27 206 27 204 20.5 c 128,-1,67
 202 14 202 14 193.5 7 c 128,-1,68
 185 0 185 0 170 0 c 2,69,-1
 116 0 l 2,70,71
 78 0 78 0 71 6 c 0,72,73
 59 15 59 15 59 29 c 0,0,1
EndSplineSet
EndChar

StartChar: N
Encoding: 78 78 49
Width: 525
GlyphClass: 2
Flags: W
ItalicCorrection: 173
AnchorPoint: "Anchor-5" 417 622 basechar 0
AnchorPoint: "Anchor-4" 262 0 basechar 0
LayerCount: 2
Fore
SplineSet
68 29 m 0,0,1
 68 62 68 62 105 62 c 2,2,-1
 130 62 l 1,3,-1
 251 549 l 1,4,-1
 239 549 l 2,5,6
 205 549 205 549 205 578 c 0,7,8
 205 611 205 611 242 611 c 2,9,-1
 272 611 l 2,10,11
 287 611 287 611 295 610 c 0,12,13
 301 611 301 611 315 611 c 0,14,15
 322 611 322 611 327.5 610 c 128,-1,16
 333 609 333 609 337 608 c 128,-1,17
 341 607 341 607 344 603.5 c 128,-1,18
 347 600 347 600 349 597 c 128,-1,19
 351 594 351 594 352 587.5 c 128,-1,20
 353 581 353 581 354 575.5 c 128,-1,21
 355 570 355 570 355.5 559.5 c 128,-1,22
 356 549 356 549 356 540 c 128,-1,23
 356 531 356 531 356.5 515.5 c 128,-1,24
 357 500 357 500 358 487 c 0,25,26
 372 171 372 171 372 111 c 0,27,28
 372 104 372 104 371.5 93.5 c 128,-1,29
 371 83 371 83 371 76 c 1,30,-1
 489 549 l 1,31,-1
 477 549 l 2,32,33
 443 549 443 549 443 578 c 0,34,35
 443 611 443 611 480 611 c 2,36,-1
 575 611 l 2,37,38
 595 611 595 611 602.5 601.5 c 128,-1,39
 610 592 610 592 610 582 c 0,40,41
 610 549 610 549 572 549 c 2,42,-1
 547 549 l 1,43,44
 545 540 545 540 540.5 522 c 128,-1,45
 536 504 536 504 534 495 c 2,46,-1
 418 31 l 2,47,48
 414 15 414 15 407.5 8 c 128,-1,49
 401 1 401 1 387 1 c 2,50,-1
 382 1 l 2,51,52
 376 0 376 0 364 0 c 2,53,-1
 359 0 l 2,54,55
 351 0 351 0 345.5 1 c 128,-1,56
 340 2 340 2 336 5 c 128,-1,57
 332 8 332 8 329.5 11.5 c 128,-1,58
 327 15 327 15 325 22 c 128,-1,59
 323 29 323 29 322.5 35 c 128,-1,60
 322 41 322 41 321.5 51.5 c 128,-1,61
 321 62 321 62 320.5 71.5 c 128,-1,62
 320 81 320 81 320 96 c 128,-1,63
 320 111 320 111 319 124 c 0,64,65
 308 372 308 372 305 501 c 0,66,67
 305 506 305 506 305.5 515 c 128,-1,68
 306 524 306 524 306 529 c 2,69,-1
 306 534 l 1,70,-1
 188 62 l 1,71,-1
 200 62 l 2,72,73
 234 62 234 62 234 33 c 0,74,75
 234 0 234 0 197 0 c 2,76,-1
 102 0 l 2,77,78
 68 1 68 1 68 29 c 0,0,1
EndSplineSet
EndChar

StartChar: O
Encoding: 79 79 50
Width: 525
GlyphClass: 2
Flags: W
ItalicCorrection: 173
AnchorPoint: "Anchor-5" 417 622 basechar 0
AnchorPoint: "Anchor-4" 261 0 basechar 0
AnchorPoint: "Anchor-1" 261 0 basechar 0
LayerCount: 2
Fore
SplineSet
122 74 m 0,0,1
 122 134 122 134 156 271 c 128,-1,2
 190 408 190 408 213 476 c 0,3,4
 245 568 245 568 284 595 c 128,-1,5
 323 622 323 622 417 622 c 0,6,7
 446 622 446 622 463 621 c 128,-1,8
 480 620 480 620 500 615.5 c 128,-1,9
 520 611 520 611 530.5 602 c 128,-1,10
 541 593 541 593 548 577 c 128,-1,11
 555 561 555 561 555 538 c 0,12,13
 555 477 555 477 520.5 336.5 c 128,-1,14
 486 196 486 196 463 131 c 0,15,16
 431 41 431 41 391 15 c 128,-1,17
 351 -11 351 -11 258 -11 c 0,18,19
 185 -11 185 -11 153.5 5 c 128,-1,20
 122 21 122 21 122 74 c 0,0,1
198 107 m 0,21,22
 198 80 198 80 215 65 c 128,-1,23
 232 50 232 50 275 50 c 0,24,25
 308 50 308 50 329.5 58 c 128,-1,26
 351 66 351 66 366 85.5 c 128,-1,27
 381 105 381 105 389 125 c 128,-1,28
 397 145 397 145 409 182 c 0,29,30
 429 244 429 244 455 354 c 128,-1,31
 481 464 481 464 481 507 c 0,32,33
 481 560 481 560 403 560 c 0,34,35
 364 560 364 560 339.5 548 c 128,-1,36
 315 536 315 536 307 524 c 128,-1,37
 299 512 299 512 290 491 c 0,38,39
 270 443 270 443 234 301.5 c 128,-1,40
 198 160 198 160 198 107 c 0,21,22
EndSplineSet
EndChar

StartChar: P
Encoding: 80 80 51
Width: 525
GlyphClass: 2
Flags: W
ItalicCorrection: 173
AnchorPoint: "Anchor-5" 371 622 basechar 0
AnchorPoint: "Anchor-4" 216 0 basechar 0
LayerCount: 2
Fore
SplineSet
65 29 m 0,0,1
 65 62 65 62 101 62 c 2,2,3
 101 62 101 62 131 62 c 1,4,-1
 253 549 l 1,5,-1
 237 549 l 2,6,7
 202 549 202 549 202 578 c 0,8,9
 202 611 202 611 238 611 c 2,10,-1
 437 611 l 2,11,12
 495 611 495 611 527 573.5 c 128,-1,13
 559 536 559 536 559 478 c 0,14,15
 559 398 559 398 497.5 321 c 128,-1,16
 436 244 436 244 339 244 c 2,17,-1
 248 244 l 1,18,-1
 203 62 l 1,19,-1
 219 62 l 2,20,21
 254 62 254 62 254 33 c 0,22,23
 254 0 254 0 216 0 c 2,24,-1
 100 0 l 2,25,26
 65 0 65 0 65 29 c 0,0,1
264 305 m 1,27,-1
 339 305 l 2,28,29
 406 305 406 305 446.5 356 c 128,-1,30
 487 407 487 407 487 462 c 0,31,32
 487 496 487 496 467 522.5 c 128,-1,33
 447 549 447 549 401 549 c 2,34,-1
 324 549 l 1,35,-1
 264 305 l 1,27,-1
EndSplineSet
EndChar

StartChar: Q
Encoding: 81 81 52
Width: 525
GlyphClass: 2
Flags: W
ItalicCorrection: 173
AnchorPoint: "Anchor-5" 418 622 basechar 0
AnchorPoint: "Anchor-4" 206 -222 basechar 0
LayerCount: 2
Fore
SplineSet
122 74 m 0,0,1
 122 134 122 134 158.5 281.5 c 128,-1,2
 195 429 195 429 220 495 c 0,3,4
 248 569 248 569 285.5 595.5 c 128,-1,5
 323 622 323 622 407 622 c 2,6,-1
 429 622 l 2,7,8
 506 622 506 622 530.5 601 c 128,-1,9
 555 580 555 580 555 536 c 0,10,11
 555 469 555 469 494 234 c 0,12,13
 464 119 464 119 438.5 71.5 c 128,-1,14
 413 24 413 24 375 6 c 1,15,16
 395 -99 395 -99 395 -111 c 0,17,18
 395 -139 395 -139 362 -139 c 2,19,-1
 344 -139 l 2,20,21
 320 -139 320 -139 315.5 -125 c 128,-1,22
 311 -111 311 -111 296 -10 c 1,23,24
 284 -11 284 -11 261 -11 c 0,25,26
 225 -11 225 -11 204 -9 c 128,-1,27
 183 -7 183 -7 162 1 c 128,-1,28
 141 9 141 9 131.5 27 c 128,-1,29
 122 45 122 45 122 74 c 0,0,1
197 107 m 0,30,31
 197 50 197 50 274 50 c 0,32,33
 276 50 276 50 279.5 50.5 c 128,-1,34
 283 51 283 51 285 51 c 1,35,36
 281 78 281 78 277 100.5 c 128,-1,37
 273 123 273 123 271.5 131.5 c 128,-1,38
 270 140 270 140 270 144 c 128,-1,39
 270 148 270 148 271.5 153.5 c 128,-1,40
 273 159 273 159 281.5 165 c 128,-1,41
 290 171 290 171 304 171 c 2,42,-1
 327 171 l 2,43,44
 341 171 341 171 345 161 c 0,45,46
 349 153 349 153 361 78 c 1,47,48
 376 93 376 93 390 128 c 0,49,50
 413 187 413 187 446.5 323 c 128,-1,51
 480 459 480 459 480 504 c 0,52,53
 480 530 480 530 464.5 545 c 128,-1,54
 449 560 449 560 402 560 c 0,55,56
 388 560 388 560 375.5 558.5 c 128,-1,57
 363 557 363 557 353.5 553.5 c 128,-1,58
 344 550 344 550 336.5 547 c 128,-1,59
 329 544 329 544 323 538.5 c 128,-1,60
 317 533 317 533 313 529.5 c 128,-1,61
 309 526 309 526 305.5 520 c 128,-1,62
 302 514 302 514 300.5 511.5 c 128,-1,63
 299 509 299 509 296 504 c 2,64,-1
 294 499 l 2,65,66
 274 456 274 456 235.5 308.5 c 128,-1,67
 197 161 197 161 197 107 c 0,30,31
EndSplineSet
EndChar

StartChar: R
Encoding: 82 82 53
Width: 525
GlyphClass: 2
Flags: W
ItalicCorrection: 173
AnchorPoint: "Anchor-5" 371 622 basechar 0
AnchorPoint: "Anchor-4" 216 0 basechar 0
LayerCount: 2
Fore
SplineSet
62 29 m 0,0,1
 62 62 62 62 99 62 c 2,2,-1
 124 62 l 1,3,-1
 245 549 l 1,4,-1
 231 549 l 2,5,6
 199 549 199 549 199 579 c 0,7,8
 199 585 199 585 201 591.5 c 128,-1,9
 203 598 203 598 211.5 604.5 c 128,-1,10
 220 611 220 611 235 611 c 2,11,-1
 389 611 l 2,12,13
 461 611 461 611 491.5 572 c 128,-1,14
 522 533 522 533 522 485 c 0,15,16
 522 430 522 430 489.5 379.5 c 128,-1,17
 457 329 457 329 407 301 c 1,18,19
 436 266 436 266 436 223 c 0,20,21
 436 198 436 198 420 140.5 c 128,-1,22
 404 83 404 83 404 60 c 2,23,-1
 404 51 l 1,24,25
 416 53 416 53 422.5 65.5 c 128,-1,26
 429 78 429 78 431 91 c 128,-1,27
 433 104 433 104 442 115 c 128,-1,28
 451 126 451 126 469 126 c 0,29,30
 488 126 488 126 496.5 117 c 128,-1,31
 505 108 505 108 505 97 c 0,32,33
 505 73 505 73 478 31 c 128,-1,34
 451 -11 451 -11 407 -11 c 0,35,36
 379 -11 379 -11 357.5 7 c 128,-1,37
 336 25 336 25 336 68 c 0,38,39
 336 96 336 96 351 153.5 c 128,-1,40
 366 211 366 211 366 224 c 0,41,42
 366 275 366 275 315 275 c 2,43,-1
 249 275 l 1,44,-1
 195 62 l 1,45,-1
 207 62 l 2,46,47
 221 62 221 62 229.5 56 c 128,-1,48
 238 50 238 50 240 44.5 c 128,-1,49
 242 39 242 39 242 33 c 0,50,51
 242 0 242 0 204 0 c 2,52,-1
 96 0 l 2,53,54
 62 0 62 0 62 29 c 0,0,1
264 336 m 1,55,-1
 311 336 l 2,56,57
 377 336 377 336 413.5 380.5 c 128,-1,58
 450 425 450 425 450 470 c 0,59,60
 450 500 450 500 431 524.5 c 128,-1,61
 412 549 412 549 367 549 c 2,62,-1
 317 549 l 1,63,-1
 264 336 l 1,55,-1
EndSplineSet
EndChar

StartChar: S
Encoding: 83 83 54
Width: 525
GlyphClass: 2
Flags: W
ItalicCorrection: 173
AnchorPoint: "Anchor-5" 389 622 basechar 0
AnchorPoint: "Anchor-4" 288 0 basechar 0
LayerCount: 2
Fore
SplineSet
91 17 m 0,0,1
 91 23 91 23 128 172 c 0,2,3
 131 183 131 183 133 188 c 128,-1,4
 135 193 135 193 143 198 c 128,-1,5
 151 203 151 203 165 203 c 0,6,7
 199 203 199 203 199 175 c 0,8,9
 199 171 199 171 196.5 156 c 128,-1,10
 194 141 194 141 194 129 c 0,11,12
 194 86 194 86 221.5 68 c 128,-1,13
 249 50 249 50 286 50 c 0,14,15
 336 50 336 50 377 98 c 128,-1,16
 418 146 418 146 418 203 c 0,17,18
 418 226 418 226 412 240 c 128,-1,19
 406 254 406 254 391 262.5 c 128,-1,20
 376 271 376 271 361.5 275 c 128,-1,21
 347 279 347 279 320.5 286 c 128,-1,22
 294 293 294 293 274 301 c 0,23,24
 243 313 243 313 219.5 343 c 128,-1,25
 196 373 196 373 196 422 c 0,26,27
 196 499 196 499 255 560.5 c 128,-1,28
 314 622 314 622 390 622 c 0,29,30
 446 622 446 622 494 582 c 1,31,32
 495 584 495 584 498.5 591 c 128,-1,33
 502 598 502 598 504 600.5 c 128,-1,34
 506 603 506 603 509.5 608.5 c 128,-1,35
 513 614 513 614 516.5 616 c 128,-1,36
 520 618 520 618 524.5 620 c 128,-1,37
 529 622 529 622 535 622 c 0,38,39
 547 622 547 622 556 613.5 c 128,-1,40
 565 605 565 605 565 593 c 0,41,42
 565 592 565 592 527 439 c 0,43,44
 525 433 525 433 525 432.5 c 128,-1,45
 525 432 525 432 523 426 c 128,-1,46
 521 420 521 420 519 418.5 c 128,-1,47
 517 417 517 417 513.5 413.5 c 128,-1,48
 510 410 510 410 504.5 408.5 c 128,-1,49
 499 407 499 407 492 407 c 2,50,-1
 491 407 l 2,51,52
 456 407 456 407 456 437 c 0,53,54
 456 442 456 442 457.5 456 c 128,-1,55
 459 470 459 470 459 478 c 0,56,57
 459 560 459 560 389 560 c 0,58,59
 339 560 339 560 301 517.5 c 128,-1,60
 263 475 263 475 263 428 c 0,61,62
 263 402 263 402 276.5 386.5 c 128,-1,63
 290 371 290 371 306 365.5 c 128,-1,64
 322 360 322 360 355 351 c 128,-1,65
 388 342 388 342 409 334 c 0,66,67
 444 320 444 320 465 287.5 c 128,-1,68
 486 255 486 255 486 209 c 0,69,70
 486 127 486 127 425.5 58 c 128,-1,71
 365 -11 365 -11 285 -11 c 0,72,73
 212 -11 212 -11 163 31 c 0,74,75
 162 30 162 30 158.5 23 c 128,-1,76
 155 16 155 16 153.5 14 c 128,-1,77
 152 12 152 12 148.5 6.5 c 128,-1,78
 145 1 145 1 143 -1 c 128,-1,79
 141 -3 141 -3 137 -6 c 128,-1,80
 133 -9 133 -9 129 -10 c 128,-1,81
 125 -11 125 -11 120 -11 c 0,82,83
 105 -11 105 -11 98 -2 c 128,-1,84
 91 7 91 7 91 17 c 0,0,1
EndSplineSet
EndChar

StartChar: T
Encoding: 84 84 55
Width: 525
GlyphClass: 2
Flags: W
ItalicCorrection: 173
AnchorPoint: "Anchor-5" 417 622 basechar 0
AnchorPoint: "Anchor-4" 262 0 basechar 0
LayerCount: 2
Fore
SplineSet
157 29 m 0,0,1
 157 62 157 62 196 62 c 2,2,-1
 242 62 l 1,3,-1
 364 549 l 1,4,-1
 272 549 l 1,5,6
 258 485 258 485 250 470 c 128,-1,7
 242 455 242 455 222 455 c 2,8,-1
 220 455 l 2,9,10
 185 455 185 455 185 483 c 0,11,12
 185 491 185 491 197.5 540.5 c 128,-1,13
 210 590 210 590 213 596 c 0,14,15
 222 611 222 611 245 611 c 2,16,-1
 572 611 l 2,17,18
 592 611 592 611 599 601.5 c 128,-1,19
 606 592 606 592 606 582 c 0,20,21
 606 577 606 577 582 481 c 0,22,23
 576 455 576 455 548 455 c 0,24,25
 513 455 513 455 513 483 c 0,26,27
 513 493 513 493 527 549 c 1,28,-1
 435 549 l 1,29,-1
 314 62 l 1,30,-1
 347 62 l 2,31,32
 383 62 383 62 383 33 c 0,33,34
 383 0 383 0 345 0 c 2,35,-1
 194 0 l 2,36,37
 157 0 157 0 157 29 c 0,0,1
EndSplineSet
EndChar

StartChar: U
Encoding: 85 85 56
Width: 525
GlyphClass: 2
Flags: W
ItalicCorrection: 173
AnchorPoint: "Anchor-5" 417 622 basechar 0
AnchorPoint: "Anchor-4" 269 0 basechar 0
AnchorPoint: "Anchor-1" 269 0 basechar 0
LayerCount: 2
Fore
SplineSet
141 143 m 0,0,1
 141 170 141 170 156 234 c 2,2,-1
 234 549 l 1,3,-1
 219 549 l 2,4,5
 183 549 183 549 183 578 c 0,6,7
 183 611 183 611 221 611 c 2,8,-1
 338 611 l 2,9,10
 373 611 373 611 373 582 c 0,11,12
 373 549 373 549 334 549 c 2,13,-1
 306 549 l 1,14,15
 303 536 303 536 223 218 c 0,16,17
 211 172 211 172 211 140 c 0,18,19
 211 101 211 101 226.5 76 c 128,-1,20
 242 51 242 51 267 51 c 0,21,22
 298 51 298 51 333 82 c 0,23,24
 359 105 359 105 377.5 138.5 c 128,-1,25
 396 172 396 172 400 186.5 c 128,-1,26
 404 201 404 201 413 235 c 2,27,-1
 491 549 l 1,28,-1
 476 549 l 2,29,30
 441 549 441 549 441 578 c 0,31,32
 441 611 441 611 478 611 c 2,33,-1
 595 611 l 2,34,35
 630 611 630 611 630 582 c 0,36,37
 630 549 630 549 591 549 c 2,38,-1
 563 549 l 1,39,40
 561 541 561 541 481 219 c 0,41,42
 455 111 455 111 395 51 c 0,43,44
 334 -11 334 -11 266 -11 c 0,45,46
 210 -11 210 -11 175.5 32.5 c 128,-1,47
 141 76 141 76 141 143 c 0,0,1
EndSplineSet
EndChar

StartChar: V
Encoding: 86 86 57
Width: 525
GlyphClass: 2
Flags: W
ItalicCorrection: 173
AnchorPoint: "Anchor-5" 416 622 basechar 0
AnchorPoint: "Anchor-4" 260 0 basechar 0
LayerCount: 2
Fore
SplineSet
201 578 m 0,0,1
 201 611 201 611 237 611 c 2,2,-1
 333 611 l 2,3,4
 367 611 367 611 367 582 c 0,5,6
 367 549 367 549 330 549 c 2,7,-1
 312 549 l 1,8,9
 311 540 311 540 307.5 451.5 c 128,-1,10
 304 363 304 363 298 264 c 128,-1,11
 292 165 292 165 285 108 c 0,12,13
 284 102 284 102 282 90 c 128,-1,14
 280 78 280 78 280 72 c 1,15,-1
 291 106 l 1,16,-1
 350 247 l 1,17,-1
 485 549 l 1,18,-1
 482 549 l 2,19,20
 446 549 446 549 446 578 c 0,21,22
 446 611 446 611 481 611 c 2,23,-1
 578 611 l 2,24,25
 612 611 612 611 612 582 c 0,26,27
 612 549 612 549 575 549 c 2,28,-1
 557 549 l 1,29,-1
 324 37 l 2,30,31
 317 21 317 21 313.5 14.5 c 128,-1,32
 310 8 310 8 297.5 0 c 128,-1,33
 285 -8 285 -8 267 -8 c 2,34,-1
 249 -8 l 2,35,36
 217 -8 217 -8 217 24 c 2,37,-1
 217 33 l 1,38,-1
 240 549 l 1,39,-1
 237 549 l 2,40,41
 201 549 201 549 201 578 c 0,0,1
EndSplineSet
EndChar

StartChar: W
Encoding: 87 87 58
Width: 525
GlyphClass: 2
Flags: W
ItalicCorrection: 173
AnchorPoint: "Anchor-5" 417 622 basechar 0
AnchorPoint: "Anchor-4" 262 0 basechar 0
LayerCount: 2
Fore
SplineSet
148 17 m 2,0,-1
 148 27 l 1,1,-1
 212 495 l 2,2,3
 214 504 214 504 216 522.5 c 128,-1,4
 218 541 218 541 220 550 c 1,5,6
 196 558 196 558 196 578 c 0,7,8
 196 584 196 584 197.5 590.5 c 128,-1,9
 199 597 199 597 207.5 604 c 128,-1,10
 216 611 216 611 231 611 c 2,11,-1
 306 611 l 2,12,13
 341 611 341 611 341 582 c 0,14,15
 341 549 341 549 301 549 c 2,16,-1
 277 549 l 1,17,18
 270 481 270 481 251.5 362 c 128,-1,19
 233 243 233 243 218 158 c 2,20,-1
 204 72 l 1,21,22
 217 123 217 123 259.5 228.5 c 128,-1,23
 302 334 302 334 311 346 c 0,24,25
 327 367 327 367 352 367 c 0,26,27
 372 367 372 367 379 359 c 128,-1,28
 386 351 386 351 386 332 c 0,29,30
 386 325 386 325 384.5 310 c 128,-1,31
 383 295 383 295 383 287 c 0,32,33
 379 232 379 232 375 192.5 c 128,-1,34
 371 153 371 153 368.5 137.5 c 128,-1,35
 366 122 366 122 362 101.5 c 128,-1,36
 358 81 358 81 357 73 c 1,37,-1
 376 135 l 1,38,-1
 411 239 l 1,39,-1
 522 549 l 1,40,-1
 509 549 l 2,41,42
 474 549 474 549 474 578 c 0,43,44
 474 611 474 611 513 611 c 2,45,-1
 584 611 l 2,46,47
 618 611 618 611 618 582 c 0,48,49
 618 549 618 549 583 549 c 2,50,-1
 579 549 l 1,51,52
 573 531 573 531 559 495 c 2,53,-1
 393 35 l 2,54,55
 379 -8 379 -8 344 -8 c 0,56,57
 324 -8 324 -8 317 0 c 128,-1,58
 310 8 310 8 310 25 c 0,59,60
 310 35 310 35 312 61 c 0,61,62
 319 173 319 173 335 294 c 1,63,64
 322 241 322 241 227 25 c 0,65,66
 212 -8 212 -8 177 -8 c 2,67,-1
 176 -8 l 2,68,69
 148 -8 148 -8 148 17 c 2,0,-1
EndSplineSet
EndChar

StartChar: X
Encoding: 88 88 59
Width: 525
GlyphClass: 2
Flags: W
ItalicCorrection: 173
AnchorPoint: "Anchor-5" 417 622 basechar 0
AnchorPoint: "Anchor-4" 261 0 basechar 0
LayerCount: 2
Fore
SplineSet
71 29 m 0,0,1
 71 62 71 62 107 62 c 2,2,-1
 132 62 l 1,3,4
 138 72 138 72 152 92 c 2,5,-1
 298 315 l 2,6,7
 303 322 303 322 303 334 c 0,8,9
 303 344 303 344 298.5 365.5 c 128,-1,10
 294 387 294 387 284 437.5 c 128,-1,11
 274 488 274 488 264 549 c 1,12,-1
 252 549 l 2,13,14
 217 549 217 549 217 578 c 0,15,16
 217 611 217 611 253 611 c 2,17,-1
 350 611 l 2,18,19
 385 611 385 611 385 582 c 0,20,21
 385 549 385 549 348 549 c 2,22,-1
 340 549 l 1,23,-1
 363 422 l 1,24,-1
 445 549 l 1,25,26
 430 549 430 549 421.5 558 c 128,-1,27
 413 567 413 567 413 579 c 0,28,29
 413 611 413 611 450 611 c 2,30,-1
 549 611 l 2,31,32
 562 611 562 611 571 603 c 128,-1,33
 580 595 580 595 580 582 c 0,34,35
 580 556 580 556 556 550 c 0,36,37
 551 549 551 549 541 549 c 2,38,-1
 519 549 l 1,39,-1
 380 337 l 1,40,-1
 375 326 l 1,41,-1
 375 314 l 1,42,-1
 421 62 l 1,43,-1
 433 62 l 2,44,45
 467 62 467 62 467 33 c 0,46,47
 467 0 467 0 433 0 c 2,48,-1
 335 0 l 2,49,50
 300 0 300 0 300 29 c 0,51,52
 300 62 300 62 337 62 c 2,53,-1
 347 62 l 1,54,-1
 317 240 l 1,55,-1
 205 62 l 1,56,-1
 206 62 l 2,57,58
 222 62 222 62 230 53 c 128,-1,59
 238 44 238 44 238 32 c 0,60,61
 238 0 238 0 202 0 c 2,62,-1
 102 0 l 2,63,64
 89 0 89 0 80 8 c 128,-1,65
 71 16 71 16 71 29 c 0,0,1
EndSplineSet
EndChar

StartChar: Y
Encoding: 89 89 60
Width: 525
GlyphClass: 2
Flags: W
ItalicCorrection: 173
AnchorPoint: "Anchor-5" 416 622 basechar 0
AnchorPoint: "Anchor-4" 261 0 basechar 0
LayerCount: 2
Fore
SplineSet
180 29 m 0,0,1
 180 62 180 62 217 62 c 2,2,-1
 242 62 l 1,3,-1
 287 244 l 1,4,-1
 245 549 l 1,5,-1
 236 549 l 2,6,7
 201 549 201 549 201 578 c 0,8,9
 201 611 201 611 237 611 c 2,10,-1
 334 611 l 2,11,12
 368 611 368 611 368 582 c 0,13,14
 368 570 368 570 360 559.5 c 128,-1,15
 352 549 352 549 333 549 c 2,16,-1
 321 549 l 1,17,-1
 338 404 l 1,18,-1
 342 360 l 1,19,-1
 342 337 l 1,20,-1
 341 314 l 1,21,22
 353 351 353 351 477 549 c 1,23,-1
 476 549 l 2,24,25
 461 549 461 549 453 558 c 128,-1,26
 445 567 445 567 445 579 c 128,-1,27
 445 591 445 591 453 601 c 128,-1,28
 461 611 461 611 480 611 c 2,29,-1
 576 611 l 2,30,31
 613 611 613 611 613 582 c 0,32,33
 613 570 613 570 605 559.5 c 128,-1,34
 597 549 597 549 579 549 c 2,35,-1
 566 549 l 2,36,37
 553 549 553 549 545 537 c 2,38,-1
 366 257 l 2,39,40
 357 244 357 244 328 125 c 0,41,42
 318 86 318 86 312 62 c 1,43,-1
 325 62 l 2,44,45
 339 62 339 62 347.5 56 c 128,-1,46
 356 50 356 50 358 44.5 c 128,-1,47
 360 39 360 39 360 33 c 0,48,49
 360 20 360 20 351.5 10 c 128,-1,50
 343 0 343 0 322 0 c 2,51,-1
 214 0 l 2,52,53
 180 0 180 0 180 29 c 0,0,1
EndSplineSet
EndChar

StartChar: Z
Encoding: 90 90 61
Width: 525
GlyphClass: 2
Flags: W
ItalicCorrection: 173
AnchorPoint: "Anchor-5" 419 622 basechar 0
AnchorPoint: "Anchor-4" 264 0 basechar 0
LayerCount: 2
Fore
SplineSet
87 22 m 0,0,1
 87 40 87 40 103 61 c 2,2,-1
 494 549 l 1,3,-1
 299 549 l 1,4,5
 285 484 285 484 277 469.5 c 128,-1,6
 269 455 269 455 249 455 c 2,7,-1
 247 455 l 2,8,9
 212 455 212 455 212 483 c 0,10,11
 212 491 212 491 235 582 c 0,12,13
 242 611 242 611 273 611 c 2,14,-1
 560 611 l 2,15,16
 588 611 588 611 588 589 c 0,17,18
 588 571 588 571 571 548 c 2,19,-1
 182 62 l 1,20,-1
 390 62 l 1,21,22
 411 152 411 152 420 164 c 0,23,24
 427 175 427 175 445 175 c 2,25,-1
 447 175 l 2,26,27
 482 175 482 175 482 147 c 0,28,29
 482 141 482 141 454 30 c 0,30,31
 450 12 450 12 441.5 6 c 128,-1,32
 433 0 433 0 415 0 c 2,33,-1
 114 0 l 2,34,35
 87 0 87 0 87 22 c 0,0,1
EndSplineSet
EndChar

StartChar: bracketleft
Encoding: 91 91 62
Width: 525
GlyphClass: 2
Flags: W
ItalicCorrection: 173
LayerCount: 2
Fore
SplineSet
209 -55 m 0,0,1
 209 -50 209 -50 214 -30 c 2,2,-1
 386 658 l 2,3,4
 391 678 391 678 398.5 686 c 128,-1,5
 406 694 406 694 425 694 c 2,6,-1
 578 694 l 2,7,8
 614 694 614 694 614 665 c 0,9,10
 614 632 614 632 577 632 c 2,11,-1
 452 632 l 1,12,-1
 288 -22 l 1,13,-1
 401 -22 l 2,14,15
 435 -22 435 -22 435 -51 c 0,16,17
 435 -83 435 -83 397 -83 c 2,18,-1
 245 -83 l 2,19,20
 209 -83 209 -83 209 -55 c 0,0,1
EndSplineSet
EndChar

StartChar: backslash
Encoding: 92 92 63
Width: 525
GlyphClass: 2
Flags: W
ItalicCorrection: 173
LayerCount: 2
Fore
SplineSet
256 662 m 0,0,1
 256 676 256 676 266 685 c 128,-1,2
 276 694 276 694 287 694 c 0,3,4
 314 694 314 694 320 650 c 2,5,-1
 418 -36 l 2,6,7
 420 -46 420 -46 420 -52 c 0,8,9
 420 -66 420 -66 410.5 -74.5 c 128,-1,10
 401 -83 401 -83 389 -83 c 0,11,12
 361 -83 361 -83 356 -40 c 2,13,-1
 258 647 l 2,14,15
 256 657 256 657 256 662 c 0,0,1
EndSplineSet
EndChar

StartChar: bracketright
Encoding: 93 93 64
Width: 525
GlyphClass: 2
Flags: W
ItalicCorrection: 173
LayerCount: 2
Fore
SplineSet
63 -54 m 0,0,1
 63 -22 63 -22 100 -22 c 2,2,-1
 225 -22 l 1,3,-1
 388 633 l 1,4,-1
 281 633 l 2,5,6
 280 633 280 633 278.5 632.5 c 128,-1,7
 277 632 277 632 276 632 c 0,8,9
 258 632 258 632 249.5 641 c 128,-1,10
 241 650 241 650 241 661 c 0,11,12
 241 694 241 694 279 694 c 2,13,-1
 431 694 l 2,14,15
 467 694 467 694 467 666 c 0,16,17
 467 661 467 661 462 641 c 2,18,-1
 290 -48 l 2,19,20
 285 -70 285 -70 277 -76.5 c 128,-1,21
 269 -83 269 -83 252 -83 c 2,22,-1
 97 -83 l 2,23,24
 63 -83 63 -83 63 -54 c 0,0,1
EndSplineSet
EndChar

StartChar: asciicircum
Encoding: 94 94 65
Width: 525
GlyphClass: 2
Flags: W
ItalicCorrection: 173
LayerCount: 2
Fore
SplineSet
216 462 m 0,0,1
 216 481 216 481 240 492 c 0,2,3
 386 565 386 565 396 565 c 0,4,5
 407 565 407 565 487 512 c 0,6,7
 505 499 505 499 516 492 c 0,8,9
 538 479 538 479 538 462 c 0,10,11
 538 450 538 450 526 436 c 128,-1,12
 514 422 514 422 501 422 c 2,13,-1
 500 422 l 1,14,-1
 499 422 l 2,15,16
 491 422 491 422 465 441 c 0,17,18
 459 445 459 445 443 457 c 0,19,20
 413 479 413 479 391 495 c 1,21,22
 377 487 377 487 266 428 c 0,23,24
 254 422 254 422 248 422 c 0,25,26
 231 422 231 422 223.5 436 c 128,-1,27
 216 450 216 450 216 462 c 0,0,1
EndSplineSet
EndChar

StartChar: underscore
Encoding: 95 95 66
Width: 525
GlyphClass: 2
Flags: W
ItalicCorrection: 173
LayerCount: 2
Fore
SplineSet
73 -60 m 0,0,1
 73 -53 73 -53 75 -46.5 c 128,-1,2
 77 -40 77 -40 88 -32.5 c 128,-1,3
 99 -25 99 -25 117 -25 c 2,4,-1
 377 -25 l 2,5,6
 420 -25 420 -25 420 -60 c 0,7,8
 420 -67 420 -67 417.5 -73.5 c 128,-1,9
 415 -80 415 -80 405 -87.5 c 128,-1,10
 395 -95 395 -95 378 -95 c 2,11,-1
 115 -95 l 2,12,13
 92 -95 92 -95 82.5 -83.5 c 128,-1,14
 73 -72 73 -72 73 -60 c 0,0,1
EndSplineSet
EndChar

StartChar: grave
Encoding: 96 96 67
Width: 525
GlyphClass: 2
Flags: W
ItalicCorrection: 173
LayerCount: 2
Fore
SplineSet
285 603 m 0,0,1
 285 617 285 617 296 628 c 128,-1,2
 307 639 307 639 322 639 c 0,3,4
 333 639 333 639 365 619 c 0,5,6
 372 615 372 615 389 603 c 0,7,8
 416 586 416 586 434 575 c 0,9,10
 454 562 454 562 454 546 c 0,11,12
 454 533 454 533 442 519.5 c 128,-1,13
 430 506 430 506 417 506 c 2,14,-1
 414 506 l 2,15,16
 408 506 408 506 370 531 c 0,17,18
 335 553 335 553 308 570 c 0,19,20
 285 585 285 585 285 603 c 0,0,1
EndSplineSet
EndChar

StartChar: a
Encoding: 97 97 68
Width: 525
GlyphClass: 2
Flags: W
ItalicCorrection: 173
AnchorPoint: "Anchor-5" 339 436 basechar 0
AnchorPoint: "Anchor-4" 230 0 basechar 0
AnchorPoint: "Anchor-3" 678 611 basechar 0
AnchorPoint: "Anchor-2" 469 -222 basechar 0
AnchorPoint: "Anchor-1" 439 0 basechar 0
LayerCount: 2
Fore
SplineSet
125 148 m 0,0,1
 125 254 125 254 191.5 345 c 128,-1,2
 258 436 258 436 339 436 c 0,3,4
 383 436 383 436 423 396 c 1,5,6
 434 421 434 421 458 421 c 0,7,8
 471 421 471 421 481.5 411.5 c 128,-1,9
 492 402 492 402 492 388 c 0,10,11
 492 382 492 382 489 370 c 2,12,-1
 425 114 l 2,13,14
 419 90 419 90 419 84 c 0,15,16
 419 73 419 73 423.5 66.5 c 128,-1,17
 428 60 428 60 432 58.5 c 128,-1,18
 436 57 436 57 439 57 c 0,19,20
 459 57 459 57 482 143 c 0,21,22
 491 172 491 172 516 172 c 2,23,-1
 520 172 l 2,24,25
 553 172 553 172 553 143 c 0,26,27
 553 140 553 140 550 126 c 128,-1,28
 547 112 547 112 538.5 89 c 128,-1,29
 530 66 530 66 518 45.5 c 128,-1,30
 506 25 506 25 485 10 c 128,-1,31
 464 -5 464 -5 438 -5 c 0,32,33
 379 -5 379 -5 357 47 c 1,34,35
 302 -5 302 -5 243 -5 c 0,36,37
 190 -5 190 -5 157.5 38 c 128,-1,38
 125 81 125 81 125 148 c 0,0,1
195 145 m 0,39,40
 195 111 195 111 206.5 84 c 128,-1,41
 218 57 218 57 245 57 c 0,42,43
 292 57 292 57 340 131 c 128,-1,44
 388 205 388 205 388 285 c 0,45,46
 388 326 388 326 374 350 c 128,-1,47
 360 374 360 374 336 374 c 0,48,49
 288 374 288 374 241.5 298.5 c 128,-1,50
 195 223 195 223 195 145 c 0,39,40
EndSplineSet
EndChar

StartChar: b
Encoding: 98 98 69
Width: 525
GlyphClass: 2
Flags: W
ItalicCorrection: 173
AnchorPoint: "Anchor-5" 414 611 basechar 0
AnchorPoint: "Anchor-4" 261 0 basechar 0
AnchorPoint: "Anchor-3" 678 611 basechar 0
AnchorPoint: "Anchor-2" 469 -222 basechar 0
LayerCount: 2
Fore
SplineSet
129 578 m 0,0,1
 129 611 129 611 166 611 c 2,2,-1
 268 611 l 2,3,4
 304 611 304 611 304 582 c 0,5,6
 304 575 304 575 301 566 c 2,7,-1
 260 399 l 1,8,9
 316 436 316 436 363 436 c 0,10,11
 422 436 422 436 459 391 c 128,-1,12
 496 346 496 346 496 276 c 0,13,14
 496 171 496 171 425 83 c 128,-1,15
 354 -5 354 -5 267 -5 c 0,16,17
 208 -5 208 -5 171.5 40 c 128,-1,18
 135 85 135 85 135 154 c 0,19,20
 135 186 135 186 148 240 c 2,21,-1
 225 549 l 1,22,-1
 163 549 l 2,23,24
 129 549 129 549 129 578 c 0,0,1
204 152 m 0,25,26
 204 109 204 109 222 82.5 c 128,-1,27
 240 56 240 56 269 56 c 0,28,29
 322 56 322 56 374 126 c 128,-1,30
 426 196 426 196 426 280 c 0,31,32
 426 321 426 321 409 347.5 c 128,-1,33
 392 374 392 374 361 374 c 0,34,35
 307 374 307 374 255.5 303 c 128,-1,36
 204 232 204 232 204 152 c 0,25,26
EndSplineSet
EndChar

StartChar: c
Encoding: 99 99 70
Width: 525
GlyphClass: 2
Flags: W
ItalicCorrection: 173
AnchorPoint: "Anchor-5" 391 436 basechar 0
AnchorPoint: "Anchor-4" 306 0 basechar 0
AnchorPoint: "Anchor-3" 678 611 basechar 0
AnchorPoint: "Anchor-2" 469 -222 basechar 0
LayerCount: 2
Fore
SplineSet
136 163 m 0,0,1
 136 266 136 266 214.5 351 c 128,-1,2
 293 436 293 436 391 436 c 0,3,4
 443 436 443 436 477 410 c 128,-1,5
 511 384 511 384 511 342 c 0,6,7
 511 311 511 311 495 296 c 128,-1,8
 479 281 479 281 460 281 c 0,9,10
 443 281 443 281 431 292.5 c 128,-1,11
 419 304 419 304 419 320 c 0,12,13
 419 340 419 340 435 357 c 1,14,-1
 435 358 l 1,15,16
 416 374 416 374 390 374 c 0,17,18
 324 374 324 374 265 307.5 c 128,-1,19
 206 241 206 241 206 162 c 0,20,21
 206 138 206 138 212.5 116.5 c 128,-1,22
 219 95 219 95 242.5 75.5 c 128,-1,23
 266 56 266 56 305 56 c 0,24,25
 359 56 359 56 396.5 64.5 c 128,-1,26
 434 73 434 73 447.5 82.5 c 128,-1,27
 461 92 461 92 472 100.5 c 128,-1,28
 483 109 483 109 491 109 c 0,29,30
 505 109 505 109 516 97 c 128,-1,31
 527 85 527 85 528 73 c 0,32,33
 528 59 528 59 512 45 c 0,34,35
 485 22 485 22 444.5 10.5 c 128,-1,36
 404 -1 404 -1 376.5 -3 c 128,-1,37
 349 -5 349 -5 305 -5 c 0,38,39
 257 -5 257 -5 222 11.5 c 128,-1,40
 187 28 187 28 169.5 55 c 128,-1,41
 152 82 152 82 144 108.5 c 128,-1,42
 136 135 136 135 136 163 c 0,0,1
EndSplineSet
EndChar

StartChar: d
Encoding: 100 100 71
Width: 525
GlyphClass: 2
Flags: W
ItalicCorrection: 173
AnchorPoint: "Anchor-5" 390 611 basechar 0
AnchorPoint: "Anchor-4" 299 0 basechar 0
AnchorPoint: "Anchor-3" 678 611 basechar 0
AnchorPoint: "Anchor-2" 469 -222 basechar 0
LayerCount: 2
Fore
SplineSet
125 148 m 0,0,1
 125 253 125 253 192 344.5 c 128,-1,2
 259 436 259 436 339 436 c 0,3,4
 389 436 389 436 423 396 c 1,5,-1
 461 549 l 1,6,-1
 412 549 l 2,7,8
 376 549 376 549 376 578 c 0,9,10
 376 611 376 611 414 611 c 2,11,-1
 505 611 l 2,12,13
 540 611 540 611 540 583 c 0,14,15
 540 574 540 574 537 564 c 2,16,-1
 423 108 l 2,17,18
 419 92 419 92 419 84 c 0,19,20
 419 57 419 57 438 57 c 0,21,22
 452 57 452 57 462 79.5 c 128,-1,23
 472 102 472 102 479.5 129 c 128,-1,24
 487 156 487 156 492 162 c 0,25,26
 502 172 502 172 517 172 c 0,27,28
 553 172 553 172 553 143 c 0,29,30
 553 140 553 140 550 126.5 c 128,-1,31
 547 113 547 113 539 90 c 128,-1,32
 531 67 531 67 519 46 c 128,-1,33
 507 25 507 25 485.5 10 c 128,-1,34
 464 -5 464 -5 438 -5 c 0,35,36
 379 -5 379 -5 357 47 c 1,37,38
 298 -5 298 -5 243 -5 c 0,39,40
 190 -5 190 -5 157.5 38 c 128,-1,41
 125 81 125 81 125 148 c 0,0,1
195 145 m 0,42,43
 195 111 195 111 206.5 84 c 128,-1,44
 218 57 218 57 245 57 c 0,45,46
 291 57 291 57 339.5 130 c 128,-1,47
 388 203 388 203 388 285 c 0,48,49
 388 326 388 326 374 350 c 128,-1,50
 360 374 360 374 336 374 c 0,51,52
 288 374 288 374 241.5 298.5 c 128,-1,53
 195 223 195 223 195 145 c 0,42,43
EndSplineSet
EndChar

StartChar: e
Encoding: 101 101 72
Width: 525
GlyphClass: 2
Flags: W
ItalicCorrection: 173
AnchorPoint: "Anchor-5" 391 436 basechar 0
AnchorPoint: "Anchor-4" 306 0 basechar 0
AnchorPoint: "Anchor-3" 678 611 basechar 0
AnchorPoint: "Anchor-2" 469 -222 basechar 0
AnchorPoint: "Anchor-1" 306 0 basechar 0
LayerCount: 2
Fore
SplineSet
137 165 m 0,0,1
 137 271 137 271 216.5 353.5 c 128,-1,2
 296 436 296 436 391 436 c 0,3,4
 444 436 444 436 479.5 407 c 128,-1,5
 515 378 515 378 515 332 c 0,6,7
 515 278 515 278 473 241 c 0,8,9
 446 218 446 218 402 205.5 c 128,-1,10
 358 193 358 193 323.5 191 c 128,-1,11
 289 189 289 189 233 189 c 2,12,-1
 209 189 l 2,13,14
 207 187 207 187 207 163 c 0,15,16
 207 122 207 122 229 89 c 128,-1,17
 251 56 251 56 301 56 c 2,18,-1
 303 56 l 2,19,20
 359 56 359 56 396.5 64.5 c 128,-1,21
 434 73 434 73 447 82.5 c 128,-1,22
 460 92 460 92 471.5 100.5 c 128,-1,23
 483 109 483 109 493 109 c 0,24,25
 505 109 505 109 516.5 97 c 128,-1,26
 528 85 528 85 528 73 c 0,27,28
 528 55 528 55 498.5 35.5 c 128,-1,29
 469 16 469 16 435 7 c 0,30,31
 389 -5 389 -5 305 -5 c 0,32,33
 257 -5 257 -5 222 11.5 c 128,-1,34
 187 28 187 28 169.5 55.5 c 128,-1,35
 152 83 152 83 144.5 110 c 128,-1,36
 137 137 137 137 137 165 c 0,0,1
227 250 m 1,37,38
 261 250 261 250 282.5 250.5 c 128,-1,39
 304 251 304 251 338.5 255.5 c 128,-1,40
 373 260 373 260 393 268 c 128,-1,41
 413 276 413 276 429 292 c 128,-1,42
 445 308 445 308 445 331 c 0,43,44
 445 350 445 350 429.5 362 c 128,-1,45
 414 374 414 374 389 374 c 0,46,47
 342 374 342 374 296.5 338.5 c 128,-1,48
 251 303 251 303 227 250 c 1,37,38
EndSplineSet
EndChar

StartChar: f
Encoding: 102 102 73
Width: 525
GlyphClass: 2
Flags: W
ItalicCorrection: 173
AnchorPoint: "Anchor-5" 426 611 basechar 0
AnchorPoint: "Anchor-4" 190 -222 basechar 0
AnchorPoint: "Anchor-3" 678 611 basechar 0
AnchorPoint: "Anchor-2" 469 -222 basechar 0
LayerCount: 2
Fore
SplineSet
45 -155 m 0,0,1
 45 -128 45 -128 60.5 -114 c 128,-1,2
 76 -100 76 -100 95 -100 c 0,3,4
 111 -100 111 -100 123.5 -111 c 128,-1,5
 136 -122 136 -122 136 -140 c 0,6,7
 136 -148 136 -148 130 -162 c 1,8,9
 150 -166 150 -166 154 -166 c 0,10,11
 165 -166 165 -166 178 -156 c 0,12,13
 209 -130 209 -130 226.5 -59 c 128,-1,14
 244 12 244 12 291 285 c 0,15,16
 301 339 301 339 306 369 c 1,17,-1
 241 369 l 2,18,19
 208 370 208 370 208 398 c 0,20,21
 208 404 208 404 209.5 410 c 128,-1,22
 211 416 211 416 219.5 423 c 128,-1,23
 228 430 228 430 243 430 c 2,24,-1
 317 430 l 1,25,26
 333 531 333 531 348 561 c 0,27,28
 376 616 376 616 454 616 c 0,29,30
 501 616 501 616 535.5 599 c 128,-1,31
 570 582 570 582 570 543 c 0,32,33
 570 520 570 520 556.5 504.5 c 128,-1,34
 543 489 543 489 521 489 c 0,35,36
 502 489 502 489 491 500 c 128,-1,37
 480 511 480 511 480 528 c 0,38,39
 480 538 480 538 485 551 c 1,40,41
 465 555 465 555 453 555 c 0,42,43
 422 555 422 555 412.5 537 c 128,-1,44
 403 519 403 519 393 459 c 0,45,46
 390 441 390 441 388 430 c 1,47,-1
 471 430 l 2,48,49
 506 430 506 430 506 402 c 0,50,51
 506 396 506 396 504 389.5 c 128,-1,52
 502 383 502 383 493 376 c 128,-1,53
 484 369 484 369 469 369 c 2,54,-1
 377 369 l 1,55,56
 327 63 327 63 304 -34.5 c 128,-1,57
 281 -132 281 -132 256 -167 c 0,58,59
 212 -227 212 -227 154 -227 c 0,60,61
 113 -227 113 -227 79 -210.5 c 128,-1,62
 45 -194 45 -194 45 -155 c 0,0,1
EndSplineSet
EndChar

StartChar: g
Encoding: 103 103 74
Width: 525
GlyphClass: 2
Flags: W
ItalicCorrection: 173
AnchorPoint: "Anchor-5" 370 436 basechar 0
AnchorPoint: "Anchor-4" 209 -222 basechar 0
AnchorPoint: "Anchor-3" 678 611 basechar 0
AnchorPoint: "Anchor-2" 469 -222 basechar 0
LayerCount: 2
Fore
SplineSet
67 -164 m 0,0,1
 67 -143 67 -143 80.5 -127 c 128,-1,2
 94 -111 94 -111 116 -111 c 0,3,4
 134 -111 134 -111 145.5 -122 c 128,-1,5
 157 -133 157 -133 157 -152 c 0,6,7
 157 -160 157 -160 156 -164 c 1,8,9
 186 -166 186 -166 202 -166 c 0,10,11
 296 -166 296 -166 337 -92 c 0,12,13
 346 -78 346 -78 372 36 c 1,14,15
 318 0 318 0 269 0 c 0,16,17
 210 0 210 0 173 45 c 128,-1,18
 136 90 136 90 136 159 c 0,19,20
 136 262 136 262 206 349 c 128,-1,21
 276 436 276 436 363 436 c 0,22,23
 419 436 419 436 461 390 c 1,24,25
 469 421 469 421 498 421 c 0,26,27
 511 421 511 421 521 412 c 128,-1,28
 531 403 531 403 531 389 c 2,29,-1
 528 371 l 1,30,-1
 422 -55 l 2,31,32
 411 -96 411 -96 405 -110 c 0,33,34
 382 -159 382 -159 329 -193.5 c 128,-1,35
 276 -228 276 -228 207 -228 c 0,36,37
 206 -228 206 -228 204.5 -227.5 c 128,-1,38
 203 -227 203 -227 202 -227 c 0,39,40
 176 -227 176 -227 158 -225.5 c 128,-1,41
 140 -224 140 -224 116 -218.5 c 128,-1,42
 92 -213 92 -213 79.5 -199.5 c 128,-1,43
 67 -186 67 -186 67 -164 c 0,0,1
206 157 m 0,44,45
 206 114 206 114 223.5 88 c 128,-1,46
 241 62 241 62 270 62 c 0,47,48
 324 62 324 62 375.5 131 c 128,-1,49
 427 200 427 200 427 279 c 0,50,51
 427 323 427 323 409 348.5 c 128,-1,52
 391 374 391 374 362 374 c 0,53,54
 309 374 309 374 257.5 305.5 c 128,-1,55
 206 237 206 237 206 157 c 0,44,45
EndSplineSet
EndChar

StartChar: h
Encoding: 104 104 75
Width: 525
GlyphClass: 2
Flags: W
ItalicCorrection: 173
AnchorPoint: "Anchor-5" 389 611 basechar 0
AnchorPoint: "Anchor-4" 236 0 basechar 0
AnchorPoint: "Anchor-3" 678 611 basechar 0
AnchorPoint: "Anchor-2" 469 -222 basechar 0
LayerCount: 2
Fore
SplineSet
88 28 m 0,0,1
 88 34 88 34 93 57 c 2,2,-1
 203 494 l 2,3,4
 207 508 207 508 216 549 c 1,5,-1
 173 549 l 2,6,7
 152 549 152 549 144 554 c 0,8,9
 131 563 131 563 131 578 c 0,10,11
 131 584 131 584 133 590.5 c 128,-1,12
 135 597 135 597 144 604 c 128,-1,13
 153 611 153 611 168 611 c 2,14,-1
 255 611 l 2,15,16
 259 611 259 611 266 610.5 c 128,-1,17
 273 610 273 610 284 602.5 c 128,-1,18
 295 595 295 595 295 582 c 0,19,20
 295 576 295 576 250 396 c 1,21,22
 300 436 300 436 363 436 c 0,23,24
 413 436 413 436 442.5 407.5 c 128,-1,25
 472 379 472 379 472 329 c 0,26,27
 472 283 472 283 438 184 c 128,-1,28
 404 85 404 85 404 77 c 0,29,30
 404 57 404 57 417 57 c 0,31,32
 433 57 433 57 449 75 c 0,33,34
 465 94 465 94 473.5 120 c 128,-1,35
 482 146 482 146 489 159 c 128,-1,36
 496 172 496 172 515 172 c 2,37,-1
 519 172 l 2,38,39
 553 172 553 172 553 143 c 0,40,41
 553 110 553 110 513.5 52.5 c 128,-1,42
 474 -5 474 -5 414 -5 c 0,43,44
 378 -5 378 -5 356 19 c 128,-1,45
 334 43 334 43 334 78 c 0,46,47
 334 98 334 98 368 195 c 128,-1,48
 402 292 402 292 402 329 c 0,49,50
 402 375 402 375 361 375 c 128,-1,51
 320 375 320 375 285.5 342 c 128,-1,52
 251 309 251 309 229.5 259 c 128,-1,53
 208 209 208 209 193 160 c 128,-1,54
 178 111 178 111 168 67.5 c 128,-1,55
 158 24 158 24 154 17 c 0,56,57
 143 -5 143 -5 121 -5 c 0,58,59
 107 -5 107 -5 97.5 4.5 c 128,-1,60
 88 14 88 14 88 28 c 0,0,1
EndSplineSet
EndChar

StartChar: i
Encoding: 105 105 76
Width: 525
GlyphClass: 2
Flags: W
ItalicCorrection: 173
AnchorPoint: "Anchor-5" 410 591 basechar 0
AnchorPoint: "Anchor-4" 262 0 basechar 0
AnchorPoint: "Anchor-3" 678 611 basechar 0
AnchorPoint: "Anchor-2" 469 -222 basechar 0
AnchorPoint: "Anchor-1" 332 0 basechar 0
LayerCount: 2
Fore
SplineSet
142 288 m 0,0,1
 146 332 146 332 192 384 c 128,-1,2
 238 436 238 436 301 436 c 0,3,4
 342 436 342 436 370.5 411 c 128,-1,5
 399 386 399 386 399 348 c 2,6,-1
 399 342 l 2,7,8
 399 326 399 326 351 209.5 c 128,-1,9
 303 93 303 93 303 82 c 128,-1,10
 303 71 303 71 311 64 c 128,-1,11
 319 57 319 57 332 57 c 0,12,13
 357 57 357 57 382 81 c 128,-1,14
 407 105 407 105 418 139 c 0,15,16
 418 140 418 140 419 143 c 128,-1,17
 420 146 420 146 420.5 147.5 c 128,-1,18
 421 149 421 149 422 152 c 128,-1,19
 423 155 423 155 424 156.5 c 128,-1,20
 425 158 425 158 426.5 160.5 c 128,-1,21
 428 163 428 163 430 164.5 c 128,-1,22
 432 166 432 166 434.5 167.5 c 128,-1,23
 437 169 437 169 440 170 c 128,-1,24
 443 171 443 171 447 171.5 c 128,-1,25
 451 172 451 172 455 172 c 0,26,27
 490 172 490 172 490 143 c 0,28,29
 490 107 490 107 444 51 c 128,-1,30
 398 -5 398 -5 331 -5 c 0,31,32
 292 -5 292 -5 262.5 19 c 128,-1,33
 233 43 233 43 233 82 c 0,34,35
 233 107 233 107 280.5 221 c 128,-1,36
 328 335 328 335 328 349 c 0,37,38
 328 360 328 360 320 367 c 128,-1,39
 312 374 312 374 299 374 c 0,40,41
 272 374 272 374 248.5 349 c 128,-1,42
 225 324 225 324 214 292 c 0,43,44
 213 290 213 290 211 284 c 128,-1,45
 209 278 209 278 208 276 c 128,-1,46
 207 274 207 274 204.5 269.5 c 128,-1,47
 202 265 202 265 198.5 263.5 c 128,-1,48
 195 262 195 262 189 260.5 c 128,-1,49
 183 259 183 259 176 259 c 0,50,51
 142 259 142 259 142 288 c 0,0,1
359 563 m 0,52,53
 359 581 359 581 373.5 596 c 128,-1,54
 388 611 388 611 408 611 c 0,55,56
 425 611 425 611 436.5 598.5 c 128,-1,57
 448 586 448 586 448 570 c 0,58,59
 448 551 448 551 434 536.5 c 128,-1,60
 420 522 420 522 400 522 c 0,61,62
 384 522 384 522 371.5 534 c 128,-1,63
 359 546 359 546 359 563 c 0,52,53
EndSplineSet
EndChar

StartChar: j
Encoding: 106 106 77
Width: 525
GlyphClass: 2
Flags: W
ItalicCorrection: 173
AnchorPoint: "Anchor-4" 239 -222 basechar 0
AnchorPoint: "Anchor-3" 678 611 basechar 0
AnchorPoint: "Anchor-2" 469 -222 basechar 0
LayerCount: 2
Fore
SplineSet
90 -164 m 0,0,1
 90 -141 90 -141 105 -126 c 128,-1,2
 120 -111 120 -111 139 -111 c 0,3,4
 157 -111 157 -111 169 -122.5 c 128,-1,5
 181 -134 181 -134 181 -151 c 0,6,7
 181 -155 181 -155 179 -165 c 1,8,9
 180 -165 180 -165 183 -165.5 c 128,-1,10
 186 -166 186 -166 188 -166 c 0,11,12
 201 -166 201 -166 216.5 -161 c 128,-1,13
 232 -156 232 -156 253 -142.5 c 128,-1,14
 274 -129 274 -129 293 -97.5 c 128,-1,15
 312 -66 312 -66 324 -20 c 2,16,-1
 410 324 l 2,17,18
 410 326 410 326 411 329.5 c 128,-1,19
 412 333 412 333 412.5 336 c 128,-1,20
 413 339 413 339 413 342 c 0,21,22
 413 374 413 374 378 374 c 0,23,24
 351 374 351 374 319 350.5 c 128,-1,25
 287 327 287 327 268 286 c 2,26,-1
 266 282 l 2,27,28
 265 279 265 279 264.5 277.5 c 128,-1,29
 264 276 264 276 261.5 272.5 c 128,-1,30
 259 269 259 269 257 267.5 c 128,-1,31
 255 266 255 266 251.5 263.5 c 128,-1,32
 248 261 248 261 243.5 260 c 128,-1,33
 239 259 239 259 233 259 c 2,34,-1
 232 259 l 2,35,36
 196 259 196 259 196 286 c 0,37,38
 196 319 196 319 251 377.5 c 128,-1,39
 306 436 306 436 379 436 c 0,40,41
 423 436 423 436 453 409.5 c 128,-1,42
 483 383 483 383 483 341 c 0,43,44
 483 327 483 327 474 291 c 2,45,-1
 393 -32 l 2,46,47
 386 -63 386 -63 379 -81 c 0,48,49
 357 -138 357 -138 304.5 -182.5 c 128,-1,50
 252 -227 252 -227 186 -227 c 0,51,52
 145 -227 145 -227 117.5 -212 c 128,-1,53
 90 -197 90 -197 90 -164 c 0,0,1
452 563 m 0,54,55
 452 583 452 583 467 597 c 128,-1,56
 482 611 482 611 501 611 c 0,57,58
 517 611 517 611 529.5 599.5 c 128,-1,59
 542 588 542 588 542 571 c 0,60,61
 542 551 542 551 526.5 536.5 c 128,-1,62
 511 522 511 522 493 522 c 0,63,64
 476 522 476 522 464 534.5 c 128,-1,65
 452 547 452 547 452 563 c 0,54,55
EndSplineSet
EndChar

StartChar: k
Encoding: 107 107 78
Width: 525
GlyphClass: 2
Flags: W
ItalicCorrection: 173
AnchorPoint: "Anchor-5" 403 611 basechar 0
AnchorPoint: "Anchor-4" 251 0 basechar 0
AnchorPoint: "Anchor-3" 678 611 basechar 0
AnchorPoint: "Anchor-2" 469 -222 basechar 0
LayerCount: 2
Fore
SplineSet
96 28 m 0,0,1
 96 31 96 31 96.5 33.5 c 128,-1,2
 97 36 97 36 98 39.5 c 128,-1,3
 99 43 99 43 99 45 c 2,4,-1
 213 500 l 1,5,-1
 225 549 l 1,6,-1
 162 549 l 2,7,8
 146 549 146 549 137.5 558 c 128,-1,9
 129 567 129 567 129 579 c 0,10,11
 129 611 129 611 169 611 c 2,12,-1
 268 611 l 2,13,14
 304 611 304 611 304 582 c 0,15,16
 304 581 304 581 298 554 c 2,17,-1
 226 264 l 1,18,19
 250 279 250 279 282.5 310.5 c 128,-1,20
 315 342 315 342 340 368.5 c 128,-1,21
 365 395 365 395 400.5 415.5 c 128,-1,22
 436 436 436 436 472 436 c 0,23,24
 505 436 505 436 522 414 c 128,-1,25
 539 392 539 392 539 357 c 0,26,27
 539 272 539 272 486 272 c 0,28,29
 469 272 469 272 457 282.5 c 128,-1,30
 445 293 445 293 445 312 c 0,31,32
 445 332 445 332 458 345 c 128,-1,33
 471 358 471 358 471 374 c 1,34,35
 449 372 449 372 428 360.5 c 128,-1,36
 407 349 407 349 394.5 338 c 128,-1,37
 382 327 382 327 347.5 292 c 128,-1,38
 313 257 313 257 293 238 c 1,39,40
 336 227 336 227 366 201 c 128,-1,41
 396 175 396 175 396 132 c 0,42,43
 396 122 396 122 393.5 109 c 128,-1,44
 391 96 391 96 391 90 c 0,45,46
 391 76 391 76 399.5 66.5 c 128,-1,47
 408 57 408 57 421 57 c 0,48,49
 438 57 438 57 452 75 c 0,50,51
 465 92 465 92 472 112 c 128,-1,52
 479 132 479 132 481.5 143.5 c 128,-1,53
 484 155 484 155 492.5 163.5 c 128,-1,54
 501 172 501 172 519 172 c 2,55,-1
 520 172 l 2,56,57
 553 172 553 172 553 143 c 0,58,59
 553 134 553 134 545.5 112 c 128,-1,60
 538 90 538 90 523.5 63 c 128,-1,61
 509 36 509 36 481.5 15.5 c 128,-1,62
 454 -5 454 -5 421 -5 c 0,63,64
 379 -5 379 -5 350 21 c 128,-1,65
 321 47 321 47 321 89 c 0,66,67
 321 99 321 99 323 112 c 128,-1,68
 325 125 325 125 325 131 c 0,69,70
 325 178 325 178 207 188 c 1,71,72
 166 21 166 21 162 15 c 0,73,74
 151 -5 151 -5 130 -5 c 0,75,76
 115 -5 115 -5 105.5 5 c 128,-1,77
 96 15 96 15 96 28 c 0,0,1
EndSplineSet
EndChar

StartChar: l
Encoding: 108 108 79
Width: 525
GlyphClass: 2
Flags: W
ItalicCorrection: 173
AnchorPoint: "Anchor-5" 378 611 basechar 0
AnchorPoint: "Anchor-4" 225 0 basechar 0
AnchorPoint: "Anchor-3" 678 611 basechar 0
AnchorPoint: "Anchor-2" 469 -222 basechar 0
LayerCount: 2
Fore
SplineSet
195 578 m 0,0,1
 195 611 195 611 233 611 c 2,2,-1
 370 611 l 2,3,4
 405 611 405 611 405 582 c 0,5,6
 405 578 405 578 403 568 c 2,7,-1
 288 106 l 2,8,9
 286 94 286 94 286 91 c 0,10,11
 286 84 286 84 293 72 c 1,12,13
 317 56 317 56 339 56 c 0,14,15
 351 56 351 56 361.5 63 c 128,-1,16
 372 70 372 70 379.5 79.5 c 128,-1,17
 387 89 387 89 393 102 c 128,-1,18
 399 115 399 115 402.5 125 c 128,-1,19
 406 135 406 135 409 143.5 c 128,-1,20
 412 152 412 152 412 153 c 0,21,22
 420 172 420 172 445 172 c 2,23,-1
 448 172 l 2,24,25
 465 172 465 172 472 162.5 c 128,-1,26
 479 153 479 153 479 143 c 128,-1,27
 479 133 479 133 470.5 110.5 c 128,-1,28
 462 88 462 88 446.5 61.5 c 128,-1,29
 431 35 431 35 402 15 c 128,-1,30
 373 -5 373 -5 339 -5 c 0,31,32
 287 -5 287 -5 251 21.5 c 128,-1,33
 215 48 215 48 215 90 c 0,34,35
 215 98 215 98 226 145 c 2,36,-1
 327 549 l 1,37,-1
 231 549 l 2,38,39
 195 549 195 549 195 578 c 0,0,1
EndSplineSet
EndChar

StartChar: m
Encoding: 109 109 80
Width: 525
GlyphClass: 2
Flags: W
ItalicCorrection: 173
AnchorPoint: "Anchor-5" 378 436 basechar 0
AnchorPoint: "Anchor-4" 269 0 basechar 0
AnchorPoint: "Anchor-3" 678 611 basechar 0
AnchorPoint: "Anchor-2" 469 -222 basechar 0
LayerCount: 2
Fore
SplineSet
50 22 m 0,0,1
 50 35 50 35 66 92 c 128,-1,2
 82 149 82 149 95 191 c 128,-1,3
 108 233 108 233 111 243 c 0,4,5
 119 277 119 277 132 328 c 0,6,7
 149 400 149 400 155.5 415 c 128,-1,8
 162 430 162 430 180 430 c 0,9,10
 191 430 191 430 198 423 c 128,-1,11
 205 416 205 416 206.5 410.5 c 128,-1,12
 208 405 208 405 208 402 c 1,13,14
 249 436 249 436 295 436 c 0,15,16
 314 436 314 436 328.5 430.5 c 128,-1,17
 343 425 343 425 352 414 c 128,-1,18
 361 403 361 403 365.5 395 c 128,-1,19
 370 387 370 387 374 375 c 1,20,21
 423 436 423 436 486 436 c 0,22,23
 519 436 519 436 544.5 413.5 c 128,-1,24
 570 391 570 391 570 339 c 0,25,26
 570 293 570 293 537.5 197 c 128,-1,27
 505 101 505 101 505 81 c 0,28,29
 505 70 505 70 511 65 c 128,-1,30
 517 60 517 60 523.5 59 c 128,-1,31
 530 58 530 58 536 51.5 c 128,-1,32
 542 45 542 45 542 33 c 128,-1,33
 542 21 542 21 533 10.5 c 128,-1,34
 524 0 524 0 510 0 c 0,35,36
 487 0 487 0 467.5 18 c 128,-1,37
 448 36 448 36 448 76 c 0,38,39
 448 111 448 111 480.5 205 c 128,-1,40
 513 299 513 299 513 335 c 0,41,42
 513 374 513 374 486 374 c 0,43,44
 450 374 450 374 416 320 c 128,-1,45
 382 266 382 266 362.5 203 c 128,-1,46
 343 140 343 140 327 78 c 128,-1,47
 311 16 311 16 309 12 c 0,48,49
 300 -5 300 -5 276 -5 c 2,50,-1
 274 -5 l 2,51,52
 258 -5 258 -5 250 3.5 c 128,-1,53
 242 12 242 12 242 23 c 0,54,55
 242 41 242 41 281.5 173.5 c 128,-1,56
 321 306 321 306 321 335 c 0,57,58
 321 374 321 374 294 374 c 0,59,60
 258 374 258 374 224 319.5 c 128,-1,61
 190 265 190 265 170.5 202 c 128,-1,62
 151 139 151 139 135 77 c 128,-1,63
 119 15 119 15 117 12 c 0,64,65
 108 -5 108 -5 84 -5 c 2,66,-1
 83 -5 l 2,67,68
 52 -5 52 -5 50 22 c 0,0,1
EndSplineSet
EndChar

StartChar: n
Encoding: 110 110 81
Width: 525
GlyphClass: 2
Flags: W
ItalicCorrection: 173
AnchorPoint: "Anchor-5" 370 436 basechar 0
AnchorPoint: "Anchor-4" 261 0 basechar 0
AnchorPoint: "Anchor-3" 678 611 basechar 0
AnchorPoint: "Anchor-2" 469 -222 basechar 0
LayerCount: 2
Fore
SplineSet
79 287 m 0,0,1
 79 290 79 290 81.5 303 c 128,-1,2
 84 316 84 316 91.5 339.5 c 128,-1,3
 99 363 99 363 110 384 c 128,-1,4
 121 405 121 405 142 420.5 c 128,-1,5
 163 436 163 436 188 436 c 0,6,7
 244 436 244 436 265 381 c 1,8,9
 320 436 320 436 385 436 c 0,10,11
 430 436 430 436 457.5 408.5 c 128,-1,12
 485 381 485 381 485 331 c 0,13,14
 485 288 485 288 451 184.5 c 128,-1,15
 417 81 417 81 417 73 c 0,16,17
 417 64 417 64 420 57 c 1,18,19
 441 57 441 57 455 78 c 128,-1,20
 469 99 469 99 478 127.5 c 128,-1,21
 487 156 487 156 488 158 c 0,22,23
 497 172 497 172 515 172 c 2,24,-1
 517 172 l 2,25,26
 553 172 553 172 553 143 c 0,27,28
 553 134 553 134 545 111.5 c 128,-1,29
 537 89 537 89 522.5 62 c 128,-1,30
 508 35 508 35 481 15 c 128,-1,31
 454 -5 454 -5 422 -5 c 0,32,33
 389 -5 389 -5 368 17.5 c 128,-1,34
 347 40 347 40 347 76 c 0,35,36
 347 96 347 96 381 196 c 128,-1,37
 415 296 415 296 415 333 c 0,38,39
 415 374 415 374 383 374 c 0,40,41
 338 374 338 374 300.5 320.5 c 128,-1,42
 263 267 263 267 243.5 203.5 c 128,-1,43
 224 140 224 140 208 78.5 c 128,-1,44
 192 17 192 17 188 11 c 0,45,46
 177 -5 177 -5 158 -5 c 0,47,48
 145 -5 145 -5 134.5 4.5 c 128,-1,49
 124 14 124 14 124 28 c 0,50,51
 124 34 124 34 129 51 c 2,52,-1
 195 317 l 2,53,54
 201 337 201 337 201 349 c 0,55,56
 201 372 201 372 188 372 c 0,57,58
 171 372 171 372 152 300 c 0,59,60
 151 297 151 297 149.5 291 c 128,-1,61
 148 285 148 285 147 281.5 c 128,-1,62
 146 278 146 278 143.5 273 c 128,-1,63
 141 268 141 268 138 265.5 c 128,-1,64
 135 263 135 263 129 261 c 128,-1,65
 123 259 123 259 116 259 c 2,66,-1
 114 259 l 2,67,68
 79 259 79 259 79 287 c 0,0,1
EndSplineSet
EndChar

StartChar: o
Encoding: 111 111 82
Width: 525
GlyphClass: 2
Flags: W
ItalicCorrection: 173
AnchorPoint: "Anchor-5" 363 436 basechar 0
AnchorPoint: "Anchor-4" 270 0 basechar 0
AnchorPoint: "Anchor-3" 678 611 basechar 0
AnchorPoint: "Anchor-2" 469 -222 basechar 0
AnchorPoint: "Anchor-1" 270 0 basechar 0
LayerCount: 2
Fore
SplineSet
126 158 m 0,0,1
 126 263 126 263 200 349.5 c 128,-1,2
 274 436 274 436 363 436 c 0,3,4
 426 436 426 436 465.5 390 c 128,-1,5
 505 344 505 344 505 273 c 0,6,7
 505 168 505 168 431.5 81.5 c 128,-1,8
 358 -5 358 -5 269 -5 c 0,9,10
 205 -5 205 -5 165.5 41 c 128,-1,11
 126 87 126 87 126 158 c 0,0,1
196 153 m 0,12,13
 196 114 196 114 214 85 c 128,-1,14
 232 56 232 56 269 56 c 0,15,16
 326 56 326 56 380.5 124 c 128,-1,17
 435 192 435 192 435 277 c 0,18,19
 435 321 435 321 414.5 347.5 c 128,-1,20
 394 374 394 374 361 374 c 0,21,22
 304 374 304 374 250 305.5 c 128,-1,23
 196 237 196 237 196 153 c 0,12,13
EndSplineSet
EndChar

StartChar: p
Encoding: 112 112 83
Width: 525
GlyphClass: 2
Flags: W
ItalicCorrection: 173
AnchorPoint: "Anchor-5" 394 436 basechar 0
AnchorPoint: "Anchor-4" 229 -222 basechar 0
AnchorPoint: "Anchor-3" 678 611 basechar 0
AnchorPoint: "Anchor-2" 469 -222 basechar 0
LayerCount: 2
Fore
SplineSet
10 -193 m 0,0,1
 10 -160 10 -160 47 -160 c 2,2,-1
 88 -160 l 1,3,-1
 100 -110 l 1,4,-1
 209 327 l 2,5,6
 212 336 212 336 212 346 c 0,7,8
 212 373 212 373 192 373 c 0,9,10
 170 373 170 373 152 301 c 0,11,12
 151 299 151 299 150 293 c 128,-1,13
 149 287 149 287 148 284.5 c 128,-1,14
 147 282 147 282 145 277 c 128,-1,15
 143 272 143 272 140.5 269.5 c 128,-1,16
 138 267 138 267 134.5 264 c 128,-1,17
 131 261 131 261 125.5 260 c 128,-1,18
 120 259 120 259 113 259 c 0,19,20
 79 259 79 259 79 288 c 0,21,22
 79 296 79 296 85 317.5 c 128,-1,23
 91 339 91 339 102.5 367 c 128,-1,24
 114 395 114 395 138.5 415.5 c 128,-1,25
 163 436 163 436 193 436 c 0,26,27
 247 436 247 436 274 383 c 1,28,29
 332 436 332 436 388 436 c 0,30,31
 441 436 441 436 473.5 393 c 128,-1,32
 506 350 506 350 506 283 c 0,33,34
 506 178 506 178 439.5 86.5 c 128,-1,35
 373 -5 373 -5 292 -5 c 0,36,37
 246 -5 246 -5 208 35 c 1,38,-1
 159 -160 l 1,39,-1
 203 -160 l 2,40,41
 221 -160 221 -160 229 -164 c 0,42,43
 244 -173 244 -173 244 -189 c 0,44,45
 244 -222 244 -222 207 -222 c 2,46,-1
 47 -222 l 2,47,48
 10 -222 10 -222 10 -193 c 0,0,1
243 145 m 0,49,50
 243 112 243 112 255 84.5 c 128,-1,51
 267 57 267 57 294 57 c 0,52,53
 341 57 341 57 388.5 131 c 128,-1,54
 436 205 436 205 436 285 c 0,55,56
 436 327 436 327 422 350.5 c 128,-1,57
 408 374 408 374 385 374 c 0,58,59
 337 374 337 374 290 298.5 c 128,-1,60
 243 223 243 223 243 145 c 0,49,50
EndSplineSet
EndChar

StartChar: q
Encoding: 113 113 84
Width: 525
GlyphClass: 2
Flags: W
ItalicCorrection: 173
AnchorPoint: "Anchor-5" 370 436 basechar 0
AnchorPoint: "Anchor-4" 205 -222 basechar 0
AnchorPoint: "Anchor-3" 678 611 basechar 0
AnchorPoint: "Anchor-2" 469 -222 basechar 0
LayerCount: 2
Fore
SplineSet
135 154 m 0,0,1
 135 259 135 259 206.5 347.5 c 128,-1,2
 278 436 278 436 364 436 c 0,3,4
 426 436 426 436 466 383 c 1,5,6
 483 425 483 425 495 432 c 0,7,8
 501 435 501 435 508 435 c 0,9,10
 520 435 520 435 528 426.5 c 128,-1,11
 536 418 536 418 536 407 c 2,12,-1
 533 392 l 1,13,-1
 395 -160 l 1,14,-1
 448 -160 l 2,15,16
 470 -160 470 -160 477 -164 c 0,17,18
 492 -173 492 -173 492 -189 c 0,19,20
 492 -195 492 -195 490 -201.5 c 128,-1,21
 488 -208 488 -208 479.5 -215 c 128,-1,22
 471 -222 471 -222 456 -222 c 2,23,-1
 247 -222 l 2,24,25
 212 -222 212 -222 212 -193 c 0,26,27
 212 -160 212 -160 247 -160 c 2,28,-1
 324 -160 l 1,29,-1
 372 32 l 1,30,31
 316 -5 316 -5 268 -5 c 0,32,33
 209 -5 209 -5 172 39.5 c 128,-1,34
 135 84 135 84 135 154 c 0,0,1
205 152 m 0,35,36
 205 109 205 109 222.5 82.5 c 128,-1,37
 240 56 240 56 269 56 c 0,38,39
 322 56 322 56 374.5 126 c 128,-1,40
 427 196 427 196 427 280 c 0,41,42
 427 321 427 321 409.5 347.5 c 128,-1,43
 392 374 392 374 362 374 c 0,44,45
 308 374 308 374 256.5 303 c 128,-1,46
 205 232 205 232 205 152 c 0,35,36
EndSplineSet
EndChar

StartChar: r
Encoding: 114 114 85
Width: 525
GlyphClass: 2
Flags: W
ItalicCorrection: 173
AnchorPoint: "Anchor-5" 331 436 basechar 0
AnchorPoint: "Anchor-4" 200 0 basechar 0
AnchorPoint: "Anchor-3" 678 611 basechar 0
AnchorPoint: "Anchor-2" 469 -222 basechar 0
LayerCount: 2
Fore
SplineSet
93 287 m 0,0,1
 93 293 93 293 99 314 c 128,-1,2
 105 335 105 335 117.5 363.5 c 128,-1,3
 130 392 130 392 156 414 c 128,-1,4
 182 436 182 436 214 436 c 0,5,6
 245 436 245 436 269.5 420 c 128,-1,7
 294 404 294 404 304 378 c 1,8,9
 362 436 362 436 435 436 c 0,10,11
 498 436 498 436 538 408 c 128,-1,12
 578 380 578 380 578 334 c 0,13,14
 578 302 578 302 562.5 287 c 128,-1,15
 547 272 547 272 528 272 c 0,16,17
 510 272 510 272 498.5 284 c 128,-1,18
 487 296 487 296 487 312 c 0,19,20
 487 333 487 333 504 350 c 1,21,22
 477 374 477 374 434 374 c 0,23,24
 385 374 385 374 345.5 322 c 128,-1,25
 306 270 306 270 286.5 209 c 128,-1,26
 267 148 267 148 251 85 c 128,-1,27
 235 22 235 22 231 15 c 0,28,29
 220 -5 220 -5 199 -5 c 0,30,31
 174 -5 174 -5 167 19 c 0,32,33
 164 27 164 27 169 47 c 2,34,-1
 238 323 l 2,35,36
 241 335 241 335 241 343 c 0,37,38
 241 356 241 356 233 364.5 c 128,-1,39
 225 373 225 373 214 373 c 0,40,41
 205 373 205 373 196 368 c 1,42,43
 182 348 182 348 174 325 c 128,-1,44
 166 302 166 302 164 289 c 128,-1,45
 162 276 162 276 153 267.5 c 128,-1,46
 144 259 144 259 126 259 c 0,47,48
 93 259 93 259 93 287 c 0,0,1
EndSplineSet
EndChar

StartChar: s
Encoding: 115 115 86
Width: 525
GlyphClass: 2
Flags: W
ItalicCorrection: 173
AnchorPoint: "Anchor-5" 364 436 basechar 0
AnchorPoint: "Anchor-4" 271 0 basechar 0
AnchorPoint: "Anchor-3" 678 611 basechar 0
AnchorPoint: "Anchor-2" 469 -222 basechar 0
LayerCount: 2
Fore
SplineSet
97 91 m 0,0,1
 97 122 97 122 113 137 c 128,-1,2
 129 152 129 152 148 152 c 0,3,4
 164 152 164 152 176.5 140.5 c 128,-1,5
 189 129 189 129 189 112 c 0,6,7
 189 97 189 97 174 77 c 1,8,9
 208 56 208 56 269 56 c 0,10,11
 351 56 351 56 386.5 85 c 128,-1,12
 422 114 422 114 422 144 c 0,13,14
 422 166 422 166 396.5 178.5 c 128,-1,15
 371 191 371 191 322 199.5 c 128,-1,16
 273 208 273 208 266 210 c 0,17,18
 232 219 232 219 207 242.5 c 128,-1,19
 182 266 182 266 182 303 c 0,20,21
 182 352 182 352 227 394 c 128,-1,22
 272 436 272 436 364 436 c 0,23,24
 421 436 421 436 463 416 c 128,-1,25
 505 396 505 396 505 349 c 0,26,27
 505 324 505 324 491 309 c 128,-1,28
 477 294 477 294 457 294 c 0,29,30
 441 294 441 294 429.5 304.5 c 128,-1,31
 418 315 418 315 418 332 c 0,32,33
 418 343 418 343 428 360 c 1,34,35
 400 374 400 374 361 374 c 0,36,37
 301 374 301 374 272.5 351.5 c 128,-1,38
 244 329 244 329 244 305 c 0,39,40
 244 278 244 278 303 265 c 0,41,42
 309 264 309 264 353 256 c 0,43,44
 428 243 428 243 456 211.5 c 128,-1,45
 484 180 484 180 484 145 c 0,46,47
 484 90 484 90 431 42.5 c 128,-1,48
 378 -5 378 -5 270 -5 c 0,49,50
 97 -5 97 -5 97 91 c 0,0,1
EndSplineSet
EndChar

StartChar: t
Encoding: 116 116 87
Width: 525
GlyphClass: 2
Flags: W
ItalicCorrection: 173
AnchorPoint: "Anchor-5" 372 616 basechar 0
AnchorPoint: "Anchor-4" 278 0 basechar 0
AnchorPoint: "Anchor-3" 678 611 basechar 0
AnchorPoint: "Anchor-2" 469 -222 basechar 0
LayerCount: 2
Fore
SplineSet
156 397 m 0,0,1
 156 430 156 430 192 430 c 2,2,-1
 290 430 l 1,3,4
 297 460 297 460 308 506 c 0,5,6
 325 579 325 579 334 597.5 c 128,-1,7
 343 616 343 616 365 616 c 0,8,9
 378 616 378 616 388 606.5 c 128,-1,10
 398 597 398 597 398 583 c 0,11,12
 398 576 398 576 392.5 552.5 c 128,-1,13
 387 529 387 529 377 491.5 c 128,-1,14
 367 454 367 454 362 430 c 1,15,-1
 445 430 l 2,16,17
 480 430 480 430 480 402 c 0,18,19
 480 369 480 369 443 369 c 2,20,-1
 346 369 l 1,21,22
 342 349 342 349 324.5 280.5 c 128,-1,23
 307 212 307 212 292.5 154 c 128,-1,24
 278 96 278 96 278 89 c 0,25,26
 278 75 278 75 288 65.5 c 128,-1,27
 298 56 298 56 314 56 c 0,28,29
 346 56 346 56 376 82 c 128,-1,30
 406 108 406 108 423 145 c 0,31,32
 430 160 430 160 436.5 166 c 128,-1,33
 443 172 443 172 457 172 c 2,34,-1
 458 172 l 2,35,36
 494 172 494 172 494 144 c 0,37,38
 494 111 494 111 439.5 53 c 128,-1,39
 385 -5 385 -5 312 -5 c 0,40,41
 267 -5 267 -5 237.5 21 c 128,-1,42
 208 47 208 47 208 89 c 0,43,44
 208 90 208 90 208 91 c 0,45,46
 208 105 208 105 245 253 c 0,47,48
 262 323 262 323 274 369 c 1,49,-1
 190 369 l 2,50,51
 156 369 156 369 156 397 c 0,0,1
EndSplineSet
EndChar

StartChar: u
Encoding: 117 117 88
Width: 525
GlyphClass: 2
Flags: W
ItalicCorrection: 173
AnchorPoint: "Anchor-5" 371 436 basechar 0
AnchorPoint: "Anchor-4" 262 0 basechar 0
AnchorPoint: "Anchor-3" 678 611 basechar 0
AnchorPoint: "Anchor-2" 469 -222 basechar 0
AnchorPoint: "Anchor-1" 442 0 basechar 0
LayerCount: 2
Fore
SplineSet
79 287 m 0,0,1
 79 302 79 302 92 335 c 128,-1,2
 105 368 105 368 138 402 c 128,-1,3
 171 436 171 436 213 436 c 0,4,5
 248 436 248 436 269 412.5 c 128,-1,6
 290 389 290 389 290 354 c 0,7,8
 290 332 290 332 259 243.5 c 128,-1,9
 228 155 228 155 228 113 c 0,10,11
 228 56 228 56 269 56 c 0,12,13
 296 56 296 56 318 77 c 128,-1,14
 340 98 340 98 356.5 138 c 128,-1,15
 373 178 373 178 380.5 203.5 c 128,-1,16
 388 229 388 229 398 271 c 0,17,18
 402 288 402 288 407 308.5 c 128,-1,19
 412 329 412 329 415 341 c 128,-1,20
 418 353 418 353 421.5 367 c 128,-1,21
 425 381 425 381 427 388.5 c 128,-1,22
 429 396 429 396 432.5 404.5 c 128,-1,23
 436 413 436 413 439 416.5 c 128,-1,24
 442 420 442 420 446.5 424 c 128,-1,25
 451 428 451 428 456 429 c 128,-1,26
 461 430 461 430 467 430 c 0,27,28
 479 430 479 430 489 421 c 128,-1,29
 499 412 499 412 500 398 c 0,30,31
 500 390 500 390 496 374 c 2,32,-1
 430 111 l 2,33,34
 425 94 425 94 425 82 c 128,-1,35
 425 70 425 70 430.5 63.5 c 128,-1,36
 436 57 436 57 441 57 c 0,37,38
 460 57 460 57 479 130 c 0,39,40
 480 132 480 132 481.5 138.5 c 128,-1,41
 483 145 483 145 484 148.5 c 128,-1,42
 485 152 485 152 487.5 157 c 128,-1,43
 490 162 490 162 493.5 165 c 128,-1,44
 497 168 497 168 503 170 c 128,-1,45
 509 172 509 172 516 172 c 2,46,-1
 520 172 l 2,47,48
 553 172 553 172 553 143 c 0,49,50
 553 140 553 140 550.5 126.5 c 128,-1,51
 548 113 548 113 540 90 c 128,-1,52
 532 67 532 67 520 46 c 128,-1,53
 508 25 508 25 487.5 10 c 128,-1,54
 467 -5 467 -5 441 -5 c 0,55,56
 391 -5 391 -5 367 38 c 1,57,58
 322 -5 322 -5 268 -5 c 0,59,60
 226 -5 226 -5 192 22.5 c 128,-1,61
 158 50 158 50 158 114 c 0,62,63
 158 165 158 165 189.5 256 c 128,-1,64
 221 347 221 347 221 356 c 0,65,66
 221 373 221 373 209 373 c 0,67,68
 193 373 193 373 174 346 c 0,69,70
 162 327 162 327 154.5 302.5 c 128,-1,71
 147 278 147 278 140 268.5 c 128,-1,72
 133 259 133 259 113 259 c 0,73,74
 79 259 79 259 79 287 c 0,0,1
EndSplineSet
EndChar

StartChar: v
Encoding: 118 118 89
Width: 525
GlyphClass: 2
Flags: W
ItalicCorrection: 173
AnchorPoint: "Anchor-5" 354 436 basechar 0
AnchorPoint: "Anchor-4" 321 0 basechar 0
AnchorPoint: "Anchor-3" 678 611 basechar 0
AnchorPoint: "Anchor-2" 469 -222 basechar 0
LayerCount: 2
Fore
SplineSet
79 287 m 0,0,1
 79 299 79 299 89 322.5 c 128,-1,2
 99 346 99 346 116 372 c 128,-1,3
 133 398 133 398 163 417 c 128,-1,4
 193 436 193 436 226 436 c 0,5,6
 264 436 264 436 289 412 c 128,-1,7
 314 388 314 388 314 349 c 0,8,9
 314 330 314 330 283 247 c 128,-1,10
 252 164 252 164 252 124 c 0,11,12
 252 56 252 56 322 56 c 0,13,14
 344 56 344 56 371 78 c 1,15,16
 387 97 387 97 396.5 112 c 128,-1,17
 406 127 406 127 420.5 166 c 128,-1,18
 435 205 435 205 450 265 c 128,-1,19
 465 325 465 325 465 354 c 0,20,21
 465 369 465 369 461.5 381.5 c 128,-1,22
 458 394 458 394 458 399 c 0,23,24
 458 413 458 413 469 424 c 128,-1,25
 480 435 480 435 495 435 c 0,26,27
 536 435 536 435 536 357 c 0,28,29
 536 329 536 329 524.5 275.5 c 128,-1,30
 513 222 513 222 490 156 c 128,-1,31
 467 90 467 90 422 42.5 c 128,-1,32
 377 -5 377 -5 320 -5 c 0,33,34
 297 -5 297 -5 275 1 c 128,-1,35
 253 7 253 7 231 20.5 c 128,-1,36
 209 34 209 34 195.5 61 c 128,-1,37
 182 88 182 88 182 125 c 0,38,39
 182 173 182 173 213 258.5 c 128,-1,40
 244 344 244 344 244 351 c 0,41,42
 244 374 244 374 224 374 c 0,43,44
 210 374 210 374 197 364 c 0,45,46
 178 350 178 350 167 330.5 c 128,-1,47
 156 311 156 311 153 296 c 128,-1,48
 150 281 150 281 141 270 c 128,-1,49
 132 259 132 259 116 259 c 2,50,-1
 114 259 l 2,51,52
 79 259 79 259 79 287 c 0,0,1
EndSplineSet
EndChar

StartChar: w
Encoding: 119 119 90
Width: 525
GlyphClass: 2
Flags: W
ItalicCorrection: 173
AnchorPoint: "Anchor-5" 393 436 basechar 0
AnchorPoint: "Anchor-4" 312 0 basechar 0
AnchorPoint: "Anchor-3" 678 611 basechar 0
AnchorPoint: "Anchor-2" 469 -222 basechar 0
LayerCount: 2
Fore
SplineSet
96 118 m 0,0,1
 96 169 96 169 124.5 243 c 128,-1,2
 153 317 153 317 153 338 c 0,3,4
 153 344 153 344 152.5 348.5 c 128,-1,5
 152 353 152 353 150 356.5 c 128,-1,6
 148 360 148 360 147 362 c 128,-1,7
 146 364 146 364 143 365.5 c 128,-1,8
 140 367 140 367 139 367.5 c 128,-1,9
 138 368 138 368 134 369 c 2,10,-1
 129 370 l 2,11,12
 107 374 107 374 107 399 c 0,13,14
 107 412 107 412 115.5 421 c 128,-1,15
 124 430 124 430 139 430 c 0,16,17
 166 430 166 430 188.5 409 c 128,-1,18
 211 388 211 388 211 344 c 0,19,20
 211 308 211 308 182 235 c 128,-1,21
 153 162 153 162 153 122 c 0,22,23
 153 58 153 58 216 56 c 0,24,25
 254 56 254 56 277.5 116.5 c 128,-1,26
 301 177 301 177 342 342 c 0,27,28
 351 380 351 380 356 400 c 0,29,30
 364 430 364 430 386 430 c 0,31,32
 398 430 398 430 406 421 c 128,-1,33
 414 412 414 412 414 403 c 0,34,35
 414 391 414 391 382 269.5 c 128,-1,36
 350 148 350 148 350 119 c 0,37,38
 350 56 350 56 407 56 c 0,39,40
 440 56 440 56 463 103 c 128,-1,41
 486 150 486 150 507 234 c 0,42,43
 526 307 526 307 526 339 c 0,44,45
 526 359 526 359 519.5 376 c 128,-1,46
 513 393 513 393 513 400 c 0,47,48
 513 415 513 415 524.5 425 c 128,-1,49
 536 435 536 435 550 435 c 0,50,51
 589 435 589 435 589 368 c 0,52,53
 589 327 589 327 564 227 c 128,-1,54
 539 127 539 127 515 78 c 0,55,56
 474 -5 474 -5 406 -5 c 0,57,58
 337 -5 337 -5 307 50 c 1,59,60
 269 -5 269 -5 215 -5 c 0,61,62
 170 -5 170 -5 133 23.5 c 128,-1,63
 96 52 96 52 96 118 c 0,0,1
EndSplineSet
EndChar

StartChar: x
Encoding: 120 120 91
Width: 525
GlyphClass: 2
Flags: W
ItalicCorrection: 173
AnchorPoint: "Anchor-5" 371 436 basechar 0
AnchorPoint: "Anchor-4" 262 0 basechar 0
AnchorPoint: "Anchor-3" 678 611 basechar 0
AnchorPoint: "Anchor-2" 469 -222 basechar 0
LayerCount: 2
Fore
SplineSet
79 287 m 0,0,1
 79 326 79 326 130 381 c 128,-1,2
 181 436 181 436 253 436 c 0,3,4
 312 436 312 436 346 394 c 1,5,-1
 347 394 l 1,6,7
 392 436 392 436 449 436 c 0,8,9
 494 436 494 436 522.5 408 c 128,-1,10
 551 380 551 380 551 338 c 0,11,12
 551 303 551 303 535 287.5 c 128,-1,13
 519 272 519 272 500 272 c 0,14,15
 483 272 483 272 471 283 c 128,-1,16
 459 294 459 294 459 312 c 0,17,18
 459 337 459 337 479 352 c 1,19,20
 468 374 468 374 448 374 c 0,21,22
 427 374 427 374 407.5 358.5 c 128,-1,23
 388 343 388 343 379 321 c 0,24,25
 376 316 376 316 352.5 221 c 128,-1,26
 329 126 329 126 329 112 c 0,27,28
 329 87 329 87 342.5 71.5 c 128,-1,29
 356 56 356 56 379 56 c 0,30,31
 410 56 410 56 439 80.5 c 128,-1,32
 468 105 468 105 481 140 c 1,33,-1
 482 145 l 2,34,35
 484 150 484 150 485 152 c 128,-1,36
 486 154 486 154 489 158.5 c 128,-1,37
 492 163 492 163 495 165.5 c 128,-1,38
 498 168 498 168 503.5 170 c 128,-1,39
 509 172 509 172 515 172 c 2,40,-1
 518 172 l 2,41,42
 553 172 553 172 553 143 c 0,43,44
 553 104 553 104 501 49.5 c 128,-1,45
 449 -5 449 -5 378 -5 c 0,46,47
 319 -5 319 -5 285 37 c 1,48,49
 240 -5 240 -5 182 -5 c 0,50,51
 139 -5 139 -5 110 22 c 128,-1,52
 81 49 81 49 81 92 c 0,53,54
 81 127 81 127 96.5 142.5 c 128,-1,55
 112 158 112 158 132 158 c 0,56,57
 150 158 150 158 161.5 145.5 c 128,-1,58
 173 133 173 133 173 117 c 0,59,60
 173 95 173 95 153 79 c 1,61,62
 162 57 162 57 184 57 c 0,63,64
 204 57 204 57 224 72 c 128,-1,65
 244 87 244 87 252 109 c 0,66,67
 255 116 255 116 278.5 210 c 128,-1,68
 302 304 302 304 302 318 c 0,69,70
 302 341 302 341 289 357.5 c 128,-1,71
 276 374 276 374 252 374 c 0,72,73
 222 374 222 374 193 350 c 128,-1,74
 164 326 164 326 151 291 c 0,75,76
 146 277 146 277 143.5 272.5 c 128,-1,77
 141 268 141 268 133 263.5 c 128,-1,78
 125 259 125 259 112 259 c 0,79,80
 79 259 79 259 79 287 c 0,0,1
EndSplineSet
EndChar

StartChar: y
Encoding: 121 121 92
Width: 525
GlyphClass: 2
Flags: W
ItalicCorrection: 173
AnchorPoint: "Anchor-5" 397 436 basechar 0
AnchorPoint: "Anchor-4" 188 -222 basechar 0
AnchorPoint: "Anchor-3" 678 611 basechar 0
AnchorPoint: "Anchor-2" 469 -222 basechar 0
LayerCount: 2
Fore
SplineSet
79 287 m 0,0,1
 79 298 79 298 88.5 321 c 128,-1,2
 98 344 98 344 114 370.5 c 128,-1,3
 130 397 130 397 159 416.5 c 128,-1,4
 188 436 188 436 221 436 c 0,5,6
 258 436 258 436 281.5 411.5 c 128,-1,7
 305 387 305 387 305 351 c 0,8,9
 305 330 305 330 273.5 245 c 128,-1,10
 242 160 242 160 242 117 c 0,11,12
 242 56 242 56 294 56 c 0,13,14
 337 56 337 56 371.5 106.5 c 128,-1,15
 406 157 406 157 422 217 c 128,-1,16
 438 277 438 277 452.5 339 c 128,-1,17
 467 401 467 401 473 411 c 0,18,19
 485 430 485 430 505 430 c 0,20,21
 518 430 518 430 528 420.5 c 128,-1,22
 538 411 538 411 538 397 c 0,23,24
 538 388 538 388 534 374 c 2,25,-1
 443 12 l 2,26,27
 424 -61 424 -61 392 -112.5 c 128,-1,28
 360 -164 360 -164 324.5 -186.5 c 128,-1,29
 289 -209 289 -209 262 -218 c 128,-1,30
 235 -227 235 -227 213 -227 c 0,31,32
 168 -227 168 -227 138.5 -200.5 c 128,-1,33
 109 -174 109 -174 109 -131 c 0,34,35
 109 -100 109 -100 124.5 -83.5 c 128,-1,36
 140 -67 140 -67 161 -67 c 0,37,38
 178 -67 178 -67 189.5 -77.5 c 128,-1,39
 201 -88 201 -88 201 -107 c 0,40,41
 201 -129 201 -129 182 -146 c 1,42,43
 193 -166 193 -166 218 -166 c 0,44,45
 263 -166 263 -166 308.5 -114.5 c 128,-1,46
 354 -63 354 -63 373 19 c 1,47,48
 332 -5 332 -5 293 -5 c 0,49,50
 247 -5 247 -5 209.5 24 c 128,-1,51
 172 53 172 53 172 119 c 0,52,53
 172 169 172 169 203.5 257.5 c 128,-1,54
 235 346 235 346 235 353 c 0,55,56
 235 373 235 373 218 373 c 0,57,58
 202 373 202 373 185 355 c 0,59,60
 170 339 170 339 161.5 319.5 c 128,-1,61
 153 300 153 300 150 288 c 128,-1,62
 147 276 147 276 139 267.5 c 128,-1,63
 131 259 131 259 116 259 c 2,64,-1
 113 259 l 2,65,66
 79 259 79 259 79 287 c 0,0,1
EndSplineSet
EndChar

StartChar: z
Encoding: 122 122 93
Width: 525
GlyphClass: 2
Flags: W
ItalicCorrection: 173
AnchorPoint: "Anchor-5" 399 436 basechar 0
AnchorPoint: "Anchor-4" 290 0 basechar 0
AnchorPoint: "Anchor-3" 678 611 basechar 0
AnchorPoint: "Anchor-2" 469 -222 basechar 0
LayerCount: 2
Fore
SplineSet
95 23 m 128,-1,1
 95 34 95 34 105 47 c 0,2,3
 136 96 136 96 185.5 145.5 c 128,-1,4
 235 195 235 195 299.5 250 c 128,-1,5
 364 305 364 305 392 332 c 1,6,7
 379 337 379 337 351 351 c 128,-1,8
 323 365 323 365 306 365 c 0,9,10
 285 365 285 365 265.5 349 c 128,-1,11
 246 333 246 333 237 308 c 2,12,-1
 235 302 l 2,13,14
 233 297 233 297 231.5 294.5 c 128,-1,15
 230 292 230 292 226.5 287.5 c 128,-1,16
 223 283 223 283 217.5 281 c 128,-1,17
 212 279 212 279 204 279 c 2,18,-1
 200 279 l 2,19,20
 167 279 167 279 167 307 c 0,21,22
 167 343 167 343 209 389.5 c 128,-1,23
 251 436 251 436 309 436 c 0,24,25
 343 436 343 436 380.5 411.5 c 128,-1,26
 418 387 418 387 429 387 c 128,-1,27
 440 387 440 387 447.5 399.5 c 128,-1,28
 455 412 455 412 466 424 c 128,-1,29
 477 436 477 436 495 436 c 2,30,-1
 496 436 l 2,31,32
 513 436 513 436 521 427 c 128,-1,33
 529 418 529 418 529 407 c 0,34,35
 529 389 529 389 488.5 338.5 c 128,-1,36
 448 288 448 288 370 221 c 2,37,-1
 285 148 l 1,38,-1
 239 105 l 1,39,40
 263 102 263 102 300.5 83.5 c 128,-1,41
 338 65 338 65 357 65 c 0,42,43
 382 65 382 65 409 87 c 0,44,45
 430 104 430 104 442.5 124.5 c 128,-1,46
 455 145 455 145 458 158 c 128,-1,47
 461 171 461 171 469.5 180.5 c 128,-1,48
 478 190 478 190 494 190 c 2,49,-1
 499 190 l 2,50,51
 516 190 516 190 523 181 c 128,-1,52
 530 172 530 172 530 162 c 0,53,54
 530 139 530 139 509.5 101.5 c 128,-1,55
 489 64 489 64 445.5 29.5 c 128,-1,56
 402 -5 402 -5 352 -5 c 0,57,58
 318 -5 318 -5 280 19.5 c 128,-1,59
 242 44 242 44 223 44 c 128,-1,60
 204 44 204 44 190.5 36.5 c 128,-1,61
 177 29 177 29 171 19.5 c 128,-1,62
 165 10 165 10 154.5 2.5 c 128,-1,63
 144 -5 144 -5 129 -5 c 2,64,-1
 128 -5 l 2,65,66
 111 -5 111 -5 103 3.5 c 128,-1,0
 95 12 95 12 95 23 c 128,-1,1
EndSplineSet
EndChar

StartChar: braceleft
Encoding: 123 123 94
Width: 525
GlyphClass: 2
Flags: W
ItalicCorrection: 173
LayerCount: 2
Fore
SplineSet
160 303 m 0,0,1
 160 330 160 330 183 335 c 2,2,3
 183 335 183 335 191 336 c 0,4,5
 199 336 199 336 209.5 337 c 128,-1,6
 220 338 220 338 233.5 340 c 128,-1,7
 247 342 247 342 260.5 346.5 c 128,-1,8
 274 351 274 351 287 357.5 c 128,-1,9
 300 364 300 364 310 374 c 128,-1,10
 320 384 320 384 325 397 c 0,11,12
 328 405 328 405 350.5 497 c 128,-1,13
 373 589 373 589 380 605 c 0,14,15
 395 635 395 635 424 655.5 c 128,-1,16
 453 676 453 676 487.5 683 c 128,-1,17
 522 690 522 690 539.5 692 c 128,-1,18
 557 694 557 694 571 694 c 0,19,20
 590 694 590 694 598 684.5 c 128,-1,21
 606 675 606 675 606 665 c 0,22,23
 606 646 606 646 589 636 c 0,24,25
 586 635 586 635 556 632 c 128,-1,26
 526 629 526 629 494.5 618.5 c 128,-1,27
 463 608 463 608 448 585 c 0,28,29
 442 577 442 577 398 400 c 0,30,31
 382 333 382 333 316 302 c 1,32,33
 353 271 353 271 353 232 c 0,34,35
 353 218 353 218 328.5 121.5 c 128,-1,36
 304 25 304 25 304 19 c 0,37,38
 304 0 304 0 327 -9.5 c 128,-1,39
 350 -19 350 -19 380 -22 c 2,40,-1
 409 -24 l 1,41,42
 427 -31 427 -31 427 -51 c 0,43,44
 427 -57 427 -57 425 -63.5 c 128,-1,45
 423 -70 423 -70 414.5 -76.5 c 128,-1,46
 406 -83 406 -83 391 -83 c 0,47,48
 329 -83 329 -83 281.5 -59.5 c 128,-1,49
 234 -36 234 -36 234 17 c 0,50,51
 234 34 234 34 258 129 c 128,-1,52
 282 224 282 224 282 231 c 0,53,54
 282 248 282 248 260 260 c 0,55,56
 246 268 246 268 226 271 c 128,-1,57
 206 274 206 274 192.5 274.5 c 128,-1,58
 179 275 179 275 169.5 281.5 c 128,-1,59
 160 288 160 288 160 303 c 0,0,1
EndSplineSet
EndChar

StartChar: bar
Encoding: 124 124 95
Width: 525
GlyphClass: 2
Flags: W
ItalicCorrection: 173
LayerCount: 2
Fore
SplineSet
215 -49 m 0,0,1
 215 -42 215 -42 219 -28 c 2,2,-1
 390 657 l 2,3,4
 399 694 399 694 427 694 c 0,5,6
 441 694 441 694 451 683.5 c 128,-1,7
 461 673 461 673 461 659 c 0,8,9
 461 656 461 656 459.5 650 c 128,-1,10
 458 644 458 644 458 643 c 2,11,-1
 287 -44 l 2,12,13
 279 -83 279 -83 250 -83 c 0,14,15
 236 -83 236 -83 225.5 -73.5 c 128,-1,16
 215 -64 215 -64 215 -49 c 0,0,1
EndSplineSet
EndChar

StartChar: braceright
Encoding: 125 125 96
Width: 525
GlyphClass: 2
Flags: W
ItalicCorrection: 173
LayerCount: 2
Fore
SplineSet
71 -54 m 0,0,1
 71 -31 71 -31 90 -24 c 0,2,3
 92 -23 92 -23 112.5 -21.5 c 128,-1,4
 133 -20 133 -20 154 -16.5 c 128,-1,5
 175 -13 175 -13 198 -1.5 c 128,-1,6
 221 10 221 10 231 29 c 0,7,8
 235 35 235 35 278 211 c 0,9,10
 284 234 284 234 294 252 c 128,-1,11
 304 270 304 270 318.5 281.5 c 128,-1,12
 333 293 333 293 339.5 297.5 c 128,-1,13
 346 302 346 302 360 309 c 1,14,15
 324 337 324 337 324 380 c 0,16,17
 324 397 324 397 348 491 c 128,-1,18
 372 585 372 585 372 591 c 0,19,20
 372 608 372 608 351 619 c 0,21,22
 334 627 334 627 306 629.5 c 128,-1,23
 278 632 278 632 263.5 637.5 c 128,-1,24
 249 643 249 643 249 662 c 0,25,26
 249 694 249 694 287 694 c 0,27,28
 345 694 345 694 394 670.5 c 128,-1,29
 443 647 443 647 443 594 c 0,30,31
 443 577 443 577 418.5 482 c 128,-1,32
 394 387 394 387 394 380 c 0,33,34
 394 365 394 365 409.5 354.5 c 128,-1,35
 425 344 425 344 442.5 341 c 128,-1,36
 460 338 460 338 478 336 c 128,-1,37
 496 334 496 334 497 334 c 0,38,39
 516 327 516 327 516 307 c 0,40,41
 516 282 516 282 495 276 c 0,42,43
 494 276 494 276 463 273.5 c 128,-1,44
 432 271 432 271 403 259 c 0,45,46
 382 250 382 250 369.5 237.5 c 128,-1,47
 357 225 357 225 353.5 216.5 c 128,-1,48
 350 208 350 208 346 192 c 0,49,50
 301 15 301 15 298 8 c 0,51,52
 284 -22 284 -22 255.5 -42.5 c 128,-1,53
 227 -63 227 -63 193.5 -70.5 c 128,-1,54
 160 -78 160 -78 141 -80.5 c 128,-1,55
 122 -83 122 -83 108 -83 c 2,56,-1
 106 -83 l 2,57,58
 71 -83 71 -83 71 -54 c 0,0,1
EndSplineSet
EndChar

StartChar: asciitilde
Encoding: 126 126 97
Width: 525
GlyphClass: 2
Flags: W
ItalicCorrection: 173
LayerCount: 2
Fore
SplineSet
233 522 m 0,0,1
 233 534 233 534 248 551 c 0,2,3
 304 611 304 611 350 611 c 0,4,5
 380 611 380 611 412 584.5 c 128,-1,6
 444 558 444 558 454 558 c 0,7,8
 471 558 471 558 497.5 584 c 128,-1,9
 524 610 524 610 536 610 c 128,-1,10
 548 610 548 610 557.5 601 c 128,-1,11
 567 592 567 592 567 580 c 0,12,13
 567 561 567 561 526.5 526 c 128,-1,14
 486 491 486 491 450 491 c 0,15,16
 421 491 421 491 388.5 517.5 c 128,-1,17
 356 544 356 544 346 544 c 0,18,19
 329 544 329 544 303 518 c 128,-1,20
 277 492 277 492 264 492 c 0,21,22
 253 492 253 492 243 500.5 c 128,-1,23
 233 509 233 509 233 522 c 0,0,1
EndSplineSet
EndChar

StartChar: exclamdown
Encoding: 161 161 99
Width: 525
GlyphClass: 2
Flags: W
ItalicCorrection: 173
LayerCount: 2
Fore
SplineSet
155 -180 m 0,0,1
 155 -175 155 -175 160 -155 c 2,2,-1
 249 155 l 2,3,4
 251 164 251 164 253.5 169 c 128,-1,5
 256 174 256 174 264 180.5 c 128,-1,6
 272 187 272 187 285 187 c 2,7,-1
 316 187 l 2,8,9
 351 187 351 187 351 158 c 0,10,11
 351 149 351 149 347 135 c 2,12,-1
 283 -170 l 2,13,14
 276 -203 276 -203 254.5 -218 c 128,-1,15
 233 -233 233 -233 211 -233 c 0,16,17
 188 -233 188 -233 171.5 -218 c 128,-1,18
 155 -203 155 -203 155 -180 c 0,0,1
280 318 m 0,19,20
 280 348 280 348 303 368.5 c 128,-1,21
 326 389 326 389 352 389 c 0,22,23
 374 389 374 389 390.5 373.5 c 128,-1,24
 407 358 407 358 407 334 c 0,25,26
 407 304 407 304 384 284 c 128,-1,27
 361 264 361 264 335 264 c 0,28,29
 311 264 311 264 295.5 279.5 c 128,-1,30
 280 295 280 295 280 318 c 0,19,20
EndSplineSet
EndChar

StartChar: cent
Encoding: 162 162 100
Width: 525
GlyphClass: 2
Flags: W
LayerCount: 2
Fore
SplineSet
120 167 m 0,0,1
 120 264 120 264 193.5 345 c 128,-1,2
 267 426 267 426 364 437 c 1,3,4
 380 508 380 508 388.5 526 c 128,-1,5
 397 544 397 544 416 544 c 0,6,7
 431 544 431 544 438.5 535 c 128,-1,8
 446 526 446 526 446 518 c 0,9,10
 446 511 446 511 443 499 c 128,-1,11
 440 487 440 487 435.5 468.5 c 128,-1,12
 431 450 431 450 428 438 c 1,13,14
 540 434 540 434 540 373 c 0,15,16
 540 351 540 351 526.5 335.5 c 128,-1,17
 513 320 513 320 491 320 c 0,18,19
 473 320 473 320 462 331.5 c 128,-1,20
 451 343 451 343 451 362 c 0,21,22
 451 371 451 371 452 375 c 1,23,-1
 412 377 l 1,24,-1
 333 60 l 1,25,26
 368 68 368 68 388 88 c 128,-1,27
 408 108 408 108 419.5 122.5 c 128,-1,28
 431 137 431 137 449 137 c 0,29,30
 485 137 485 137 485 109 c 0,31,32
 485 83 485 83 438.5 43 c 128,-1,33
 392 3 392 3 317 -4 c 1,34,35
 314 -15 314 -15 311 -28.5 c 128,-1,36
 308 -42 308 -42 306 -50 c 128,-1,37
 304 -58 304 -58 302 -67.5 c 128,-1,38
 300 -77 300 -77 298 -82 c 128,-1,39
 296 -87 296 -87 293.5 -93 c 128,-1,40
 291 -99 291 -99 289 -101.5 c 128,-1,41
 287 -104 287 -104 283.5 -106.5 c 128,-1,42
 280 -109 280 -109 275.5 -110 c 128,-1,43
 271 -111 271 -111 266 -111 c 0,44,45
 253 -111 253 -111 244 -103 c 128,-1,46
 235 -95 235 -95 235 -83 c 0,47,48
 235 -79 235 -79 254 -2 c 1,49,50
 194 10 194 10 157 55.5 c 128,-1,51
 120 101 120 101 120 167 c 0,0,1
190 168 m 0,52,53
 190 82 190 82 270 60 c 1,54,-1
 347 371 l 1,55,56
 273 347 273 347 231.5 286.5 c 128,-1,57
 190 226 190 226 190 168 c 0,52,53
EndSplineSet
EndChar

StartChar: sterling
Encoding: 163 163 101
Width: 525
GlyphClass: 2
Flags: W
ItalicCorrection: 173
LayerCount: 2
Fore
SplineSet
86 42 m 0,0,1
 86 71 86 71 109.5 96.5 c 128,-1,2
 133 122 133 122 167 122 c 0,3,4
 182 122 182 122 195 119 c 1,5,-1
 206 148 l 1,6,-1
 238 275 l 1,7,-1
 223 275 l 2,8,9
 188 275 188 275 188 303 c 0,10,11
 188 336 188 336 226 336 c 2,12,-1
 254 336 l 1,13,14
 280 451 280 451 293 490 c 0,15,16
 313 546 313 546 353 582.5 c 128,-1,17
 393 619 393 619 435 619 c 0,18,19
 464 619 464 619 487 598.5 c 128,-1,20
 510 578 510 578 510 526 c 0,21,22
 510 472 510 472 496 442 c 0,23,24
 482 414 482 414 452 414 c 0,25,26
 433 414 433 414 422 425.5 c 128,-1,27
 411 437 411 437 411 454 c 0,28,29
 411 481 411 481 438 498 c 1,30,31
 443 528 443 528 443 535 c 0,32,33
 443 556 443 556 432 556 c 0,34,35
 418 556 418 556 395.5 532.5 c 128,-1,36
 373 509 373 509 359 468 c 0,37,38
 351 442 351 442 325 336 c 1,39,-1
 354 336 l 2,40,41
 392 336 392 336 392 307 c 0,42,43
 392 275 392 275 354 275 c 2,44,-1
 310 275 l 1,45,-1
 309 274 l 1,46,47
 278 134 278 134 256 90 c 1,48,49
 306 60 306 60 324 60 c 0,50,51
 336 60 336 60 344 73.5 c 128,-1,52
 352 87 352 87 357.5 108 c 128,-1,53
 363 129 363 129 365 133 c 0,54,55
 374 151 374 151 398 151 c 0,56,57
 412 151 412 151 422 143.5 c 128,-1,58
 432 136 432 136 432 122 c 0,59,60
 432 110 432 110 422.5 82.5 c 128,-1,61
 413 55 413 55 386 25 c 128,-1,62
 359 -5 359 -5 322 -5 c 0,63,64
 282 -5 282 -5 216 36 c 1,65,66
 177 -5 177 -5 131 -5 c 0,67,68
 111 -5 111 -5 98.5 8.5 c 128,-1,69
 86 22 86 22 86 42 c 0,0,1
EndSplineSet
EndChar

StartChar: currency
Encoding: 164 164 102
Width: 525
GlyphClass: 2
Flags: W
ItalicCorrection: 173
LayerCount: 2
Fore
SplineSet
-53 -4 m 0,0,1
 -53 0 -53 0 -52 4 c 128,-1,2
 -51 8 -51 8 -50 11 c 128,-1,3
 -49 14 -49 14 -45 18 c 128,-1,4
 -41 22 -41 22 -37 25.5 c 128,-1,5
 -33 29 -33 29 -25 35.5 c 128,-1,6
 -17 42 -17 42 -9.5 48 c 128,-1,7
 -2 54 -2 54 11.5 64.5 c 128,-1,8
 25 75 25 75 37 85 c 2,9,-1
 67 110 l 1,10,11
 42 157 42 157 42 217 c 0,12,13
 42 285 42 285 73 348 c 128,-1,14
 104 411 104 411 153 457 c 1,15,-1
 153 458 l 2,16,17
 150 461 150 461 142 472.5 c 128,-1,18
 134 484 134 484 121 501 c 128,-1,19
 108 518 108 518 99 530 c 0,20,21
 87 544 87 544 87 557 c 128,-1,22
 87 570 87 570 97 580.5 c 128,-1,23
 107 591 107 591 122 591 c 0,24,25
 131 591 131 591 137.5 587.5 c 128,-1,26
 144 584 144 584 160.5 563.5 c 128,-1,27
 177 543 177 543 207 500 c 1,28,29
 307 559 307 559 394 559 c 0,30,31
 495 559 495 559 554 500 c 1,32,-1
 555 500 l 1,33,34
 654 581 654 581 666 587 c 0,35,36
 676 591 676 591 682 591 c 0,37,38
 697 591 697 591 706.5 580.5 c 128,-1,39
 716 570 716 570 716 557 c 0,40,41
 716 539 716 539 690 519 c 0,42,43
 598 445 598 445 596 444 c 1,44,45
 622 395 622 395 622 337 c 0,46,47
 622 269 622 269 590.5 206 c 128,-1,48
 559 143 559 143 510 97 c 1,49,50
 573 14 573 14 575 5 c 0,51,52
 576 2 576 2 576 -3 c 0,53,54
 576 -17 576 -17 566.5 -27.5 c 128,-1,55
 557 -38 557 -38 542 -38 c 0,56,57
 529 -38 529 -38 513.5 -22.5 c 128,-1,58
 498 -7 498 -7 456 53 c 1,59,60
 356 -5 356 -5 270 -5 c 0,61,62
 169 -5 169 -5 110 54 c 1,63,64
 3 -32 3 -32 -6 -36 c 0,65,66
 -11 -38 -11 -38 -18 -38 c 0,67,68
 -33 -38 -33 -38 -43 -27 c 128,-1,69
 -53 -16 -53 -16 -53 -4 c 0,0,1
112 217 m 0,70,71
 112 148 112 148 156.5 106 c 128,-1,72
 201 64 201 64 270 64 c 0,73,74
 376 64 376 64 464 148.5 c 128,-1,75
 552 233 552 233 552 337 c 0,76,77
 552 406 552 406 508 448 c 128,-1,78
 464 490 464 490 394 490 c 0,79,80
 287 490 287 490 199.5 405 c 128,-1,81
 112 320 112 320 112 217 c 0,70,71
EndSplineSet
EndChar

StartChar: yen
Encoding: 165 165 103
Width: 525
GlyphClass: 2
Flags: W
ItalicCorrection: 173
LayerCount: 2
Fore
SplineSet
100 189 m 0,0,1
 100 219 100 219 138 220 c 2,2,-1
 282 220 l 1,3,-1
 287 245 l 1,4,-1
 279 309 l 1,5,-1
 174 309 l 2,6,7
 156 309 156 309 147 318 c 128,-1,8
 138 327 138 327 138 339 c 0,9,10
 138 370 138 370 177 370 c 2,11,-1
 270 370 l 1,12,-1
 245 549 l 1,13,-1
 236 549 l 2,14,15
 201 549 201 549 201 578 c 0,16,17
 201 611 201 611 236 611 c 2,18,-1
 333 611 l 2,19,20
 368 611 368 611 368 582 c 0,21,22
 368 575 368 575 366 568.5 c 128,-1,23
 364 562 364 562 355 555.5 c 128,-1,24
 346 549 346 549 332 549 c 2,25,-1
 320 549 l 1,26,-1
 341 370 l 1,27,-1
 368 370 l 1,28,-1
 383 397 l 1,29,-1
 477 549 l 1,30,31
 445 550 445 550 445 578 c 0,32,33
 445 611 445 611 481 611 c 2,34,-1
 578 611 l 2,35,36
 612 611 612 611 612 582 c 0,37,38
 612 549 612 549 577 549 c 2,39,-1
 567 549 l 2,40,41
 557 549 557 549 553.5 547 c 128,-1,42
 550 545 550 545 544 535 c 2,43,-1
 438 370 l 1,44,-1
 518 370 l 2,45,46
 536 369 536 369 545.5 360.5 c 128,-1,47
 555 352 555 352 555 340 c 0,48,49
 555 309 555 309 516 309 c 2,50,-1
 399 309 l 1,51,-1
 365 255 l 1,52,-1
 359 244 l 1,53,-1
 355 232 l 1,54,-1
 352 220 l 1,55,-1
 474 220 l 2,56,57
 517 220 517 220 517 189 c 0,58,59
 517 183 517 183 515 177.5 c 128,-1,60
 513 172 513 172 504 165 c 128,-1,61
 495 158 495 158 480 158 c 2,62,-1
 336 158 l 1,63,-1
 312 62 l 1,64,-1
 325 62 l 2,65,66
 359 62 359 62 359 33 c 0,67,68
 359 0 359 0 322 0 c 2,69,-1
 214 0 l 2,70,71
 179 0 179 0 179 29 c 0,72,73
 179 62 179 62 217 62 c 2,74,-1
 242 62 l 1,75,-1
 266 158 l 1,76,-1
 145 158 l 2,77,78
 132 158 132 158 126 159 c 0,79,80
 116 161 116 161 108 169 c 128,-1,81
 100 177 100 177 100 189 c 0,0,1
EndSplineSet
EndChar

StartChar: brokenbar
Encoding: 166 166 104
Width: 525
GlyphClass: 2
Flags: W
ItalicCorrection: 173
LayerCount: 2
Fore
SplineSet
215 -48 m 0,0,1
 215 -39 215 -39 219 -27 c 2,2,-1
 284 232 l 2,3,4
 291 265 291 265 319 265 c 0,5,6
 333 265 333 265 343.5 255 c 128,-1,7
 354 245 354 245 354 230 c 0,8,9
 354 222 354 222 350 210 c 2,10,-1
 290 -32 l 2,11,12
 290 -33 290 -33 288 -42 c 128,-1,13
 286 -51 286 -51 283.5 -56 c 128,-1,14
 281 -61 281 -61 277 -68.5 c 128,-1,15
 273 -76 273 -76 266 -79.5 c 128,-1,16
 259 -83 259 -83 250 -83 c 0,17,18
 236 -83 236 -83 225.5 -73 c 128,-1,19
 215 -63 215 -63 215 -48 c 0,0,1
323 381 m 0,20,21
 323 389 323 389 327 403 c 2,22,-1
 391 661 l 2,23,24
 393 672 393 672 402 683 c 128,-1,25
 411 694 411 694 427 694 c 0,26,27
 441 694 441 694 451 684 c 128,-1,28
 461 674 461 674 461 659 c 0,29,30
 461 649 461 649 458 640 c 2,31,-1
 393 380 l 2,32,33
 384 347 384 347 357 347 c 0,34,35
 343 347 343 347 333 356.5 c 128,-1,36
 323 366 323 366 323 381 c 0,20,21
EndSplineSet
EndChar

StartChar: section
Encoding: 167 167 105
Width: 525
GlyphClass: 2
Flags: W
ItalicCorrection: 173
LayerCount: 2
Fore
SplineSet
97 -121 m 0,0,1
 97 -64 97 -64 136 -64 c 0,2,3
 150 -64 150 -64 159.5 -74.5 c 128,-1,4
 169 -85 169 -85 169 -95 c 0,5,6
 169 -98 169 -98 168 -107 c 128,-1,7
 167 -116 167 -116 167 -121 c 0,8,9
 167 -166 167 -166 215 -166 c 0,10,11
 261 -166 261 -166 301.5 -127.5 c 128,-1,12
 342 -89 342 -89 342 -48 c 0,13,14
 342 -38 342 -38 338.5 -28.5 c 128,-1,15
 335 -19 335 -19 328 -11 c 128,-1,16
 321 -3 321 -3 314.5 3 c 128,-1,17
 308 9 308 9 297 15 c 128,-1,18
 286 21 286 21 280.5 24 c 128,-1,19
 275 27 275 27 264 32 c 128,-1,20
 253 37 253 37 252 37 c 0,21,22
 214 55 214 55 185.5 89 c 128,-1,23
 157 123 157 123 157 171 c 128,-1,24
 157 219 157 219 187.5 265.5 c 128,-1,25
 218 312 218 312 264 335 c 1,26,27
 222 377 222 377 222 432 c 0,28,29
 222 500 222 500 278.5 558 c 128,-1,30
 335 616 335 616 409 616 c 0,31,32
 458 616 458 616 491.5 586.5 c 128,-1,33
 525 557 525 557 525 510 c 0,34,35
 525 479 525 479 513 466 c 128,-1,36
 501 453 501 453 485 453 c 0,37,38
 470 453 470 453 461 463 c 128,-1,39
 452 473 452 473 452 484 c 0,40,41
 452 486 452 486 453 494.5 c 128,-1,42
 454 503 454 503 454 509 c 0,43,44
 454 554 454 554 406 554 c 0,45,46
 360 554 360 554 319.5 515.5 c 128,-1,47
 279 477 279 477 279 437 c 0,48,49
 279 423 279 423 285.5 410.5 c 128,-1,50
 292 398 292 398 305.5 388 c 128,-1,51
 319 378 319 378 327.5 372.5 c 128,-1,52
 336 367 336 367 354 359 c 2,53,-1
 371 351 l 2,54,55
 417 329 417 329 441 294 c 128,-1,56
 465 259 465 259 465 218 c 0,57,58
 465 170 465 170 434.5 124 c 128,-1,59
 404 78 404 78 358 54 c 1,60,61
 400 8 400 8 400 -43 c 0,62,63
 400 -110 400 -110 343 -168.5 c 128,-1,64
 286 -227 286 -227 212 -227 c 0,65,66
 163 -227 163 -227 130 -197.5 c 128,-1,67
 97 -168 97 -168 97 -121 c 0,0,1
214 176 m 0,68,69
 214 145 214 145 246.5 121 c 128,-1,70
 279 97 279 97 296 97 c 0,71,72
 327 97 327 97 367.5 133.5 c 128,-1,73
 408 170 408 170 408 213 c 0,74,75
 408 244 408 244 375.5 268 c 128,-1,76
 343 292 343 292 326 292 c 0,77,78
 295 292 295 292 254.5 255.5 c 128,-1,79
 214 219 214 219 214 176 c 0,68,69
EndSplineSet
EndChar

StartChar: copyright
Encoding: 169 169 107
Width: 525
GlyphClass: 2
Flags: W
ItalicCorrection: 173
LayerCount: 2
Fore
SplineSet
14 58 m 0,0,1
 14 210 14 210 75.5 361.5 c 128,-1,2
 137 513 137 513 234.5 609 c 128,-1,3
 332 705 332 705 430 705 c 0,4,5
 525 705 525 705 576.5 620 c 128,-1,6
 628 535 628 535 628 412 c 0,7,8
 628 266 628 266 568.5 115.5 c 128,-1,9
 509 -35 509 -35 411.5 -134 c 128,-1,10
 314 -233 314 -233 213 -233 c 0,11,12
 119 -233 119 -233 66.5 -149 c 128,-1,13
 14 -65 14 -65 14 58 c 0,0,1
84 61 m 0,14,15
 84 26 84 26 90 -9.5 c 128,-1,16
 96 -45 96 -45 109 -81.5 c 128,-1,17
 122 -118 122 -118 149 -141 c 128,-1,18
 176 -164 176 -164 212 -164 c 0,19,20
 289 -164 289 -164 370.5 -76.5 c 128,-1,21
 452 11 452 11 505.5 146 c 128,-1,22
 559 281 559 281 559 409 c 0,23,24
 559 446 559 446 553 482 c 128,-1,25
 547 518 547 518 533.5 554.5 c 128,-1,26
 520 591 520 591 493 613.5 c 128,-1,27
 466 636 466 636 430 636 c 0,28,29
 353 636 353 636 271.5 548.5 c 128,-1,30
 190 461 190 461 137 325.5 c 128,-1,31
 84 190 84 190 84 61 c 0,14,15
149 141 m 0,32,33
 149 247 149 247 214 342.5 c 128,-1,34
 279 438 279 438 359 439 c 0,35,36
 397 439 397 439 424 417 c 1,37,-1
 425 417 l 1,38,39
 442 439 442 439 461 439 c 0,40,41
 473 439 473 439 481.5 430.5 c 128,-1,42
 490 422 490 422 490 410 c 0,43,44
 490 401 490 401 466 307 c 0,45,46
 464 297 464 297 462.5 293.5 c 128,-1,47
 461 290 461 290 457.5 283 c 128,-1,48
 454 276 454 276 447 273 c 128,-1,49
 440 270 440 270 429 270 c 0,50,51
 393 270 393 270 393 301 c 0,52,53
 393 305 393 305 394 313 c 128,-1,54
 395 321 395 321 395 325 c 0,55,56
 395 377 395 377 362 377 c 0,57,58
 316 377 316 377 267 300 c 128,-1,59
 218 223 218 223 218 141 c 0,60,61
 218 109 218 109 230 80 c 128,-1,62
 242 51 242 51 268 51 c 0,63,64
 292 51 292 51 314 71 c 128,-1,65
 336 91 336 91 347 121 c 0,66,67
 347 122 347 122 348.5 125.5 c 128,-1,68
 350 129 350 129 351 132 c 128,-1,69
 352 135 352 135 355 138.5 c 128,-1,70
 358 142 358 142 361 144.5 c 128,-1,71
 364 147 364 147 369.5 149 c 128,-1,72
 375 151 375 151 381 151 c 2,73,-1
 383 151 l 2,74,75
 418 151 418 151 418 123 c 0,76,77
 418 88 418 88 373 38.5 c 128,-1,78
 328 -11 328 -11 262 -11 c 0,79,80
 211 -11 211 -11 180 31 c 128,-1,81
 149 73 149 73 149 141 c 0,32,33
EndSplineSet
EndChar

StartChar: ordfeminine
Encoding: 170 170 108
Width: 525
GlyphClass: 2
Flags: W
ItalicCorrection: 173
LayerCount: 2
Fore
SplineSet
40 247 m 0,0,1
 40 278 40 278 80 278 c 2,2,-1
 420 278 l 2,3,4
 460 278 460 278 460 247 c 0,5,6
 460 241 460 241 457.5 235 c 128,-1,7
 455 229 455 229 446 222.5 c 128,-1,8
 437 216 437 216 421 216 c 2,9,-1
 77 216 l 2,10,11
 56 217 56 217 48 227 c 128,-1,12
 40 237 40 237 40 247 c 0,0,1
126 474 m 0,13,14
 126 558 126 558 184.5 628.5 c 128,-1,15
 243 699 243 699 315 699 c 2,16,-1
 316 699 l 2,17,18
 358 699 358 699 390 669 c 1,19,20
 405 687 405 687 423 687 c 0,21,22
 436 687 436 687 445.5 677 c 128,-1,23
 455 667 455 667 455 653 c 0,24,25
 455 646 455 646 429.5 545.5 c 128,-1,26
 404 445 404 445 404 435 c 0,27,28
 404 420 404 420 412.5 412 c 128,-1,29
 421 404 421 404 432 404 c 0,30,31
 448 404 448 404 459.5 426.5 c 128,-1,32
 471 449 471 449 478.5 476.5 c 128,-1,33
 486 504 486 504 489 508 c 0,34,35
 497 519 497 519 517 519 c 0,36,37
 552 519 552 519 552 490 c 0,38,39
 552 483 552 483 546 462.5 c 128,-1,40
 540 442 540 442 527.5 413.5 c 128,-1,41
 515 385 515 385 489.5 363.5 c 128,-1,42
 464 342 464 342 432 342 c 0,43,44
 374 342 374 342 347 387 c 1,45,46
 288 342 288 342 240 342 c 0,47,48
 190 342 190 342 158 379.5 c 128,-1,49
 126 417 126 417 126 474 c 0,13,14
196 473 m 0,50,51
 196 441 196 441 208.5 422.5 c 128,-1,52
 221 404 221 404 242 404 c 0,53,54
 282 404 282 404 320.5 456.5 c 128,-1,55
 359 509 359 509 359 569 c 0,56,57
 359 604 359 604 345.5 621 c 128,-1,58
 332 638 332 638 313 638 c 0,59,60
 274 638 274 638 235 585 c 128,-1,61
 196 532 196 532 196 473 c 0,50,51
EndSplineSet
EndChar

StartChar: guillemotleft
Encoding: 171 171 109
Width: 525
GlyphClass: 2
Flags: W
ItalicCorrection: 173
LayerCount: 2
Fore
SplineSet
124 220 m 0,0,1
 124 234 124 234 142 249 c 2,2,-1
 334 421 l 2,3,4
 354 439 354 439 368 439 c 128,-1,5
 382 439 382 439 390.5 431 c 128,-1,6
 399 423 399 423 399 410 c 1,7,8
 405 403 405 403 194 215 c 1,9,10
 300 42 300 42 302 36 c 0,11,12
 303 33 303 33 303 28 c 0,13,14
 303 18 303 18 296 9 c 128,-1,15
 289 0 289 0 273 0 c 2,16,-1
 268 0 l 2,17,18
 257 0 257 0 246 15.5 c 128,-1,19
 235 31 235 31 182 117 c 0,20,21
 153 164 153 164 134 195 c 0,22,23
 124 212 124 212 124 220 c 0,0,1
243 221 m 0,24,25
 243 233 243 233 261 249 c 2,26,-1
 454 421 l 2,27,28
 474 439 474 439 487 439 c 0,29,30
 501 439 501 439 509.5 431 c 128,-1,31
 518 423 518 423 518 410 c 0,32,33
 518 400 518 400 505 387 c 0,34,35
 501 382 501 382 313 215 c 1,36,37
 346 161 346 161 385 98 c 0,38,39
 423 37 423 37 423 28 c 128,-1,40
 423 19 423 19 415.5 9.5 c 128,-1,41
 408 0 408 0 392 0 c 2,42,-1
 387 0 l 2,43,44
 376 0 376 0 365 15.5 c 128,-1,45
 354 31 354 31 301 117 c 0,46,47
 272 164 272 164 253 195 c 0,48,49
 243 211 243 211 243 221 c 0,24,25
EndSplineSet
Substitution2: "'locl' Localized Forms in Latin lookup 11 subtable" guillemotleft.lat
AlternateSubs2: "'salt' Stylistic Alternatives in Latin lookup 8 subtable" guillemotleft.lat
Substitution2: "'locl' Localized Forms in Greek lookup 3 subtable" guillemotleft.gr
AlternateSubs2: "'salt' Stylistic Alternatives in Greek lookup 2 subtable" guillemotleft.gr
EndChar

StartChar: logicalnot
Encoding: 172 172 110
Width: 525
GlyphClass: 2
Flags: W
ItalicCorrection: 173
LayerCount: 2
Fore
SplineSet
159 325 m 0,0,1
 159 332 159 332 161 338.5 c 128,-1,2
 163 345 163 345 173.5 352.5 c 128,-1,3
 184 360 184 360 201 360 c 2,4,-1
 484 360 l 2,5,6
 526 360 526 360 526 325 c 0,7,8
 526 315 526 315 466 77 c 0,9,10
 457 37 457 37 429 37 c 0,11,12
 415 37 415 37 405 47 c 128,-1,13
 395 57 395 57 395 68 c 0,14,15
 395 80 395 80 402 108.5 c 128,-1,16
 409 137 409 137 423 192 c 128,-1,17
 437 247 437 247 447 290 c 1,18,-1
 202 290 l 2,19,20
 159 290 159 290 159 325 c 0,0,1
EndSplineSet
EndChar

StartChar: uni00AD
Encoding: 173 173 111
Width: 525
GlyphClass: 2
Flags: W
ItalicCorrection: 173
LayerCount: 2
Fore
SplineSet
242 214 m 0,0,1
 242 226 242 226 250 236 c 128,-1,2
 258 246 258 246 277 246 c 2,3,-1
 355 246 l 2,4,5
 375 246 375 246 382.5 236.5 c 128,-1,6
 390 227 390 227 390 217 c 0,7,8
 390 185 390 185 354 185 c 2,9,-1
 277 185 l 2,10,11
 242 185 242 185 242 214 c 0,0,1
EndSplineSet
EndChar

StartChar: registered
Encoding: 174 174 112
Width: 525
GlyphClass: 2
Flags: W
ItalicCorrection: 173
LayerCount: 2
Fore
SplineSet
14 58 m 0,0,1
 14 210 14 210 75.5 361.5 c 128,-1,2
 137 513 137 513 234.5 609 c 128,-1,3
 332 705 332 705 430 705 c 0,4,5
 525 705 525 705 576.5 620 c 128,-1,6
 628 535 628 535 628 412 c 0,7,8
 628 266 628 266 568.5 115.5 c 128,-1,9
 509 -35 509 -35 411.5 -134 c 128,-1,10
 314 -233 314 -233 213 -233 c 0,11,12
 119 -233 119 -233 66.5 -149 c 128,-1,13
 14 -65 14 -65 14 58 c 0,0,1
84 61 m 0,14,15
 84 26 84 26 90 -9.5 c 128,-1,16
 96 -45 96 -45 109 -81.5 c 128,-1,17
 122 -118 122 -118 149 -141 c 128,-1,18
 176 -164 176 -164 212 -164 c 0,19,20
 289 -164 289 -164 370.5 -76.5 c 128,-1,21
 452 11 452 11 505.5 146 c 128,-1,22
 559 281 559 281 559 409 c 0,23,24
 559 446 559 446 553 482 c 128,-1,25
 547 518 547 518 533.5 554.5 c 128,-1,26
 520 591 520 591 493 613.5 c 128,-1,27
 466 636 466 636 430 636 c 0,28,29
 353 636 353 636 271.5 548.5 c 128,-1,30
 190 461 190 461 137 325.5 c 128,-1,31
 84 190 84 190 84 61 c 0,14,15
93 29 m 0,32,33
 93 62 93 62 130 62 c 2,34,-1
 151 62 l 1,35,-1
 226 366 l 1,36,-1
 223 366 l 2,37,38
 184 366 184 366 184 395 c 0,39,40
 184 428 184 428 222 428 c 2,41,-1
 348 428 l 2,42,43
 407 428 407 428 433.5 398.5 c 128,-1,44
 460 369 460 369 460 332 c 128,-1,45
 460 295 460 295 436.5 261 c 128,-1,46
 413 227 413 227 380 208 c 1,47,48
 396 182 396 182 396 157 c 0,49,50
 396 142 396 142 386 104 c 128,-1,51
 376 66 376 66 377 50 c 1,52,53
 386 60 386 60 391 78.5 c 128,-1,54
 396 97 396 97 403 107.5 c 128,-1,55
 410 118 410 118 428 118 c 2,56,-1
 429 118 l 2,57,58
 465 118 465 118 465 90 c 0,59,60
 465 67 465 67 441.5 28 c 128,-1,61
 418 -11 418 -11 376 -11 c 0,62,63
 350 -11 350 -11 329 6 c 128,-1,64
 308 23 308 23 308 61 c 0,65,66
 308 81 308 81 317 114 c 128,-1,67
 326 147 326 147 326 157 c 0,68,69
 326 183 326 183 290 183 c 2,70,-1
 253 183 l 1,71,-1
 222 62 l 1,72,-1
 228 62 l 2,73,74
 265 62 265 62 265 33 c 0,75,76
 265 0 265 0 227 0 c 2,77,-1
 127 0 l 2,78,79
 93 0 93 0 93 29 c 0,32,33
268 245 m 1,80,-1
 294 245 l 2,81,82
 339 245 339 245 363.5 269.5 c 128,-1,83
 388 294 388 294 388 317 c 0,84,85
 388 366 388 366 320 366 c 2,86,-1
 299 366 l 1,87,-1
 298 365 l 1,88,-1
 268 245 l 1,80,-1
EndSplineSet
EndChar

StartChar: macron
Encoding: 175 175 113
Width: 525
GlyphClass: 2
Flags: W
ItalicCorrection: 173
LayerCount: 2
Fore
SplineSet
250 588 m 0,0,1
 250 622 250 622 286 622 c 2,2,-1
 532 622 l 2,3,4
 569 622 569 622 569 593 c 0,5,6
 569 559 569 559 533 559 c 2,7,-1
 284 559 l 2,8,9
 250 559 250 559 250 588 c 0,0,1
EndSplineSet
EndChar

StartChar: degree
Encoding: 176 176 114
Width: 525
GlyphClass: 2
Flags: W
ItalicCorrection: 173
LayerCount: 2
Fore
SplineSet
254 463 m 0,0,1
 254 520 254 520 300 565.5 c 128,-1,2
 346 611 346 611 406 611 c 0,3,4
 450 611 450 611 481 582 c 128,-1,5
 512 553 512 553 512 507 c 0,6,7
 512 450 512 450 466 404.5 c 128,-1,8
 420 359 420 359 360 359 c 0,9,10
 315 359 315 359 284.5 388 c 128,-1,11
 254 417 254 417 254 463 c 0,0,1
324 463 m 0,12,13
 324 429 324 429 360 429 c 0,14,15
 390 429 390 429 416 453.5 c 128,-1,16
 442 478 442 478 442 506 c 0,17,18
 442 541 442 541 406 541 c 0,19,20
 376 541 376 541 350 516 c 128,-1,21
 324 491 324 491 324 463 c 0,12,13
EndSplineSet
EndChar

StartChar: plusminus
Encoding: 177 177 115
Width: 525
GlyphClass: 2
Flags: W
ItalicCorrection: 173
LayerCount: 2
Fore
SplineSet
114 162 m 0,0,1
 114 198 114 198 158 198 c 2,2,-1
 276 198 l 1,3,-1
 306 318 l 1,4,-1
 204 318 l 2,5,6
 162 318 162 318 162 353 c 0,7,8
 162 366 162 366 171.5 377 c 128,-1,9
 181 388 181 388 202 388 c 2,10,-1
 323 388 l 1,11,12
 365 554 365 554 369 561 c 0,13,14
 380 577 380 577 397 577 c 0,15,16
 412 577 412 577 422 566.5 c 128,-1,17
 432 556 432 556 432 542 c 2,18,-1
 395 388 l 1,19,-1
 497 388 l 2,20,21
 539 388 539 388 539 352 c 0,22,23
 539 345 539 345 537 338.5 c 128,-1,24
 535 332 535 332 524 325 c 128,-1,25
 513 318 513 318 495 318 c 2,26,-1
 377 318 l 1,27,-1
 347 198 l 1,28,-1
 449 198 l 2,29,30
 466 198 466 198 476.5 190.5 c 128,-1,31
 487 183 487 183 489 176.5 c 128,-1,32
 491 170 491 170 491 163 c 128,-1,33
 491 156 491 156 489 149.5 c 128,-1,34
 487 143 487 143 477 135.5 c 128,-1,35
 467 128 467 128 450 128 c 2,36,-1
 156 128 l 2,37,38
 132 128 132 128 123 139 c 128,-1,39
 114 150 114 150 114 162 c 0,0,1
EndSplineSet
EndChar

StartChar: twosuperior
Encoding: 178 178 116
Width: 525
GlyphClass: 2
Flags: W
ItalicCorrection: 173
LayerCount: 2
Fore
SplineSet
171 328 m 0,0,1
 171 358 171 358 207 405.5 c 128,-1,2
 243 453 243 453 310 482 c 0,3,4
 323 488 323 488 361.5 500.5 c 128,-1,5
 400 513 400 513 427 522.5 c 128,-1,6
 454 532 454 532 477.5 549.5 c 128,-1,7
 501 567 501 567 501 585 c 0,8,9
 501 611 501 611 471.5 627.5 c 128,-1,10
 442 644 442 644 400 644 c 2,11,-1
 399 644 l 2,12,13
 356 644 356 644 330 637.5 c 128,-1,14
 304 631 304 631 295.5 621.5 c 128,-1,15
 287 612 287 612 283 602 c 128,-1,16
 279 592 279 592 271.5 585.5 c 128,-1,17
 264 579 264 579 248 579 c 0,18,19
 214 579 214 579 214 607 c 0,20,21
 214 621 214 621 221.5 636 c 128,-1,22
 229 651 229 651 247.5 667.5 c 128,-1,23
 266 684 266 684 305.5 694.5 c 128,-1,24
 345 705 345 705 399 705 c 0,25,26
 488 705 488 705 529.5 667.5 c 128,-1,27
 571 630 571 630 571 585 c 0,28,29
 571 554 571 554 554.5 529 c 128,-1,30
 538 504 538 504 507.5 487 c 128,-1,31
 477 470 477 470 451 459 c 128,-1,32
 425 448 425 448 389.5 436.5 c 128,-1,33
 354 425 354 425 343 421 c 0,34,35
 314 409 314 409 295 395 c 1,36,37
 320 392 320 392 362 380 c 128,-1,38
 404 368 404 368 429 368 c 0,39,40
 461 368 461 368 487.5 382.5 c 128,-1,41
 514 397 514 397 523 420 c 0,42,43
 529 435 529 435 536 440 c 128,-1,44
 543 445 543 445 558 445 c 0,45,46
 593 445 593 445 593 416 c 0,47,48
 593 380 593 380 545 340 c 128,-1,49
 497 300 497 300 427 300 c 0,50,51
 393 300 393 300 343 317.5 c 128,-1,52
 293 335 293 335 272 335 c 0,53,54
 250 335 250 335 239 317.5 c 128,-1,55
 228 300 228 300 208 300 c 0,56,57
 173 300 173 300 171 328 c 0,0,1
EndSplineSet
EndChar

StartChar: threesuperior
Encoding: 179 179 117
Width: 525
GlyphClass: 2
Flags: W
ItalicCorrection: 173
LayerCount: 2
Fore
SplineSet
191 418 m 0,0,1
 191 493 191 493 243 493 c 0,2,3
 260 493 260 493 272 482 c 128,-1,4
 284 471 284 471 284 453 c 0,5,6
 284 430 284 430 261 412 c 1,7,8
 266 356 266 356 320 356 c 0,9,10
 359 356 359 356 410 372.5 c 128,-1,11
 461 389 461 389 461 423 c 0,12,13
 461 443 461 443 443.5 460 c 128,-1,14
 426 477 426 477 383 477 c 2,15,-1
 340 477 l 2,16,17
 305 477 305 477 305 506 c 0,18,19
 305 538 305 538 342 538 c 2,20,-1
 378 538 l 2,21,22
 438 538 438 538 472 560 c 128,-1,23
 506 582 506 582 506 603 c 0,24,25
 506 620 506 620 484.5 632 c 128,-1,26
 463 644 463 644 427 644 c 0,27,28
 386 644 386 644 362 638 c 128,-1,29
 338 632 338 632 330.5 624 c 128,-1,30
 323 616 323 616 319.5 607.5 c 128,-1,31
 316 599 316 599 308.5 593 c 128,-1,32
 301 587 301 587 284 587 c 0,33,34
 251 587 251 587 251 615 c 0,35,36
 251 638 251 638 271 660 c 0,37,38
 311 705 311 705 427 705 c 0,39,40
 503 705 503 705 540 673.5 c 128,-1,41
 577 642 577 642 577 605 c 0,42,43
 577 574 577 574 555.5 546 c 128,-1,44
 534 518 534 518 497 501 c 1,45,46
 531 464 531 464 531 423 c 0,47,48
 531 387 531 387 508 360 c 128,-1,49
 485 333 485 333 449 319.5 c 128,-1,50
 413 306 413 306 380 300 c 128,-1,51
 347 294 347 294 318 294 c 0,52,53
 258 294 258 294 224.5 330 c 128,-1,54
 191 366 191 366 191 418 c 0,0,1
EndSplineSet
EndChar

StartChar: acute
Encoding: 180 180 118
Width: 525
GlyphClass: 2
Flags: W
ItalicCorrection: 173
LayerCount: 2
Fore
SplineSet
342 547 m 0,0,1
 342 550 342 550 343 553.5 c 128,-1,2
 344 557 344 557 345 559 c 128,-1,3
 346 561 346 561 348.5 563.5 c 128,-1,4
 351 566 351 566 352 567 c 128,-1,5
 353 568 353 568 356.5 570 c 128,-1,6
 360 572 360 572 360.5 572.5 c 128,-1,7
 361 573 361 573 365 575 c 2,8,-1
 369 577 l 2,9,10
 498 639 498 639 507 639 c 0,11,12
 520 639 520 639 529.5 629.5 c 128,-1,13
 539 620 539 620 540 606 c 0,14,15
 540 582 540 582 511 569 c 0,16,17
 380 506 380 506 374 506 c 0,18,19
 358 506 358 506 350 520 c 128,-1,20
 342 534 342 534 342 547 c 0,0,1
EndSplineSet
EndChar

StartChar: uni00B5
Encoding: 181 181 119
Width: 525
GlyphClass: 2
Flags: W
ItalicCorrection: 173
LayerCount: 2
Fore
SplineSet
31 -200 m 0,0,1
 31 -190 31 -190 34 -180 c 2,2,-1
 179 398 l 2,3,4
 188 435 188 435 217 435 c 0,5,6
 230 435 230 435 240 426 c 128,-1,7
 250 417 250 417 250 403 c 0,8,9
 250 392 250 392 218 270.5 c 128,-1,10
 186 149 186 149 186 119 c 0,11,12
 186 56 186 56 244 56 c 0,13,14
 281 56 281 56 311 87.5 c 128,-1,15
 341 119 341 119 359.5 167.5 c 128,-1,16
 378 216 378 216 390.5 264 c 128,-1,17
 403 312 403 312 412.5 355.5 c 128,-1,18
 422 399 422 399 427 409 c 0,19,20
 439 430 439 430 460 430 c 0,21,22
 473 430 473 430 482 422 c 128,-1,23
 491 414 491 414 493 403 c 0,24,25
 494 392 494 392 491 378 c 2,26,-1
 424 112 l 2,27,28
 420 92 420 92 420 84 c 0,29,30
 420 57 420 57 439 57 c 0,31,32
 460 57 460 57 479 130 c 0,33,34
 480 132 480 132 481.5 138.5 c 128,-1,35
 483 145 483 145 484 148.5 c 128,-1,36
 485 152 485 152 487.5 157 c 128,-1,37
 490 162 490 162 493.5 165 c 128,-1,38
 497 168 497 168 503 170 c 128,-1,39
 509 172 509 172 516 172 c 2,40,-1
 519 172 l 2,41,42
 539 172 539 172 546 162.5 c 128,-1,43
 553 153 553 153 553 143 c 0,44,45
 553 140 553 140 550.5 126.5 c 128,-1,46
 548 113 548 113 539.5 90 c 128,-1,47
 531 67 531 67 519.5 46 c 128,-1,48
 508 25 508 25 486.5 10 c 128,-1,49
 465 -5 465 -5 439 -5 c 0,50,51
 380 -5 380 -5 357 46 c 1,52,53
 304 -5 304 -5 242 -5 c 0,54,55
 195 -5 195 -5 157 22 c 1,56,57
 141 -43 141 -43 121 -124 c 0,58,59
 104 -190 104 -190 101 -201.5 c 128,-1,60
 98 -213 98 -213 91 -220 c 1,61,-1
 91 -221 l 1,62,63
 79 -233 79 -233 64 -233 c 0,64,65
 51 -233 51 -233 41 -223.5 c 128,-1,66
 31 -214 31 -214 31 -200 c 0,0,1
EndSplineSet
EndChar

StartChar: paragraph
Encoding: 182 182 120
Width: 525
GlyphClass: 2
Flags: W
ItalicCorrection: 173
LayerCount: 2
Fore
SplineSet
106 -187 m 0,0,1
 106 -152 106 -152 151 -152 c 2,2,-1
 173 -152 l 1,3,-1
 253 167 l 1,4,5
 214 180 214 180 191 218 c 128,-1,6
 168 256 168 256 168 316 c 0,7,8
 168 379 168 379 194 445.5 c 128,-1,9
 220 512 220 512 274 561.5 c 128,-1,10
 328 611 328 611 395 611 c 2,11,-1
 564 611 l 2,12,13
 581 611 581 611 591.5 603.5 c 128,-1,14
 602 596 602 596 604 589.5 c 128,-1,15
 606 583 606 583 606 576 c 0,16,17
 606 541 606 541 562 541 c 2,18,-1
 539 541 l 1,19,-1
 365 -152 l 1,20,-1
 372 -152 l 2,21,22
 390 -152 390 -152 400.5 -159.5 c 128,-1,23
 411 -167 411 -167 413 -174 c 128,-1,24
 415 -181 415 -181 415 -188 c 0,25,26
 415 -194 415 -194 413 -200.5 c 128,-1,27
 411 -207 411 -207 401 -214.5 c 128,-1,28
 391 -222 391 -222 374 -222 c 2,29,-1
 147 -222 l 2,30,31
 124 -222 124 -222 115 -210.5 c 128,-1,32
 106 -199 106 -199 106 -187 c 0,0,1
245 -152 m 1,33,-1
 294 -152 l 1,34,-1
 467 541 l 1,35,-1
 419 541 l 1,36,-1
 245 -152 l 1,33,-1
EndSplineSet
EndChar

StartChar: periodcentered
Encoding: 183 183 121
Width: 525
GlyphClass: 2
Flags: W
ItalicCorrection: 173
LayerCount: 2
Fore
SplineSet
266 214 m 0,0,1
 266 235 266 235 282.5 252 c 128,-1,2
 299 269 299 269 322 269 c 0,3,4
 341 269 341 269 354 257 c 128,-1,5
 367 245 367 245 367 225 c 0,6,7
 367 203 367 203 350 186 c 128,-1,8
 333 169 333 169 312 169 c 0,9,10
 293 169 293 169 279.5 181.5 c 128,-1,11
 266 194 266 194 266 214 c 0,0,1
EndSplineSet
EndChar

StartChar: cedilla
Encoding: 184 184 122
Width: 525
GlyphClass: 2
Flags: W
ItalicCorrection: 173
LayerCount: 2
Fore
SplineSet
99 -180 m 0,0,1
 99 -156 99 -156 119 -149 c 0,2,3
 121 -148 121 -148 166 -147 c 128,-1,4
 211 -146 211 -146 247.5 -133.5 c 128,-1,5
 284 -121 284 -121 284 -93 c 0,6,7
 284 -80 284 -80 273.5 -74 c 128,-1,8
 263 -68 263 -68 251 -67.5 c 128,-1,9
 239 -67 239 -67 228.5 -61 c 128,-1,10
 218 -55 218 -55 218 -42 c 0,11,12
 218 -31 218 -31 225.5 0.5 c 128,-1,13
 233 32 233 32 236 39 c 0,14,15
 244 57 244 57 268 57 c 0,16,17
 303 57 303 57 303 28 c 0,18,19
 303 24 303 24 301.5 17.5 c 128,-1,20
 300 11 300 11 297.5 1.5 c 128,-1,21
 295 -8 295 -8 294 -13 c 1,22,23
 355 -37 355 -37 355 -92 c 0,24,25
 355 -126 355 -126 332 -155 c 128,-1,26
 309 -184 309 -184 265 -196 c 128,-1,27
 221 -208 221 -208 138 -208 c 2,28,-1
 134 -208 l 2,29,30
 114 -208 114 -208 106.5 -199 c 128,-1,31
 99 -190 99 -190 99 -180 c 0,0,1
EndSplineSet
EndChar

StartChar: onesuperior
Encoding: 185 185 123
Width: 525
GlyphClass: 2
Flags: W
ItalicCorrection: 173
LayerCount: 2
Fore
SplineSet
207 334 m 0,0,1
 207 367 207 367 244 367 c 2,2,-1
 332 367 l 1,3,-1
 386 587 l 1,4,5
 333 563 333 563 295 563 c 0,6,7
 259 563 259 563 259 592 c 0,8,9
 259 615 259 615 279 623 c 0,10,11
 282 624 282 624 298 625.5 c 128,-1,12
 314 627 314 627 330 630.5 c 128,-1,13
 346 634 346 634 371.5 648.5 c 128,-1,14
 397 663 397 663 421 687 c 0,15,16
 435 702 435 702 449 702 c 0,17,18
 478 702 478 702 478 673 c 0,19,20
 478 671 478 671 477.5 668 c 128,-1,21
 477 665 477 665 476 661.5 c 128,-1,22
 475 658 475 658 475 656 c 2,23,-1
 412 401 l 1,24,-1
 403 367 l 1,25,-1
 464 367 l 2,26,27
 497 366 497 366 497 338 c 0,28,29
 497 327 497 327 490 316.5 c 128,-1,30
 483 306 483 306 463 305 c 2,31,-1
 244 305 l 2,32,33
 207 305 207 305 207 334 c 0,0,1
EndSplineSet
EndChar

StartChar: ordmasculine
Encoding: 186 186 124
Width: 525
GlyphClass: 2
Flags: W
ItalicCorrection: 173
LayerCount: 2
Fore
SplineSet
40 247 m 0,0,1
 40 278 40 278 79 278 c 2,2,-1
 394 278 l 2,3,4
 432 278 432 278 432 247 c 128,-1,5
 432 216 432 216 394 216 c 2,6,-1
 76 216 l 2,7,8
 55 217 55 217 47.5 227 c 128,-1,9
 40 237 40 237 40 247 c 0,0,1
127 483 m 0,10,11
 127 568 127 568 194.5 634 c 128,-1,12
 262 700 262 700 343 700 c 0,13,14
 404 700 404 700 443 660.5 c 128,-1,15
 482 621 482 621 482 559 c 0,16,17
 482 474 482 474 415.5 408 c 128,-1,18
 349 342 349 342 267 342 c 0,19,20
 207 342 207 342 167 381 c 128,-1,21
 127 420 127 420 127 483 c 0,10,11
197 481 m 0,22,23
 197 446 197 446 217 424.5 c 128,-1,24
 237 403 237 403 269 403 c 0,25,26
 321 403 321 403 366.5 452 c 128,-1,27
 412 501 412 501 412 560 c 0,28,29
 412 595 412 595 392.5 616.5 c 128,-1,30
 373 638 373 638 341 638 c 0,31,32
 288 638 288 638 242.5 588.5 c 128,-1,33
 197 539 197 539 197 481 c 0,22,23
EndSplineSet
EndChar

StartChar: guillemotright
Encoding: 187 187 125
Width: 525
GlyphClass: 2
Flags: W
ItalicCorrection: 173
LayerCount: 2
Fore
SplineSet
116 29 m 0,0,1
 116 43 116 43 137 61 c 0,2,3
 301 208 301 208 321 225 c 1,4,5
 214 396 214 396 212 404 c 0,6,7
 211 407 211 407 211 411 c 0,8,9
 211 420 211 420 218.5 429.5 c 128,-1,10
 226 439 226 439 242 439 c 0,11,12
 261 439 261 439 275 415 c 0,13,14
 386 236 386 236 389 227 c 0,15,16
 390 223 390 223 390 219 c 0,17,18
 390 208 390 208 372 190 c 2,19,-1
 180 18 l 2,20,21
 159 0 159 0 146 0 c 0,22,23
 134 0 134 0 125 8.5 c 128,-1,24
 116 17 116 17 116 29 c 0,0,1
235 29 m 0,25,26
 235 42 235 42 257 61 c 0,27,28
 436 222 436 222 440 225 c 1,29,30
 333 396 333 396 331 404 c 0,31,32
 330 407 330 407 330 411 c 0,33,34
 330 420 330 420 337.5 429.5 c 128,-1,35
 345 439 345 439 361 439 c 0,36,37
 380 439 380 439 394 415 c 0,38,39
 505 236 505 236 508 227 c 0,40,41
 509 223 509 223 509 219 c 0,42,43
 509 207 509 207 492 190 c 2,44,-1
 299 18 l 2,45,46
 278 0 278 0 265 0 c 0,47,48
 253 0 253 0 244 8.5 c 128,-1,49
 235 17 235 17 235 29 c 0,25,26
EndSplineSet
Substitution2: "'locl' Localized Forms in Latin lookup 11 subtable" guillemotright.lat
AlternateSubs2: "'salt' Stylistic Alternatives in Latin lookup 8 subtable" guillemotright.lat
Substitution2: "'locl' Localized Forms in Greek lookup 3 subtable" guillemotright.gr
AlternateSubs2: "'salt' Stylistic Alternatives in Greek lookup 2 subtable" guillemotright.gr
EndChar

StartChar: onequarter
Encoding: 188 188 126
Width: 525
GlyphClass: 2
Flags: W
ItalicCorrection: 173
LayerCount: 2
Fore
SplineSet
64 32 m 0,0,1
 64 48 64 48 76 55 c 0,2,3
 79 57 79 57 168.5 71 c 128,-1,4
 258 85 258 85 278 109 c 0,5,6
 280 112 280 112 286.5 123 c 128,-1,7
 293 134 293 134 299.5 138.5 c 128,-1,8
 306 143 306 143 316 143 c 0,9,10
 324 143 324 143 335 140 c 1,11,-1
 342 171 l 1,12,-1
 348 192 l 1,13,-1
 352 202 l 1,14,-1
 132 202 l 2,15,16
 112 202 112 202 103 212.5 c 128,-1,17
 94 223 94 223 94 236 c 0,18,19
 94 271 94 271 138 271 c 2,20,-1
 506 271 l 2,21,22
 548 271 548 271 548 236 c 0,23,24
 548 202 548 202 508 202 c 2,25,-1
 413 202 l 1,26,27
 416 193 416 193 416 186 c 0,28,29
 416 177 416 177 412.5 163 c 128,-1,30
 409 149 409 149 399 111.5 c 128,-1,31
 389 74 389 74 379 31 c 1,32,33
 398 31 398 31 416 32 c 128,-1,34
 434 33 434 33 436 33 c 0,35,36
 452 33 452 33 460.5 22.5 c 128,-1,37
 469 12 469 12 469 1 c 128,-1,38
 469 -10 469 -10 463 -17 c 128,-1,39
 457 -24 457 -24 442 -26.5 c 128,-1,40
 427 -29 427 -29 417 -29.5 c 128,-1,41
 407 -30 407 -30 383 -31 c 2,42,-1
 363 -31 l 1,43,44
 357 -59 357 -59 329 -169 c 0,45,46
 329 -170 329 -170 327 -179.5 c 128,-1,47
 325 -189 325 -189 322.5 -194 c 128,-1,48
 320 -199 320 -199 316 -207 c 128,-1,49
 312 -215 312 -215 304.5 -218.5 c 128,-1,50
 297 -222 297 -222 287 -222 c 0,51,52
 273 -222 273 -222 263.5 -212.5 c 128,-1,53
 254 -203 254 -203 254 -188 c 0,54,55
 254 -183 254 -183 293 -27 c 1,56,57
 261 -24 261 -24 234.5 -22 c 128,-1,58
 208 -20 208 -20 199 -20 c 128,-1,59
 190 -20 190 -20 180.5 -19 c 128,-1,60
 171 -18 171 -18 165 -16 c 128,-1,61
 159 -14 159 -14 146 -8 c 0,62,63
 121 2 121 2 116 2 c 0,64,65
 112 2 112 2 106 1 c 128,-1,66
 100 0 100 0 96 0 c 0,67,68
 83 0 83 0 73.5 10.5 c 128,-1,69
 64 21 64 21 64 32 c 0,0,1
217 369 m 0,70,71
 217 401 217 401 253 402 c 2,72,-1
 340 402 l 1,73,-1
 341 403 l 1,74,-1
 389 596 l 1,75,76
 342 576 342 576 298 576 c 0,77,78
 263 576 263 576 263 605 c 0,79,80
 263 630 263 630 285 636 c 0,81,82
 287 637 287 637 303 638 c 128,-1,83
 319 639 319 639 335 642 c 128,-1,84
 351 645 351 645 375 656.5 c 128,-1,85
 399 668 399 668 420 687 c 0,86,87
 437 702 437 702 449 702 c 0,88,89
 473 702 473 702 478 681 c 0,90,91
 480 674 480 674 475 653 c 2,92,-1
 413 402 l 1,93,-1
 463 402 l 2,94,95
 464 402 464 402 465.5 402.5 c 128,-1,96
 467 403 467 403 469 403 c 0,97,98
 507 403 507 403 507 374 c 0,99,100
 507 367 507 367 505 360.5 c 128,-1,101
 503 354 503 354 494.5 347 c 128,-1,102
 486 340 486 340 472 340 c 2,103,-1
 255 340 l 2,104,105
 217 340 217 340 217 369 c 0,70,71
281 36 m 1,106,-1
 308 34 l 1,107,-1
 308 35 l 1,108,-1
 313 52 l 1,109,-1
 312 52 l 1,110,-1
 300 45 l 1,111,-1
 281 36 l 1,106,-1
EndSplineSet
EndChar

StartChar: onehalf
Encoding: 189 189 127
Width: 525
GlyphClass: 2
Flags: W
ItalicCorrection: 173
LayerCount: 2
Fore
SplineSet
38 -205 m 0,0,1
 38 -188 38 -188 55 -162 c 128,-1,2
 72 -136 72 -136 107 -115 c 0,3,4
 135 -98 135 -98 204 -75.5 c 128,-1,5
 273 -53 273 -53 316.5 -31 c 128,-1,6
 360 -9 360 -9 360 21 c 0,7,8
 360 45 360 45 332.5 63 c 128,-1,9
 305 81 305 81 265 81 c 0,10,11
 218 81 218 81 180.5 55 c 128,-1,12
 143 29 143 29 130 -9 c 0,13,14
 127 -16 127 -16 125.5 -19 c 128,-1,15
 124 -22 124 -22 120.5 -26.5 c 128,-1,16
 117 -31 117 -31 111 -33 c 128,-1,17
 105 -35 105 -35 96 -35 c 0,18,19
 60 -35 60 -35 60 -6 c 0,20,21
 60 10 60 10 73.5 34 c 128,-1,22
 87 58 87 58 111 83 c 128,-1,23
 135 108 135 108 176 125.5 c 128,-1,24
 217 143 217 143 265 143 c 0,25,26
 335 143 335 143 382.5 108.5 c 128,-1,27
 430 74 430 74 430 20 c 0,28,29
 430 -9 430 -9 414 -36 c 1,30,31
 425 -28 425 -28 442 -28 c 0,32,33
 476 -28 476 -28 476 -56 c 0,34,35
 476 -70 476 -70 464 -97.5 c 128,-1,36
 452 -125 452 -125 430.5 -156 c 128,-1,37
 409 -187 409 -187 371.5 -210 c 128,-1,38
 334 -233 334 -233 292 -233 c 0,39,40
 264 -233 264 -233 211 -220.5 c 128,-1,41
 158 -208 158 -208 135 -208 c 128,-1,42
 112 -208 112 -208 102.5 -220.5 c 128,-1,43
 93 -233 93 -233 75 -233 c 2,44,-1
 73 -233 l 2,45,46
 59 -233 59 -233 50.5 -227 c 128,-1,47
 42 -221 42 -221 40 -215.5 c 128,-1,48
 38 -210 38 -210 38 -205 c 0,0,1
94 236 m 0,49,50
 94 250 94 250 102.5 260 c 128,-1,51
 111 270 111 270 126 271 c 2,52,-1
 500 271 l 2,53,54
 549 271 549 271 549 236 c 0,55,56
 549 221 549 221 538 211.5 c 128,-1,57
 527 202 527 202 511 202 c 2,58,-1
 133 202 l 2,59,60
 94 202 94 202 94 236 c 0,49,50
192 -151 m 1,61,62
 285 -165 285 -165 293 -165 c 0,63,64
 305 -165 305 -165 316 -162 c 128,-1,65
 327 -159 327 -159 336 -154 c 128,-1,66
 345 -149 345 -149 353.5 -141 c 128,-1,67
 362 -133 362 -133 368 -125.5 c 128,-1,68
 374 -118 374 -118 380 -108.5 c 128,-1,69
 386 -99 386 -99 390 -91.5 c 128,-1,70
 394 -84 394 -84 398 -74.5 c 128,-1,71
 402 -65 402 -65 404 -60 c 128,-1,72
 406 -55 406 -55 408 -48 c 2,73,-1
 410 -42 l 1,74,75
 382 -74 382 -74 345 -94 c 128,-1,76
 308 -114 308 -114 256.5 -130 c 128,-1,77
 205 -146 205 -146 192 -151 c 1,61,62
217 369 m 0,78,79
 217 401 217 401 253 402 c 2,80,-1
 340 402 l 1,81,-1
 341 403 l 1,82,-1
 389 596 l 1,83,84
 342 576 342 576 298 576 c 0,85,86
 263 576 263 576 263 605 c 0,87,88
 263 630 263 630 285 636 c 0,89,90
 287 637 287 637 303 638 c 128,-1,91
 319 639 319 639 335 642 c 128,-1,92
 351 645 351 645 375 656.5 c 128,-1,93
 399 668 399 668 420 687 c 0,94,95
 437 702 437 702 449 702 c 0,96,97
 473 702 473 702 478 681 c 0,98,99
 480 674 480 674 475 653 c 2,100,-1
 413 402 l 1,101,-1
 463 402 l 2,102,103
 464 402 464 402 465.5 402.5 c 128,-1,104
 467 403 467 403 469 403 c 0,105,106
 507 403 507 403 507 374 c 0,107,108
 507 367 507 367 505 360.5 c 128,-1,109
 503 354 503 354 494.5 347 c 128,-1,110
 486 340 486 340 472 340 c 2,111,-1
 253 340 l 2,112,113
 217 340 217 340 217 369 c 0,78,79
EndSplineSet
EndChar

StartChar: threequarters
Encoding: 190 190 128
Width: 525
GlyphClass: 2
Flags: W
ItalicCorrection: 173
LayerCount: 2
Fore
SplineSet
64 32 m 0,0,1
 64 48 64 48 76 55 c 0,2,3
 79 57 79 57 168.5 71 c 128,-1,4
 258 85 258 85 278 109 c 0,5,6
 280 112 280 112 286.5 123 c 128,-1,7
 293 134 293 134 299.5 138.5 c 128,-1,8
 306 143 306 143 316 143 c 0,9,10
 324 143 324 143 335 140 c 1,11,-1
 342 171 l 1,12,-1
 348 192 l 1,13,-1
 352 202 l 1,14,-1
 132 202 l 2,15,16
 112 202 112 202 103 212.5 c 128,-1,17
 94 223 94 223 94 236 c 0,18,19
 94 271 94 271 138 271 c 2,20,-1
 506 271 l 2,21,22
 548 271 548 271 548 236 c 0,23,24
 548 202 548 202 508 202 c 2,25,-1
 413 202 l 1,26,27
 416 193 416 193 416 186 c 0,28,29
 416 177 416 177 412.5 163 c 128,-1,30
 409 149 409 149 399 111.5 c 128,-1,31
 389 74 389 74 379 31 c 1,32,33
 398 31 398 31 416 32 c 128,-1,34
 434 33 434 33 436 33 c 0,35,36
 451 33 451 33 460 23 c 128,-1,37
 469 13 469 13 469 1 c 0,38,39
 469 -10 469 -10 463 -17 c 128,-1,40
 457 -24 457 -24 442 -26.5 c 128,-1,41
 427 -29 427 -29 417 -29.5 c 128,-1,42
 407 -30 407 -30 383 -31 c 2,43,-1
 363 -31 l 1,44,45
 357 -59 357 -59 329 -169 c 0,46,47
 329 -170 329 -170 327 -179.5 c 128,-1,48
 325 -189 325 -189 322.5 -194 c 128,-1,49
 320 -199 320 -199 316 -207 c 128,-1,50
 312 -215 312 -215 304.5 -218.5 c 128,-1,51
 297 -222 297 -222 287 -222 c 0,52,53
 273 -222 273 -222 263.5 -212.5 c 128,-1,54
 254 -203 254 -203 254 -188 c 0,55,56
 254 -170 254 -170 293 -27 c 1,57,58
 261 -24 261 -24 234.5 -22 c 128,-1,59
 208 -20 208 -20 199 -20 c 128,-1,60
 190 -20 190 -20 180.5 -19 c 128,-1,61
 171 -18 171 -18 165 -16 c 128,-1,62
 159 -14 159 -14 146 -8 c 0,63,64
 121 2 121 2 116 2 c 0,65,66
 112 2 112 2 106 1 c 128,-1,67
 100 0 100 0 96 0 c 0,68,69
 83 0 83 0 73.5 10.5 c 128,-1,70
 64 21 64 21 64 32 c 0,0,1
200 453 m 0,71,72
 200 528 200 528 252 528 c 0,73,74
 269 528 269 528 281 517 c 128,-1,75
 293 506 293 506 293 488 c 0,76,77
 293 464 293 464 270 447 c 1,78,79
 276 391 276 391 326 391 c 2,80,-1
 329 391 l 2,81,82
 381 391 381 391 423.5 406.5 c 128,-1,83
 466 422 466 422 466 445 c 0,84,85
 466 494 466 494 381 494 c 2,86,-1
 346 494 l 2,87,88
 309 494 309 494 309 522 c 0,89,90
 309 534 309 534 317 544.5 c 128,-1,91
 325 555 325 555 343 555 c 2,92,-1
 390 555 l 2,93,94
 438 555 438 555 473 573 c 128,-1,95
 508 591 508 591 508 609 c 0,96,97
 508 617 508 617 500.5 624.5 c 128,-1,98
 493 632 493 632 473 638 c 128,-1,99
 453 644 453 644 423 644 c 2,100,-1
 412 644 l 2,101,102
 376 644 376 644 355.5 639 c 128,-1,103
 335 634 335 634 328.5 627 c 128,-1,104
 322 620 322 620 319 612.5 c 128,-1,105
 316 605 316 605 309.5 600 c 128,-1,106
 303 595 303 595 288 595 c 0,107,108
 253 595 253 595 253 624 c 0,109,110
 253 654 253 654 284 677 c 0,111,112
 320 705 320 705 408 705 c 2,113,-1
 417 705 l 2,114,115
 499 705 499 705 541 676 c 0,116,117
 579 649 579 649 579 611 c 0,118,119
 579 553 579 553 505 518 c 1,120,121
 537 484 537 484 537 445 c 0,122,123
 537 403 537 403 499.5 375.5 c 128,-1,124
 462 348 462 348 417.5 339 c 128,-1,125
 373 330 373 330 326 330 c 0,126,127
 267 330 267 330 233.5 365.5 c 128,-1,128
 200 401 200 401 200 453 c 0,71,72
281 36 m 1,129,-1
 308 34 l 1,130,-1
 308 35 l 1,131,-1
 313 52 l 1,132,-1
 312 52 l 1,133,-1
 300 45 l 1,134,-1
 281 36 l 1,129,-1
EndSplineSet
EndChar

StartChar: questiondown
Encoding: 191 191 129
Width: 525
GlyphClass: 2
Flags: W
ItalicCorrection: 173
LayerCount: 2
Fore
SplineSet
89 -118 m 0,0,1
 89 -48 89 -48 149 6 c 0,2,3
 160 16 160 16 221 55 c 128,-1,4
 282 94 282 94 286 98 c 0,5,6
 301 112 301 112 301 137 c 2,7,-1
 301 144 l 1,8,9
 280 141 280 141 268 130.5 c 128,-1,10
 256 120 256 120 253 109.5 c 128,-1,11
 250 99 250 99 241.5 91 c 128,-1,12
 233 83 233 83 217 83 c 0,13,14
 182 83 182 83 182 111 c 0,15,16
 182 141 182 141 218.5 173 c 128,-1,17
 255 205 255 205 304 205 c 0,18,19
 332 205 332 205 349 185.5 c 128,-1,20
 366 166 366 166 366 135 c 0,21,22
 366 82 366 82 329 47 c 0,23,24
 313 32 313 32 264.5 4 c 128,-1,25
 216 -24 216 -24 185 -53.5 c 128,-1,26
 154 -83 154 -83 154 -119 c 0,27,28
 154 -143 154 -143 170 -157.5 c 128,-1,29
 186 -172 186 -172 213 -172 c 0,30,31
 253 -172 253 -172 289 -148.5 c 128,-1,32
 325 -125 325 -125 325 -111 c 0,33,34
 325 -108 325 -108 323.5 -101.5 c 128,-1,35
 322 -95 322 -95 322 -91 c 0,36,37
 322 -71 322 -71 336.5 -56.5 c 128,-1,38
 351 -42 351 -42 370 -42 c 0,39,40
 387 -42 387 -42 399.5 -53.5 c 128,-1,41
 412 -65 412 -65 412 -82 c 0,42,43
 412 -129 412 -129 353 -181 c 128,-1,44
 294 -233 294 -233 213 -233 c 0,45,46
 159 -233 159 -233 124 -201 c 128,-1,47
 89 -169 89 -169 89 -118 c 0,0,1
296 334 m 0,48,49
 296 356 296 356 313 372.5 c 128,-1,50
 330 389 330 389 351 389 c 0,51,52
 370 389 370 389 383.5 376.5 c 128,-1,53
 397 364 397 364 397 344 c 0,54,55
 397 322 397 322 379.5 305.5 c 128,-1,56
 362 289 362 289 341 289 c 0,57,58
 322 289 322 289 309 302 c 128,-1,59
 296 315 296 315 296 334 c 0,48,49
EndSplineSet
EndChar

StartChar: Aacute
Encoding: 193 193 131
Width: 525
GlyphClass: 2
Flags: W
ItalicCorrection: 173
AnchorPoint: "Anchor-5" 459 786 basechar 0
AnchorPoint: "Anchor-4" 261 0 basechar 0
LayerCount: 2
Fore
SplineSet
71 29 m 0,0,1
 71 62 71 62 109 62 c 2,2,-1
 129 62 l 1,3,4
 133 72 133 72 152 115 c 2,5,-1
 354 577 l 2,6,7
 361 593 361 593 364 599.5 c 128,-1,8
 367 606 367 606 379.5 614.5 c 128,-1,9
 392 623 392 623 410 623 c 2,10,-1
 426 623 l 2,11,12
 445 623 445 623 452 615.5 c 128,-1,13
 459 608 459 608 459 593 c 2,14,-1
 459 583 l 1,15,-1
 429 115 l 2,16,17
 428 106 428 106 427 88.5 c 128,-1,18
 426 71 426 71 425 62 c 1,19,-1
 428 62 l 2,20,21
 467 62 467 62 467 33 c 0,22,23
 467 27 467 27 465 20.5 c 128,-1,24
 463 14 463 14 454.5 7 c 128,-1,25
 446 0 446 0 432 0 c 2,26,-1
 332 0 l 2,27,28
 298 0 298 0 298 29 c 0,29,30
 298 62 298 62 335 62 c 2,31,-1
 354 62 l 1,32,-1
 361 164 l 1,33,-1
 244 164 l 1,34,-1
 200 62 l 1,35,-1
 202 62 l 2,36,37
 241 62 241 62 241 33 c 0,38,39
 241 0 241 0 203 0 c 2,40,-1
 106 0 l 2,41,42
 71 0 71 0 71 29 c 0,0,1
271 225 m 1,43,-1
 365 225 l 1,44,-1
 376 368 l 1,45,-1
 385 456 l 1,46,-1
 392 515 l 1,47,-1
 397 541 l 1,48,49
 376 472 376 472 271 225 c 1,43,-1
387 725 m 128,-1,51
 387 739 387 739 394 745.5 c 128,-1,52
 401 752 401 752 417 758 c 0,53,54
 544 807 544 807 554 807 c 0,55,56
 567 807 567 807 577 797.5 c 128,-1,57
 587 788 587 788 587 774 c 0,58,59
 587 749 587 749 555 737 c 0,60,61
 423 686 423 686 417 686 c 0,62,63
 401 686 401 686 394 698.5 c 128,-1,50
 387 711 387 711 387 725 c 128,-1,51
EndSplineSet
Substitution2: "'locl' Localized Forms in Latin lookup 10 subtable" Aacute.vn
AlternateSubs2: "'ss01' Style Set 1 lookup 9 subtable" Aacute.vn
AlternateSubs2: "'salt' Stylistic Alternatives in Latin lookup 8 subtable" Aacute.vn
EndChar

StartChar: Acircumflex
Encoding: 194 194 132
Width: 525
GlyphClass: 2
Flags: W
ItalicCorrection: 173
AnchorPoint: "Anchor-5" 463 803 basechar 0
AnchorPoint: "Anchor-4" 261 0 basechar 0
LayerCount: 2
Fore
SplineSet
71 29 m 0,0,1
 71 62 71 62 109 62 c 2,2,-1
 129 62 l 1,3,4
 133 72 133 72 152 115 c 2,5,-1
 354 577 l 2,6,7
 361 593 361 593 364 599.5 c 128,-1,8
 367 606 367 606 379.5 614.5 c 128,-1,9
 392 623 392 623 410 623 c 2,10,-1
 426 623 l 2,11,12
 445 623 445 623 452 615.5 c 128,-1,13
 459 608 459 608 459 593 c 2,14,-1
 459 583 l 1,15,-1
 429 115 l 2,16,17
 428 106 428 106 427 88.5 c 128,-1,18
 426 71 426 71 425 62 c 1,19,-1
 428 62 l 2,20,21
 467 62 467 62 467 33 c 0,22,23
 467 27 467 27 465 20.5 c 128,-1,24
 463 14 463 14 454.5 7 c 128,-1,25
 446 0 446 0 432 0 c 2,26,-1
 332 0 l 2,27,28
 298 0 298 0 298 29 c 0,29,30
 298 62 298 62 335 62 c 2,31,-1
 354 62 l 1,32,-1
 361 164 l 1,33,-1
 244 164 l 1,34,-1
 200 62 l 1,35,-1
 202 62 l 2,36,37
 241 62 241 62 241 33 c 0,38,39
 241 0 241 0 203 0 c 2,40,-1
 106 0 l 2,41,42
 71 0 71 0 71 29 c 0,0,1
265 698 m 0,43,44
 265 714 265 714 288 728 c 0,45,46
 445 822 445 822 453 824 c 2,47,-1
 454 824 l 2,48,49
 462 824 462 824 470.5 817.5 c 128,-1,50
 479 811 479 811 522 772 c 0,51,52
 552 745 552 745 573 726 c 0,53,54
 591 708 591 708 591 697 c 0,55,56
 591 684 591 684 578 671.5 c 128,-1,57
 565 659 565 659 552 659 c 0,58,59
 543 659 543 659 535.5 665 c 128,-1,60
 528 671 528 671 496 703 c 0,61,62
 468 731 468 731 447 751 c 1,63,64
 311 662 311 662 305 660 c 0,65,66
 302 659 302 659 298 659 c 0,67,68
 284 659 284 659 274.5 672 c 128,-1,69
 265 685 265 685 265 698 c 0,43,44
271 225 m 1,70,-1
 365 225 l 1,71,-1
 376 368 l 1,72,-1
 385 456 l 1,73,-1
 392 515 l 1,74,-1
 397 541 l 1,75,76
 376 472 376 472 271 225 c 1,70,-1
EndSplineSet
Substitution2: "'locl' Localized Forms in Latin lookup 10 subtable" Acircumflex.vn
AlternateSubs2: "'ss01' Style Set 1 lookup 9 subtable" Acircumflex.vn
AlternateSubs2: "'salt' Stylistic Alternatives in Latin lookup 8 subtable" Acircumflex.vn
EndChar

StartChar: Atilde
Encoding: 195 195 133
Width: 525
GlyphClass: 2
Flags: W
ItalicCorrection: 173
AnchorPoint: "Anchor-5" 462 798 basechar 0
AnchorPoint: "Anchor-4" 261 0 basechar 0
LayerCount: 2
Fore
SplineSet
71 29 m 0,0,1
 71 62 71 62 109 62 c 2,2,-1
 129 62 l 1,3,4
 133 72 133 72 152 115 c 2,5,-1
 354 577 l 2,6,7
 361 593 361 593 364 599.5 c 128,-1,8
 367 606 367 606 379.5 614.5 c 128,-1,9
 392 623 392 623 410 623 c 2,10,-1
 426 623 l 2,11,12
 445 623 445 623 452 615.5 c 128,-1,13
 459 608 459 608 459 593 c 2,14,-1
 459 583 l 1,15,-1
 429 115 l 2,16,17
 428 106 428 106 427 88.5 c 128,-1,18
 426 71 426 71 425 62 c 1,19,-1
 428 62 l 2,20,21
 467 62 467 62 467 33 c 0,22,23
 467 27 467 27 465 20.5 c 128,-1,24
 463 14 463 14 454.5 7 c 128,-1,25
 446 0 446 0 432 0 c 2,26,-1
 332 0 l 2,27,28
 298 0 298 0 298 29 c 0,29,30
 298 62 298 62 335 62 c 2,31,-1
 354 62 l 1,32,-1
 361 164 l 1,33,-1
 244 164 l 1,34,-1
 200 62 l 1,35,-1
 202 62 l 2,36,37
 241 62 241 62 241 33 c 0,38,39
 241 0 241 0 203 0 c 2,40,-1
 106 0 l 2,41,42
 71 0 71 0 71 29 c 0,0,1
239 722 m 0,43,44
 239 735 239 735 259 753 c 0,45,46
 332 819 332 819 386 819 c 0,47,48
 415 819 415 819 439.5 803.5 c 128,-1,49
 464 788 464 788 483.5 772.5 c 128,-1,50
 503 757 503 757 519 757 c 0,51,52
 545 757 545 757 583.5 788 c 128,-1,53
 622 819 622 819 631 819 c 0,54,55
 641 819 641 819 651.5 810 c 128,-1,56
 662 801 662 801 662 788 c 128,-1,57
 662 775 662 775 643 757 c 0,58,59
 570 690 570 690 514 690 c 0,60,61
 486 690 486 690 461.5 706 c 128,-1,62
 437 722 437 722 417.5 737.5 c 128,-1,63
 398 753 398 753 382 753 c 0,64,65
 358 753 358 753 319 722 c 128,-1,66
 280 691 280 691 270 691 c 0,67,68
 258 691 258 691 248.5 700.5 c 128,-1,69
 239 710 239 710 239 722 c 0,43,44
271 225 m 1,70,-1
 365 225 l 1,71,-1
 376 368 l 1,72,-1
 385 456 l 1,73,-1
 392 515 l 1,74,-1
 397 541 l 1,75,76
 376 472 376 472 271 225 c 1,70,-1
EndSplineSet
Substitution2: "'locl' Localized Forms in Latin lookup 10 subtable" Atilde.vn
AlternateSubs2: "'ss01' Style Set 1 lookup 9 subtable" Atilde.vn
AlternateSubs2: "'salt' Stylistic Alternatives in Latin lookup 8 subtable" Atilde.vn
EndChar

StartChar: Adieresis
Encoding: 196 196 134
Width: 525
GlyphClass: 2
Flags: W
ItalicCorrection: 173
AnchorPoint: "Anchor-5" 462 798 basechar 0
AnchorPoint: "Anchor-4" 261 0 basechar 0
LayerCount: 2
Fore
SplineSet
71 29 m 0,0,1
 71 62 71 62 109 62 c 2,2,-1
 129 62 l 1,3,4
 133 72 133 72 152 115 c 2,5,-1
 354 577 l 2,6,7
 361 593 361 593 364 599.5 c 128,-1,8
 367 606 367 606 379.5 614.5 c 128,-1,9
 392 623 392 623 410 623 c 2,10,-1
 426 623 l 2,11,12
 445 623 445 623 452 615.5 c 128,-1,13
 459 608 459 608 459 593 c 2,14,-1
 459 583 l 1,15,-1
 429 115 l 2,16,17
 428 106 428 106 427 88.5 c 128,-1,18
 426 71 426 71 425 62 c 1,19,-1
 428 62 l 2,20,21
 467 62 467 62 467 33 c 0,22,23
 467 27 467 27 465 20.5 c 128,-1,24
 463 14 463 14 454.5 7 c 128,-1,25
 446 0 446 0 432 0 c 2,26,-1
 332 0 l 2,27,28
 298 0 298 0 298 29 c 0,29,30
 298 62 298 62 335 62 c 2,31,-1
 354 62 l 1,32,-1
 361 164 l 1,33,-1
 244 164 l 1,34,-1
 200 62 l 1,35,-1
 202 62 l 2,36,37
 241 62 241 62 241 33 c 0,38,39
 241 0 241 0 203 0 c 2,40,-1
 106 0 l 2,41,42
 71 0 71 0 71 29 c 0,0,1
271 225 m 1,43,-1
 365 225 l 1,44,-1
 376 368 l 1,45,-1
 385 456 l 1,46,-1
 392 515 l 1,47,-1
 397 541 l 1,48,49
 376 472 376 472 271 225 c 1,43,-1
301 764 m 0,50,51
 301 785 301 785 317.5 802 c 128,-1,52
 334 819 334 819 357 819 c 0,53,54
 376 819 376 819 389 807 c 128,-1,55
 402 795 402 795 402 775 c 0,56,57
 402 753 402 753 385 736 c 128,-1,58
 368 719 368 719 347 719 c 0,59,60
 328 719 328 719 314.5 731.5 c 128,-1,61
 301 744 301 744 301 764 c 0,50,51
505 764 m 0,62,63
 505 787 505 787 522.5 803 c 128,-1,64
 540 819 540 819 561 819 c 0,65,66
 581 819 581 819 593.5 806 c 128,-1,67
 606 793 606 793 606 774 c 0,68,69
 606 752 606 752 589 735.5 c 128,-1,70
 572 719 572 719 551 719 c 0,71,72
 532 719 532 719 518.5 732 c 128,-1,73
 505 745 505 745 505 764 c 0,62,63
EndSplineSet
EndChar

StartChar: Aring
Encoding: 197 197 135
Width: 525
GlyphClass: 2
Flags: W
ItalicCorrection: 173
LayerCount: 2
Fore
SplineSet
71 29 m 0,0,1
 71 62 71 62 109 62 c 2,2,-1
 129 62 l 1,3,-1
 351 572 l 1,4,5
 306 597 306 597 306 658 c 0,6,7
 306 723 306 723 354 775 c 128,-1,8
 402 827 402 827 460 827 c 0,9,10
 499 827 499 827 523.5 800 c 128,-1,11
 548 773 548 773 548 731 c 0,12,13
 548 687 548 687 522.5 645 c 128,-1,14
 497 603 497 603 458 581 c 1,15,-1
 425 62 l 1,16,-1
 428 62 l 2,17,18
 467 62 467 62 467 33 c 0,19,20
 467 27 467 27 465 20.5 c 128,-1,21
 463 14 463 14 454.5 7 c 128,-1,22
 446 0 446 0 432 0 c 2,23,-1
 332 0 l 2,24,25
 298 0 298 0 298 29 c 0,26,27
 298 62 298 62 335 62 c 2,28,-1
 354 62 l 1,29,-1
 361 164 l 1,30,-1
 244 164 l 1,31,-1
 200 62 l 1,32,-1
 202 62 l 2,33,34
 241 62 241 62 241 33 c 0,35,36
 241 0 241 0 203 0 c 2,37,-1
 106 0 l 2,38,39
 71 0 71 0 71 29 c 0,0,1
271 225 m 1,40,-1
 365 225 l 1,41,-1
 376 367 l 1,42,-1
 385 456 l 1,43,-1
 392 515 l 1,44,-1
 397 541 l 1,45,46
 376 472 376 472 271 225 c 1,40,-1
366 674 m 0,47,48
 366 652 366 652 378 638 c 128,-1,49
 390 624 390 624 410 624 c 0,50,51
 438 624 438 624 463 652 c 128,-1,52
 488 680 488 680 488 715 c 0,53,54
 488 737 488 737 477 751.5 c 128,-1,55
 466 766 466 766 445 766 c 0,56,57
 416 766 416 766 391 737 c 128,-1,58
 366 708 366 708 366 674 c 0,47,48
EndSplineSet
EndChar

StartChar: AE
Encoding: 198 198 136
Width: 525
GlyphClass: 2
Flags: W
ItalicCorrection: 173
AnchorPoint: "Anchor-5" 446 622 basechar 0
AnchorPoint: "Anchor-4" 261 0 basechar 0
LayerCount: 2
Fore
SplineSet
67 29 m 0,0,1
 67 62 67 62 104 62 c 2,2,-1
 116 62 l 1,3,-1
 321 549 l 1,4,5
 295 554 295 554 295 578 c 0,6,7
 295 610 295 610 328 611 c 2,8,-1
 567 611 l 2,9,10
 584 611 584 611 592 602 c 128,-1,11
 600 593 600 593 600 582 c 0,12,13
 600 579 600 579 577 487 c 0,14,15
 568 455 568 455 547 455 c 0,16,17
 535 455 535 455 527 463 c 128,-1,18
 519 471 519 471 519 484 c 0,19,20
 519 489 519 489 534 549 c 1,21,-1
 457 549 l 1,22,-1
 407 348 l 1,23,-1
 486 348 l 2,24,25
 520 348 520 348 520 319 c 0,26,27
 520 286 520 286 484 286 c 2,28,-1
 392 286 l 1,29,-1
 392 285 l 1,30,-1
 336 62 l 1,31,-1
 419 62 l 1,32,33
 439 149 439 149 447 161 c 0,34,35
 455 171 455 171 468 171 c 0,36,37
 479 171 479 171 488 162.5 c 128,-1,38
 497 154 497 154 497 144 c 128,-1,39
 497 134 497 134 482 77.5 c 128,-1,40
 467 21 467 21 465 16 c 0,41,42
 456 0 456 0 433 0 c 2,43,-1
 273 0 l 2,44,45
 237 0 237 0 237 29 c 0,46,47
 237 62 237 62 274 62 c 2,48,-1
 277 62 l 1,49,-1
 307 182 l 1,50,-1
 224 182 l 1,51,-1
 174 62 l 1,52,53
 189 62 189 62 197 53 c 128,-1,54
 205 44 205 44 205 32 c 0,55,56
 205 1 205 1 169 0 c 2,57,-1
 104 0 l 2,58,59
 67 0 67 0 67 29 c 0,0,1
250 244 m 1,60,-1
 323 244 l 1,61,-1
 323 245 l 1,62,-1
 399 549 l 1,63,-1
 378 549 l 1,64,-1
 250 244 l 1,60,-1
EndSplineSet
EndChar

StartChar: Ccedilla
Encoding: 199 199 137
Width: 525
GlyphClass: 2
Flags: W
ItalicCorrection: 173
AnchorPoint: "Anchor-5" 426 622 basechar 0
LayerCount: 2
Fore
SplineSet
111 -180 m 0,0,1
 111 -147 111 -147 148 -147 c 2,2,-1
 165 -147 l 2,3,4
 304 -147 304 -147 304 -94 c 0,5,6
 304 -71 304 -71 268 -67 c 0,7,8
 234 -67 234 -67 233 -39 c 0,9,10
 233 -22 233 -22 246 -6 c 1,11,12
 191 12 191 12 164 68 c 128,-1,13
 137 124 137 124 137 195 c 0,14,15
 137 291 137 291 178 390.5 c 128,-1,16
 219 490 219 490 287 556 c 128,-1,17
 355 622 355 622 426 622 c 0,18,19
 436 622 436 622 446 620.5 c 128,-1,20
 456 619 456 619 463.5 617 c 128,-1,21
 471 615 471 615 478.5 611.5 c 128,-1,22
 486 608 486 608 490.5 605.5 c 128,-1,23
 495 603 495 603 501 598.5 c 128,-1,24
 507 594 507 594 509.5 592 c 128,-1,25
 512 590 512 590 516 586 c 2,26,-1
 521 581 l 1,27,28
 523 584 523 584 528.5 592 c 128,-1,29
 534 600 534 600 536 602.5 c 128,-1,30
 538 605 538 605 542.5 610 c 128,-1,31
 547 615 547 615 550 617 c 128,-1,32
 553 619 553 619 557.5 620.5 c 128,-1,33
 562 622 562 622 567 622 c 0,34,35
 579 622 579 622 588 614 c 128,-1,36
 597 606 597 606 597 594 c 0,37,38
 597 589 597 589 558 432 c 1,39,-1
 556 427 l 2,40,41
 555 422 555 422 555 421 c 128,-1,42
 555 420 555 420 553 416 c 128,-1,43
 551 412 551 412 549.5 410.5 c 128,-1,44
 548 409 548 409 545.5 406.5 c 128,-1,45
 543 404 543 404 540 403 c 128,-1,46
 537 402 537 402 532 401 c 128,-1,47
 527 400 527 400 522 400 c 0,48,49
 487 400 487 400 487 430 c 0,50,51
 487 435 487 435 488 445.5 c 128,-1,52
 489 456 489 456 489 462 c 2,53,-1
 490 464 l 2,54,55
 490 467 490 467 490 469 c 0,56,57
 490 487 490 487 487.5 503.5 c 128,-1,58
 485 520 485 520 470 540 c 128,-1,59
 455 560 455 560 429 560 c 0,60,61
 381 560 381 560 329 505 c 128,-1,62
 277 450 277 450 242 363.5 c 128,-1,63
 207 277 207 277 207 194 c 0,64,65
 207 141 207 141 226 96 c 128,-1,66
 245 51 245 51 288 51 c 0,67,68
 327 51 327 51 364.5 84.5 c 128,-1,69
 402 118 402 118 419 167 c 2,70,-1
 422 174 l 2,71,72
 424 181 424 181 424.5 182.5 c 128,-1,73
 425 184 425 184 428.5 189.5 c 128,-1,74
 432 195 432 195 435 196.5 c 128,-1,75
 438 198 438 198 443.5 200 c 128,-1,76
 449 202 449 202 456 202 c 2,77,-1
 458 202 l 2,78,79
 492 202 492 202 492 174 c 0,80,81
 492 158 492 158 480 132 c 128,-1,82
 468 106 468 106 446.5 76.5 c 128,-1,83
 425 47 425 47 387 22 c 128,-1,84
 349 -3 349 -3 304 -10 c 1,85,86
 375 -33 375 -33 375 -92 c 0,87,88
 375 -126 375 -126 354 -153 c 0,89,90
 327 -188 327 -188 277 -198 c 128,-1,91
 227 -208 227 -208 154 -208 c 2,92,-1
 143 -208 l 2,93,94
 126 -208 126 -208 118.5 -199 c 128,-1,95
 111 -190 111 -190 111 -180 c 0,0,1
EndSplineSet
EndChar

StartChar: Egrave
Encoding: 200 200 138
Width: 525
GlyphClass: 2
Flags: W
ItalicCorrection: 173
AnchorPoint: "Anchor-5" 460 798 basechar 0
LayerCount: 2
Fore
SplineSet
65 29 m 0,0,1
 65 62 65 62 104 62 c 2,2,-1
 131 62 l 1,3,-1
 253 549 l 1,4,-1
 238 549 l 2,5,6
 202 549 202 549 202 577 c 0,7,8
 202 583 202 583 204 589.5 c 128,-1,9
 206 596 206 596 215 603.5 c 128,-1,10
 224 611 224 611 239 611 c 2,11,-1
 556 611 l 2,12,13
 591 611 591 611 591 582 c 0,14,15
 591 575 591 575 578 525.5 c 128,-1,16
 565 476 565 476 562 470 c 0,17,18
 554 454 554 454 530 454 c 0,19,20
 516 454 516 454 506.5 461.5 c 128,-1,21
 497 469 497 469 497 482 c 0,22,23
 497 488 497 488 512 549 c 1,24,-1
 324 549 l 1,25,-1
 274 348 l 1,26,-1
 371 348 l 2,27,28
 372 349 372 349 374.5 364 c 128,-1,29
 377 379 377 379 385.5 391.5 c 128,-1,30
 394 404 394 404 413 404 c 2,31,-1
 414 404 l 2,32,33
 449 404 449 404 449 375 c 0,34,35
 449 371 449 371 421 259 c 0,36,37
 419 250 419 250 417 245.5 c 128,-1,38
 415 241 415 241 407 235 c 128,-1,39
 399 229 399 229 387 229 c 2,40,-1
 386 229 l 2,41,42
 351 229 351 229 351 259 c 0,43,44
 351 266 351 266 356 286 c 1,45,-1
 259 286 l 1,46,-1
 259 285 l 1,47,-1
 203 62 l 1,48,-1
 409 62 l 1,49,50
 427 141 427 141 434.5 156.5 c 128,-1,51
 442 172 442 172 463 172 c 2,52,-1
 467 172 l 2,53,54
 485 172 485 172 492 163 c 128,-1,55
 499 154 499 154 499 144 c 0,56,57
 499 135 499 135 474 37 c 0,58,59
 468 15 468 15 461.5 7.5 c 128,-1,60
 455 0 455 0 436 0 c 2,61,-1
 99 0 l 2,62,63
 80 0 80 0 72.5 9.5 c 128,-1,64
 65 19 65 19 65 29 c 0,0,1
352 771 m 0,65,66
 352 785 352 785 362.5 796 c 128,-1,67
 373 807 373 807 388 807 c 0,68,69
 399 807 399 807 505 756 c 0,70,71
 529 745 529 745 529 726 c 0,72,73
 529 715 529 715 518.5 700.5 c 128,-1,74
 508 686 508 686 493 686 c 0,75,76
 486 686 486 686 379 737 c 0,77,78
 352 749 352 749 352 771 c 0,65,66
EndSplineSet
Substitution2: "'locl' Localized Forms in Latin lookup 10 subtable" Egrave.vn
AlternateSubs2: "'ss01' Style Set 1 lookup 9 subtable" Egrave.vn
AlternateSubs2: "'salt' Stylistic Alternatives in Latin lookup 8 subtable" Egrave.vn
EndChar

StartChar: Eacute
Encoding: 201 201 139
Width: 525
GlyphClass: 2
Flags: W
ItalicCorrection: 173
AnchorPoint: "Anchor-5" 460 798 basechar 0
LayerCount: 2
Fore
SplineSet
65 29 m 0,0,1
 65 62 65 62 104 62 c 2,2,-1
 131 62 l 1,3,-1
 253 549 l 1,4,-1
 238 549 l 2,5,6
 202 549 202 549 202 577 c 0,7,8
 202 583 202 583 204 589.5 c 128,-1,9
 206 596 206 596 215 603.5 c 128,-1,10
 224 611 224 611 239 611 c 2,11,-1
 556 611 l 2,12,13
 591 611 591 611 591 582 c 0,14,15
 591 575 591 575 578 525.5 c 128,-1,16
 565 476 565 476 562 470 c 0,17,18
 554 454 554 454 530 454 c 0,19,20
 516 454 516 454 506.5 461.5 c 128,-1,21
 497 469 497 469 497 482 c 0,22,23
 497 488 497 488 512 549 c 1,24,-1
 324 549 l 1,25,-1
 274 348 l 1,26,-1
 371 348 l 2,27,28
 372 349 372 349 374.5 364 c 128,-1,29
 377 379 377 379 385.5 391.5 c 128,-1,30
 394 404 394 404 413 404 c 2,31,-1
 414 404 l 2,32,33
 449 404 449 404 449 375 c 0,34,35
 449 371 449 371 421 259 c 0,36,37
 419 250 419 250 417 245.5 c 128,-1,38
 415 241 415 241 407 235 c 128,-1,39
 399 229 399 229 387 229 c 2,40,-1
 386 229 l 2,41,42
 351 229 351 229 351 259 c 0,43,44
 351 266 351 266 356 286 c 1,45,-1
 259 286 l 1,46,-1
 259 285 l 1,47,-1
 203 62 l 1,48,-1
 409 62 l 1,49,50
 427 141 427 141 434.5 156.5 c 128,-1,51
 442 172 442 172 463 172 c 2,52,-1
 467 172 l 2,53,54
 485 172 485 172 492 163 c 128,-1,55
 499 154 499 154 499 144 c 0,56,57
 499 135 499 135 474 37 c 0,58,59
 468 15 468 15 461.5 7.5 c 128,-1,60
 455 0 455 0 436 0 c 2,61,-1
 99 0 l 2,62,63
 80 0 80 0 72.5 9.5 c 128,-1,64
 65 19 65 19 65 29 c 0,0,1
385 725 m 128,-1,66
 385 739 385 739 392 745.5 c 128,-1,67
 399 752 399 752 415 758 c 0,68,69
 542 807 542 807 552 807 c 0,70,71
 565 807 565 807 575 797.5 c 128,-1,72
 585 788 585 788 585 774 c 0,73,74
 585 749 585 749 553 737 c 0,75,76
 421 686 421 686 415 686 c 0,77,78
 399 686 399 686 392 698.5 c 128,-1,65
 385 711 385 711 385 725 c 128,-1,66
EndSplineSet
Substitution2: "'locl' Localized Forms in Latin lookup 10 subtable" Eacute.vn
AlternateSubs2: "'ss01' Style Set 1 lookup 9 subtable" Eacute.vn
AlternateSubs2: "'salt' Stylistic Alternatives in Latin lookup 8 subtable" Eacute.vn
EndChar

StartChar: Ecircumflex
Encoding: 202 202 140
Width: 525
GlyphClass: 2
Flags: W
ItalicCorrection: 173
AnchorPoint: "Anchor-5" 464 815 basechar 0
LayerCount: 2
Fore
SplineSet
65 29 m 0,0,1
 65 62 65 62 104 62 c 2,2,-1
 131 62 l 1,3,-1
 253 549 l 1,4,-1
 238 549 l 2,5,6
 202 549 202 549 202 577 c 0,7,8
 202 583 202 583 204 589.5 c 128,-1,9
 206 596 206 596 215 603.5 c 128,-1,10
 224 611 224 611 239 611 c 2,11,-1
 556 611 l 2,12,13
 591 611 591 611 591 582 c 0,14,15
 591 575 591 575 578 525.5 c 128,-1,16
 565 476 565 476 562 470 c 0,17,18
 554 454 554 454 530 454 c 0,19,20
 516 454 516 454 506.5 461.5 c 128,-1,21
 497 469 497 469 497 482 c 0,22,23
 497 488 497 488 512 549 c 1,24,-1
 324 549 l 1,25,-1
 274 348 l 1,26,-1
 371 348 l 2,27,28
 372 349 372 349 374.5 364 c 128,-1,29
 377 379 377 379 385.5 391.5 c 128,-1,30
 394 404 394 404 413 404 c 2,31,-1
 414 404 l 2,32,33
 449 404 449 404 449 375 c 0,34,35
 449 371 449 371 421 259 c 0,36,37
 419 250 419 250 417 245.5 c 128,-1,38
 415 241 415 241 407 235 c 128,-1,39
 399 229 399 229 387 229 c 2,40,-1
 386 229 l 2,41,42
 351 229 351 229 351 259 c 0,43,44
 351 266 351 266 356 286 c 1,45,-1
 259 286 l 1,46,-1
 259 285 l 1,47,-1
 203 62 l 1,48,-1
 409 62 l 1,49,50
 427 141 427 141 434.5 156.5 c 128,-1,51
 442 172 442 172 463 172 c 2,52,-1
 467 172 l 2,53,54
 485 172 485 172 492 163 c 128,-1,55
 499 154 499 154 499 144 c 0,56,57
 499 135 499 135 474 37 c 0,58,59
 468 15 468 15 461.5 7.5 c 128,-1,60
 455 0 455 0 436 0 c 2,61,-1
 99 0 l 2,62,63
 80 0 80 0 72.5 9.5 c 128,-1,64
 65 19 65 19 65 29 c 0,0,1
273 698 m 0,65,66
 273 713 273 713 296 728 c 0,67,68
 453 822 453 822 461 824 c 2,69,-1
 462 824 l 2,70,71
 470 824 470 824 480 816.5 c 128,-1,72
 490 809 490 809 543 761 c 0,73,74
 567 740 567 740 582 726 c 0,75,76
 599 709 599 709 599 697 c 128,-1,77
 599 685 599 685 586.5 672 c 128,-1,78
 574 659 574 659 561 659 c 0,79,80
 552 659 552 659 543.5 666 c 128,-1,81
 535 673 535 673 498 709 c 0,82,83
 473 734 473 734 455 751 c 1,84,85
 421 728 421 728 376 699 c 0,86,87
 316 659 316 659 307 659 c 0,88,89
 293 659 293 659 283 672 c 128,-1,90
 273 685 273 685 273 698 c 0,65,66
EndSplineSet
Substitution2: "'locl' Localized Forms in Latin lookup 10 subtable" Ecircumflex.vn
AlternateSubs2: "'ss01' Style Set 1 lookup 9 subtable" Ecircumflex.vn
AlternateSubs2: "'salt' Stylistic Alternatives in Latin lookup 8 subtable" Ecircumflex.vn
EndChar

StartChar: Edieresis
Encoding: 203 203 141
Width: 525
GlyphClass: 2
Flags: W
ItalicCorrection: 173
AnchorPoint: "Anchor-5" 463 810 basechar 0
LayerCount: 2
Fore
SplineSet
65 29 m 0,0,1
 65 62 65 62 104 62 c 2,2,-1
 131 62 l 1,3,-1
 253 549 l 1,4,-1
 238 549 l 2,5,6
 202 549 202 549 202 577 c 0,7,8
 202 583 202 583 204 589.5 c 128,-1,9
 206 596 206 596 215 603.5 c 128,-1,10
 224 611 224 611 239 611 c 2,11,-1
 556 611 l 2,12,13
 591 611 591 611 591 582 c 0,14,15
 591 575 591 575 578 525.5 c 128,-1,16
 565 476 565 476 562 470 c 0,17,18
 554 454 554 454 530 454 c 0,19,20
 516 454 516 454 506.5 461.5 c 128,-1,21
 497 469 497 469 497 482 c 0,22,23
 497 488 497 488 512 549 c 1,24,-1
 324 549 l 1,25,-1
 274 348 l 1,26,-1
 371 348 l 2,27,28
 372 349 372 349 374.5 364 c 128,-1,29
 377 379 377 379 385.5 391.5 c 128,-1,30
 394 404 394 404 413 404 c 2,31,-1
 414 404 l 2,32,33
 449 404 449 404 449 375 c 0,34,35
 449 371 449 371 421 259 c 0,36,37
 419 250 419 250 417 245.5 c 128,-1,38
 415 241 415 241 407 235 c 128,-1,39
 399 229 399 229 387 229 c 2,40,-1
 386 229 l 2,41,42
 351 229 351 229 351 259 c 0,43,44
 351 266 351 266 356 286 c 1,45,-1
 259 286 l 1,46,-1
 259 285 l 1,47,-1
 203 62 l 1,48,-1
 409 62 l 1,49,50
 427 141 427 141 434.5 156.5 c 128,-1,51
 442 172 442 172 463 172 c 2,52,-1
 467 172 l 2,53,54
 485 172 485 172 492 163 c 128,-1,55
 499 154 499 154 499 144 c 0,56,57
 499 135 499 135 474 37 c 0,58,59
 468 15 468 15 461.5 7.5 c 128,-1,60
 455 0 455 0 436 0 c 2,61,-1
 99 0 l 2,62,63
 80 0 80 0 72.5 9.5 c 128,-1,64
 65 19 65 19 65 29 c 0,0,1
301 764 m 0,65,66
 301 785 301 785 317.5 802 c 128,-1,67
 334 819 334 819 357 819 c 0,68,69
 376 819 376 819 389 807 c 128,-1,70
 402 795 402 795 402 775 c 0,71,72
 402 753 402 753 385 736 c 128,-1,73
 368 719 368 719 347 719 c 0,74,75
 328 719 328 719 314.5 731.5 c 128,-1,76
 301 744 301 744 301 764 c 0,65,66
505 764 m 0,77,78
 505 787 505 787 522.5 803 c 128,-1,79
 540 819 540 819 561 819 c 0,80,81
 581 819 581 819 594 806 c 128,-1,82
 607 793 607 793 607 774 c 0,83,84
 607 752 607 752 589.5 735.5 c 128,-1,85
 572 719 572 719 551 719 c 0,86,87
 532 719 532 719 518.5 732 c 128,-1,88
 505 745 505 745 505 764 c 0,77,78
EndSplineSet
EndChar

StartChar: Igrave
Encoding: 204 204 142
Width: 525
GlyphClass: 2
Flags: W
ItalicCorrection: 173
AnchorPoint: "Anchor-5" 461 798 basechar 0
AnchorPoint: "Anchor-4" 261 0 basechar 0
LayerCount: 2
Fore
SplineSet
109 29 m 0,0,1
 109 35 109 35 111 41.5 c 128,-1,2
 113 48 113 48 122 55 c 128,-1,3
 131 62 131 62 146 62 c 2,4,-1
 242 62 l 1,5,-1
 363 549 l 1,6,-1
 281 549 l 2,7,8
 247 549 247 549 247 578 c 0,9,10
 247 584 247 584 248.5 590.5 c 128,-1,11
 250 597 250 597 258.5 604 c 128,-1,12
 267 611 267 611 282 611 c 2,13,-1
 530 611 l 2,14,15
 567 611 567 611 567 582 c 0,16,17
 567 549 567 549 531 549 c 2,18,-1
 435 549 l 1,19,-1
 313 62 l 1,20,-1
 395 62 l 2,21,22
 430 62 430 62 430 33 c 0,23,24
 430 27 430 27 428 20.5 c 128,-1,25
 426 14 426 14 417.5 7 c 128,-1,26
 409 0 409 0 394 0 c 2,27,-1
 147 0 l 2,28,29
 109 0 109 0 109 29 c 0,0,1
389 771 m 0,30,31
 389 785 389 785 399.5 796 c 128,-1,32
 410 807 410 807 425 807 c 0,33,34
 436 807 436 807 542 756 c 0,35,36
 566 745 566 745 566 726 c 0,37,38
 566 715 566 715 555.5 700.5 c 128,-1,39
 545 686 545 686 530 686 c 0,40,41
 523 686 523 686 416 737 c 0,42,43
 389 749 389 749 389 771 c 0,30,31
EndSplineSet
Substitution2: "'locl' Localized Forms in Latin lookup 10 subtable" Igrave.vn
AlternateSubs2: "'ss01' Style Set 1 lookup 9 subtable" Igrave.vn
AlternateSubs2: "'salt' Stylistic Alternatives in Latin lookup 8 subtable" Igrave.vn
EndChar

StartChar: Iacute
Encoding: 205 205 143
Width: 525
GlyphClass: 2
Flags: W
ItalicCorrection: 173
AnchorPoint: "Anchor-5" 461 798 basechar 0
AnchorPoint: "Anchor-4" 261 0 basechar 0
LayerCount: 2
Fore
SplineSet
109 29 m 0,0,1
 109 35 109 35 111 41.5 c 128,-1,2
 113 48 113 48 122 55 c 128,-1,3
 131 62 131 62 146 62 c 2,4,-1
 242 62 l 1,5,-1
 363 549 l 1,6,-1
 281 549 l 2,7,8
 247 549 247 549 247 578 c 0,9,10
 247 584 247 584 248.5 590.5 c 128,-1,11
 250 597 250 597 258.5 604 c 128,-1,12
 267 611 267 611 282 611 c 2,13,-1
 530 611 l 2,14,15
 567 611 567 611 567 582 c 0,16,17
 567 549 567 549 531 549 c 2,18,-1
 435 549 l 1,19,-1
 313 62 l 1,20,-1
 395 62 l 2,21,22
 430 62 430 62 430 33 c 0,23,24
 430 27 430 27 428 20.5 c 128,-1,25
 426 14 426 14 417.5 7 c 128,-1,26
 409 0 409 0 394 0 c 2,27,-1
 147 0 l 2,28,29
 109 0 109 0 109 29 c 0,0,1
358 725 m 128,-1,31
 358 739 358 739 364.5 745.5 c 128,-1,32
 371 752 371 752 387 758 c 0,33,34
 514 807 514 807 524 807 c 0,35,36
 537 807 537 807 547 797.5 c 128,-1,37
 557 788 557 788 557 774 c 0,38,39
 557 751 557 751 525 737 c 0,40,41
 393 686 393 686 388 686 c 0,42,43
 372 686 372 686 365 698.5 c 128,-1,30
 358 711 358 711 358 725 c 128,-1,31
EndSplineSet
Substitution2: "'locl' Localized Forms in Latin lookup 10 subtable" Iacute.vn
AlternateSubs2: "'ss01' Style Set 1 lookup 9 subtable" Iacute.vn
AlternateSubs2: "'salt' Stylistic Alternatives in Latin lookup 8 subtable" Iacute.vn
EndChar

